<svg width="24" height="24" viewBox="0 0 24 24" fill="none" xmlns="http://www.w3.org/2000/svg">
<path d="M24 12C24 5.34545 18.6546 -2.75701e-07 12 -6.18921e-07C5.34549 -9.62141e-07 4.3671e-05 5.34545 4.34245e-05 12C4.3178e-05 18.6545 5.34549 24 12 24C18.6546 24 24 18.6545 24 12ZM10.6909 9.16364L9.9273 8.4C9.70912 8.18182 9.70912 7.85454 9.9273 7.63636L11.2909 6.27273C12.1637 5.4 13.3091 4.90909 14.5637 4.90909C17.0727 4.90909 19.1455 6.98182 19.1455 9.49091C19.1455 10.6909 18.6546 11.8909 17.7818 12.7636L16.4182 14.1273C16.2 14.3455 15.8727 14.3455 15.6546 14.1273L14.8909 13.3636C14.6727 13.1455 14.6727 12.8182 14.8909 12.6L16.2546 11.2364C16.6909 10.8 16.9636 10.2 16.9636 9.54545C16.9636 8.23636 15.8727 7.14545 14.5637 7.14545C13.9091 7.14545 13.3091 7.41818 12.8727 7.85455L11.5091 9.21818C11.2364 9.32727 10.9091 9.32727 10.6909 9.16364ZM13.8 9.43636L14.5637 10.2C14.7818 10.4182 14.7818 10.7455 14.5637 10.9636L10.9637 14.5636C10.7455 14.7818 10.4182 14.7818 10.2 14.5636L9.43639 13.8C9.21821 13.5818 9.21821 13.2545 9.43639 13.0364L13.0364 9.43636C13.2546 9.21818 13.5818 9.21818 13.8 9.43636ZM4.90913 14.5091C4.90913 13.3091 5.40003 12.1091 6.27276 11.2364L7.63639 9.87273C7.85457 9.65454 8.18185 9.65454 8.40003 9.87273L9.16366 10.6364C9.38184 10.8545 9.38184 11.1818 9.16366 11.4L7.80003 12.7636C7.36367 13.2 7.09094 13.8 7.09094 14.4545C7.09094 15.7636 8.18185 16.8545 9.49093 16.8545C10.1455 16.8545 10.7455 16.5818 11.1818 16.1455L12.5455 14.7818C12.7637 14.5636 13.0909 14.5636 13.3091 14.7818L14.0727 15.5455C14.2909 15.7636 14.2909 16.0909 14.0727 16.3091L12.7091 17.6727C11.8364 18.5455 10.6909 19.0364 9.43639 19.0364C6.98185 19.0909 4.90913 17.0182 4.90913 14.5091Z" fill="#4E8FC8"/>
</svg>
