<svg width="43" height="43" viewBox="0 0 43 43" fill="none" xmlns="http://www.w3.org/2000/svg">
<g clip-path="url(#clip0)">
<path d="M21.4167 0.939453C9.93096 0.939453 0.58667 10.2837 0.58667 21.7695C0.58667 33.2553 9.93096 42.5996 21.4167 42.5996C32.9025 42.5996 42.2467 33.2552 42.2467 21.7695C42.2467 10.2838 32.9025 0.939453 21.4167 0.939453ZM21.4167 41.1105C10.752 41.1105 2.07561 32.4342 2.07561 21.7695C2.07561 11.1048 10.752 2.42839 21.4167 2.42839C32.0815 2.42839 40.7579 11.1047 40.7579 21.7695C40.7579 32.4343 32.0813 41.1105 21.4167 41.1105Z" fill="#A6A6A6"/>
<path d="M30.7971 25.0771H11.8378C11.4265 25.0771 11.0933 25.4105 11.0933 25.8217C11.0933 26.2328 11.4265 26.5662 11.8378 26.5662H30.797C31.2082 26.5662 31.5415 26.2328 31.5415 25.8217C31.5415 25.4104 31.2082 25.0771 30.7971 25.0771Z" fill="#A6A6A6"/>
<path d="M24.7919 27.8564H17.8429C17.4317 27.8564 17.0984 28.1898 17.0984 28.601C17.0984 29.0121 17.4316 29.3455 17.8429 29.3455H24.7919C25.2031 29.3455 25.5364 29.0121 25.5364 28.601C25.5364 28.1898 25.2031 27.8564 24.7919 27.8564Z" fill="#A6A6A6"/>
<path d="M12.5252 16.6416C11.0064 16.6416 9.77075 17.8772 9.77075 19.396C9.77075 20.9148 11.0064 22.1505 12.5252 22.1505C14.044 22.1505 15.2796 20.9148 15.2796 19.396C15.2796 17.8772 14.044 16.6416 12.5252 16.6416Z" fill="#A6A6A6"/>
<path d="M30.3079 16.6416C28.7891 16.6416 27.5535 17.8772 27.5535 19.396C27.5535 20.9148 28.7891 22.1505 30.3079 22.1505C31.8267 22.1505 33.0624 20.9148 33.0624 19.396C33.0624 17.8772 31.8268 16.6416 30.3079 16.6416Z" fill="#A6A6A6"/>
<path d="M13.2775 19.5632C13.6887 19.5632 14.022 19.2299 14.022 18.8187C14.022 18.4075 13.6887 18.0742 13.2775 18.0742C12.8663 18.0742 12.533 18.4075 12.533 18.8187C12.533 19.2299 12.8663 19.5632 13.2775 19.5632Z" fill="#A6A6A6"/>
<path d="M31.0455 19.5632C31.4567 19.5632 31.79 19.2299 31.79 18.8187C31.79 18.4075 31.4567 18.0742 31.0455 18.0742C30.6344 18.0742 30.301 18.4075 30.301 18.8187C30.301 19.2299 30.6344 19.5632 31.0455 19.5632Z" fill="#A6A6A6"/>
</g>
<defs>
<clipPath id="clip0">
<rect width="41.6601" height="41.6601" fill="white" transform="translate(0.58667 0.939453)"/>
</clipPath>
</defs>
</svg>
