<svg width="51" height="50" viewBox="0 0 51 50" fill="none" xmlns="http://www.w3.org/2000/svg">
<path d="M25.5883 49.9999C39.3954 49.9999 50.5883 38.807 50.5883 25C50.5883 11.1929 39.3954 0 25.5883 0C11.7812 0 0.588379 11.1929 0.588379 25C0.588379 38.807 11.7812 49.9999 25.5883 49.9999Z" fill="#F7B239"/>
<path d="M17.6499 38.1339C8.65669 29.1405 7.94801 15.0002 15.5234 5.19531C14.6842 5.84354 13.8768 6.55222 13.1071 7.32194C3.34418 17.0848 3.34418 32.9138 13.1071 42.6766C22.87 52.4394 38.6989 52.4395 48.4618 42.6766C49.2314 41.907 49.94 41.0995 50.5884 40.2603C40.7836 47.8358 26.6433 47.1271 17.6499 38.1339Z" fill="#E09B2D"/>
<path d="M15.7077 13.0242C14.1976 11.5141 11.7492 11.5141 10.239 13.0242C8.72891 14.5343 8.72891 16.9827 10.239 18.4929L15.7077 23.9615L21.1763 18.4929C22.6865 16.9827 22.6865 14.5343 21.1763 13.0242C19.6662 11.5141 17.2178 11.5141 15.7077 13.0242Z" fill="#F95428"/>
<path d="M35.4701 13.0242C33.96 11.5141 31.5116 11.5141 30.0015 13.0242C28.4914 14.5343 28.4914 16.9827 30.0015 18.4929L35.4701 23.9615L40.9388 18.4929C42.4489 16.9827 42.4489 14.5343 40.9388 13.0242C39.4286 11.5141 36.9803 11.5141 35.4701 13.0242Z" fill="#F95428"/>
<path d="M12.9868 27.5977H38.1907C38.1907 29.0123 37.9572 30.3725 37.5272 31.6426H13.6503C13.2203 30.3725 12.9868 29.0123 12.9868 27.5977Z" fill="white"/>
<path d="M13.6501 31.6426H37.5271C36.6795 34.1457 35.0673 36.2942 32.9682 37.8126C32.0861 36.3263 30.4651 35.3305 28.6106 35.3305C27.4776 35.3305 26.4324 35.7024 25.5886 36.3313C24.7448 35.7024 23.6983 35.3305 22.5654 35.3305C20.7122 35.3305 19.09 36.3263 18.2092 37.8126C16.11 36.2942 14.4977 34.1457 13.6501 31.6426Z" fill="#A81004"/>
<path d="M28.6108 35.3311C30.4653 35.3311 32.0862 36.3268 32.9683 37.8131C30.894 39.3155 28.3439 40.2001 25.5888 40.2001C22.8337 40.2001 20.2836 39.3155 18.2092 37.8131C19.0902 36.3268 20.7123 35.3311 22.5655 35.3311C23.6984 35.3311 24.7449 35.7029 25.5887 36.3318C26.4327 35.7029 27.4779 35.3311 28.6108 35.3311Z" fill="#F95428"/>
</svg>
