<svg width="70" height="70" viewBox="0 0 70 70" fill="none" xmlns="http://www.w3.org/2000/svg">
<g clip-path="url(#clip0)">
<path d="M63.6698 0H6.33038C3.21071 0 0.679122 2.52374 0.669964 5.64341V10.8518C0.654918 13.3526 2.29227 15.563 4.6891 16.2774V47.007C4.6891 50.5742 7.63673 53.404 11.1868 53.404H33.3255V59.3994L23.4784 66.9856C22.9139 67.4239 22.6895 68.1723 22.9204 68.8487C23.1507 69.5251 23.7852 69.981 24.5002 69.983C24.8705 69.9817 25.2296 69.858 25.522 69.6317L34.9334 62.3974L44.4285 69.6481C44.7196 69.877 45.0793 70.0013 45.4503 70C45.9723 69.9954 46.4649 69.7553 46.79 69.3471C47.0614 68.9946 47.1805 68.5484 47.121 68.1082C47.0608 67.6673 46.8273 67.2695 46.4714 67.0026L36.6747 59.5505V53.421H58.7296C60.4317 53.4335 62.0678 52.7636 63.2728 51.5619C64.4777 50.3602 65.1515 48.7255 65.1436 47.024V16.3107C67.6268 15.6788 69.3558 13.4305 69.3302 10.8682V5.64341C69.3211 2.52374 66.7895 0 63.6698 0V0ZM58.7296 50.0718H11.1868C9.47884 50.0718 8.03838 48.7321 8.03838 47.024V16.5789H61.7944V47.024C61.7989 47.8365 61.4771 48.6169 60.9008 49.19C60.3245 49.763 59.5428 50.0809 58.7296 50.0718ZM65.981 10.9185C65.9783 12.1941 64.9454 13.227 63.6698 13.2297H6.33038C5.05478 13.227 4.02186 12.1941 4.01925 10.9185V5.66042C4.02186 4.38481 5.05478 3.3519 6.33038 3.34928H63.6698C64.9454 3.3519 65.9783 4.38481 65.981 5.66042V10.9185Z" fill="white"/>
<path d="M16.2439 26.2919H31.3157C32.2407 26.2919 32.9904 25.5422 32.9904 24.6173C32.9904 23.6923 32.2407 22.9426 31.3157 22.9426H16.2439C15.319 22.9426 14.5693 23.6923 14.5693 24.6173C14.5693 25.5422 15.319 26.2919 16.2439 26.2919Z" fill="white"/>
<path d="M53.7559 31.3158H16.2439C15.319 31.3158 14.5693 32.0655 14.5693 32.9904C14.5693 33.9154 15.319 34.6651 16.2439 34.6651H53.7559C54.6809 34.6651 55.4305 33.9154 55.4305 32.9904C55.4305 32.0655 54.6809 31.3158 53.7559 31.3158Z" fill="white"/>
<path d="M53.7559 39.689H16.2439C15.319 39.689 14.5693 40.4386 14.5693 41.3636C14.5693 42.2886 15.319 43.0382 16.2439 43.0382H53.7559C54.6809 43.0382 55.4305 42.2886 55.4305 41.3636C55.4305 40.4386 54.6809 39.689 53.7559 39.689Z" fill="white"/>
</g>
<defs>
<clipPath id="clip0">
<rect width="70" height="70" fill="white"/>
</clipPath>
</defs>
</svg>
