<svg width="14" height="10" viewBox="0 0 14 10" fill="none" xmlns="http://www.w3.org/2000/svg">
<path d="M13.8601 1.75863L13.1588 1.05732C13.0653 0.96367 12.9576 0.916992 12.8359 0.916992C12.7145 0.916992 12.6069 0.96367 12.5135 1.05732L7.00007 6.57042L1.48692 1.05747C1.39342 0.963818 1.28582 0.91714 1.16425 0.91714C1.04265 0.91714 0.93504 0.963818 0.841585 1.05747L0.14033 1.75882C0.0466783 1.85228 0 1.95988 0 2.08149C0 2.203 0.0468257 2.31061 0.14033 2.40406L6.6774 8.94129C6.77086 9.03479 6.87851 9.08152 7.00007 9.08152C7.12163 9.08152 7.22909 9.03479 7.3225 8.94129L13.8601 2.40406C13.9536 2.31056 14 2.20295 14 2.08149C14 1.95988 13.9536 1.85228 13.8601 1.75863Z" fill="white"/>
</svg>
