<svg width="70" height="70" viewBox="0 0 70 70" fill="none" xmlns="http://www.w3.org/2000/svg">
<g clip-path="url(#clip0)">
<path d="M29.1821 4.6803C15.6562 4.6803 4.69141 15.6451 4.69141 29.171C4.69141 42.6969 15.6562 53.6617 29.1821 53.6617C42.708 53.6617 53.6728 42.6969 53.6728 29.171C53.6581 15.6513 42.7019 4.69502 29.1821 4.6803ZM29.1821 7.01275C36.3859 7.01843 43.1364 10.5294 47.2773 16.4242L44.3617 19.3397C43.6522 18.9104 42.8399 18.6807 42.0106 18.675C39.4342 18.675 37.3457 20.7636 37.3457 23.3399C37.3498 24.1701 37.5782 24.9837 38.0069 25.6945L30.3705 33.3309C28.9245 32.4493 27.1073 32.4493 25.6613 33.3309L20.3573 28.0269C20.786 27.3161 21.0145 26.5025 21.0185 25.6723C21.0218 23.1011 18.94 21.0141 16.3688 21.0109C14.2423 21.0083 12.3844 22.4467 11.8544 24.5061H7.52766C9.73576 14.3094 18.7491 7.02805 29.1821 7.01275ZM44.343 23.3399C44.343 24.6281 43.2988 25.6723 42.0106 25.6723C40.7223 25.6723 39.6781 24.6281 39.6781 23.3399C39.6781 22.0517 40.7223 21.0074 42.0106 21.0074C43.2988 21.0074 44.343 22.0517 44.343 23.3399ZM30.3483 37.3346C30.3483 38.6228 29.3041 39.667 28.0159 39.667C26.7277 39.667 25.6834 38.6228 25.6834 37.3346C25.6834 36.0463 26.7277 35.0021 28.0159 35.0021C29.3041 35.0021 30.3483 36.0463 30.3483 37.3346ZM18.6861 25.6723C18.6861 26.9606 17.6419 28.0048 16.3537 28.0048C15.0654 28.0048 14.0212 26.9606 14.0212 25.6723C14.0212 24.3841 15.0654 23.3399 16.3537 23.3399C17.6419 23.3399 18.6861 24.3841 18.6861 25.6723ZM39.9484 48.5458C36.655 50.3744 32.9493 51.3325 29.1821 51.3291C16.9528 51.3374 7.03216 41.4305 7.02385 29.2012C7.02327 28.4119 7.06496 27.6231 7.14864 26.8384H11.8544C12.3846 28.8917 14.233 30.3291 16.3537 30.3371C17.1839 30.333 17.9974 30.1046 18.7083 29.6758L24.0122 34.9798C23.5835 35.6906 23.3551 36.5042 23.351 37.3344C23.351 39.9108 25.4396 41.9993 28.0159 41.9993C30.5922 41.9993 32.6808 39.9108 32.6808 37.3344C32.6767 36.5042 32.4483 35.6906 32.0195 34.9798L39.656 27.3434C40.3668 27.7721 41.1804 28.0006 42.0106 28.0046C44.5869 28.0046 46.6755 25.9161 46.6755 23.3397C46.6714 22.5095 46.443 21.696 46.0142 20.9851L48.5566 18.4439C54.492 29.1336 50.6379 42.6106 39.9484 48.5458Z" fill="white"/>
<path d="M58.3378 11.6784C60.4585 11.6704 62.3069 10.2332 62.8371 8.17977H70.0001V5.84732H62.8371C62.3069 3.79389 60.4585 2.35666 58.3378 2.34865C55.7615 2.34865 53.6729 4.43721 53.6729 7.01354C53.677 7.84375 53.9055 8.65734 54.3342 9.36815L52.2851 11.4172C42.4808 -1.35601 24.1781 -3.76281 11.4049 6.0415C-1.36834 15.8458 -3.77514 34.1487 6.02917 46.9219C15.2837 58.9788 32.2481 61.9035 45.0056 53.6415L48.5252 57.1612L50.1743 58.8102L59.5624 68.1983C61.9501 70.586 65.8211 70.586 68.2088 68.1983C70.5965 65.8106 70.5965 61.9397 68.2088 59.552L58.8207 50.1638L57.1716 48.5148L53.6519 44.9951C59.8998 35.3715 59.8998 22.9723 53.6519 13.3485L55.9844 11.016C56.6948 11.4449 57.5081 11.6738 58.3378 11.6784ZM58.3378 4.68109C59.6261 4.68109 60.6703 5.7253 60.6703 7.01354C60.6703 8.30178 59.6261 9.34599 58.3378 9.34599C57.0496 9.34599 56.0054 8.30178 56.0054 7.01354C56.0054 5.7253 57.0497 4.68109 58.3378 4.68109ZM66.5597 61.201C68.0534 62.6611 68.0806 65.0557 66.6205 66.5493C65.1604 68.0429 62.7659 68.0702 61.2722 66.6101C61.2517 66.5901 61.2315 66.5699 61.2114 66.5493L51.8233 57.1612L57.1716 51.8129L66.5597 61.201ZM55.5226 50.1638L50.1743 55.5122L46.9462 52.284C47.1106 52.1581 47.2645 52.0193 47.4266 51.8899C47.5887 51.7604 47.7765 51.6053 47.9503 51.4595C48.2057 51.2449 48.4576 51.028 48.7048 50.8053C48.8319 50.6887 48.9532 50.572 49.078 50.4554C49.5562 50.0076 50.0192 49.5446 50.467 49.0664C50.5836 48.9417 50.7002 48.8204 50.8169 48.6932C51.0396 48.446 51.2565 48.1941 51.4711 47.9387C51.6173 47.7661 51.7608 47.5916 51.9014 47.4151C52.0297 47.2541 52.1685 47.1002 52.2945 46.9357L55.5226 50.1638ZM51 44.7467C50.6326 45.2599 50.2536 45.7625 49.8536 46.2465C49.7369 46.3876 49.6121 46.5241 49.492 46.6628C49.1352 47.078 48.7666 47.4808 48.3864 47.8711C48.2208 48.042 48.0525 48.2104 47.8815 48.376C47.4927 48.7562 47.09 49.1247 46.6733 49.4816C46.5345 49.5982 46.398 49.7254 46.2569 49.8431C45.7729 50.2432 45.2703 50.6222 44.7572 50.9895C32.6844 59.6145 15.9055 56.8195 7.28053 44.7467C-1.34443 32.674 1.45057 15.8951 13.5233 7.27011C25.5961 -1.35485 42.375 1.44001 51 13.5129C57.6738 22.8547 57.6738 35.405 51 44.7467Z" fill="white"/>
</g>
<defs>
<clipPath id="clip0">
<rect width="70" height="70" fill="white"/>
</clipPath>
</defs>
</svg>
