<svg width="69" height="69" viewBox="0 0 69 69" fill="none" xmlns="http://www.w3.org/2000/svg">
<path d="M34.5071 11.9485C37.4486 11.9485 39.8332 9.56392 39.8332 6.62238C39.8332 3.68085 37.4486 1.29626 34.5071 1.29626C31.5655 1.29626 29.181 3.68085 29.181 6.62238C29.181 9.56392 31.5655 11.9485 34.5071 11.9485Z" fill="white"/>
<path d="M58.7986 53.698C61.7402 53.698 64.1248 51.3134 64.1248 48.3719C64.1248 45.4304 61.7402 43.0458 58.7986 43.0458C55.8571 43.0458 53.4725 45.4304 53.4725 48.3719C53.4725 51.3134 55.8571 53.698 58.7986 53.698Z" fill="white"/>
<path d="M10.2155 53.698C13.157 53.698 15.5416 51.3134 15.5416 48.3719C15.5416 45.4304 13.157 43.0458 10.2155 43.0458C7.27397 43.0458 4.88938 45.4304 4.88938 48.3719C4.88938 51.3134 7.27397 53.698 10.2155 53.698Z" fill="white"/>
<path d="M65.407 20.6422C65.407 16.9929 62.448 14.0339 58.7986 14.0339C56.8119 14.0339 55.0365 14.9075 53.8248 16.3024L40.7631 8.73596C40.9886 8.07372 41.1154 7.35512 41.1154 6.60833C41.1154 2.95895 38.1564 0 34.507 0C30.8577 0 27.8987 2.95895 27.8987 6.60833C27.8987 7.35512 28.0255 8.05963 28.251 8.72187L15.1893 16.2883C13.9775 14.9075 12.2022 14.0198 10.2154 14.0198C6.56606 14.0198 3.60711 16.9788 3.60711 20.6281C3.60711 23.7844 5.83337 26.4333 8.79232 27.0815L8.80641 41.9044C5.83337 42.5526 3.59302 45.2016 3.59302 48.3578C3.59302 52.0071 6.55197 54.9661 10.2013 54.9661C12.1458 54.9661 13.893 54.1207 15.1048 52.7821L28.2087 60.3486C27.9973 60.9967 27.8846 61.6731 27.8846 62.3917C27.8846 66.041 30.8436 69 34.493 69C38.1423 69 41.1013 66.041 41.1013 62.3917C41.1013 61.6731 40.9886 60.9967 40.7772 60.3486L53.8811 52.7821C55.0929 54.1207 56.8401 54.9661 58.7846 54.9661C62.4339 54.9661 65.3929 52.0071 65.3929 48.3578C65.3929 45.1593 63.0962 42.468 60.0668 41.8763V27.1097C63.1103 26.532 65.407 23.8548 65.407 20.6422ZM58.7986 16.5842C61.039 16.5842 62.8566 18.4019 62.8566 20.6422C62.8566 22.8826 61.039 24.7002 58.7986 24.7002C56.5583 24.7002 54.7407 22.8826 54.7407 20.6422C54.7407 18.4019 56.5724 16.5842 58.7986 16.5842ZM34.507 2.56443C36.7474 2.56443 38.565 4.38207 38.565 6.62242C38.565 7.31284 38.396 7.961 38.086 8.5387C38.0578 8.56688 38.0437 8.59506 38.0155 8.63733C38.0014 8.66551 37.9873 8.69369 37.9732 8.72187C37.2687 9.89136 35.9724 10.6804 34.507 10.6804C32.2667 10.6804 30.4491 8.86277 30.4491 6.62242C30.4491 4.38207 32.2667 2.56443 34.507 2.56443ZM6.15744 20.6422C6.15744 18.4019 7.97509 16.5842 10.2154 16.5842C12.4558 16.5842 14.2734 18.4019 14.2734 20.6422C14.2734 22.8826 12.4558 24.7002 10.2154 24.7002C7.97509 24.7002 6.15744 22.8826 6.15744 20.6422ZM10.2154 52.4299C7.97509 52.4299 6.15744 50.6122 6.15744 48.3719C6.15744 46.1315 7.97509 44.3139 10.2154 44.3139C12.4558 44.3139 14.2734 46.1315 14.2734 48.3719C14.2593 50.6122 12.4417 52.4299 10.2154 52.4299ZM34.507 66.4497C32.2667 66.4497 30.4491 64.632 30.4491 62.3917C30.4491 60.1513 32.2667 58.3337 34.507 58.3337C36.7474 58.3337 38.565 60.1513 38.565 62.3917C38.565 64.632 36.7474 66.4497 34.507 66.4497ZM39.5373 58.1223C38.3255 56.6992 36.5219 55.7833 34.507 55.7833C32.4921 55.7833 30.6886 56.6851 29.4768 58.1223L16.4292 50.5981C16.6829 49.9077 16.8238 49.1468 16.8238 48.3719C16.8238 45.117 14.4707 42.4117 11.3708 41.8622L11.3567 27.1378C14.4566 26.6024 16.8238 23.883 16.8238 20.6281C16.8238 19.8814 16.697 19.1628 16.4715 18.5005L29.5332 10.934C30.7449 12.329 32.5344 13.2026 34.5211 13.2026C36.5079 13.2026 38.2832 12.329 39.495 10.934L52.5567 18.5005C52.3312 19.1628 52.2044 19.8814 52.2044 20.6281C52.2044 23.8266 54.5011 26.5179 57.5305 27.1097V41.8763C54.5011 42.468 52.2044 45.1452 52.2044 48.3578C52.2044 49.1468 52.3453 49.8936 52.5989 50.584L39.5373 58.1223ZM62.8566 48.3719C62.8566 50.6122 61.039 52.4299 58.7986 52.4299C56.5583 52.4299 54.7407 50.6122 54.7407 48.3719C54.7407 46.1315 56.5583 44.3139 58.7986 44.3139C61.039 44.3139 62.8566 46.1315 62.8566 48.3719Z" fill="white"/>
<path d="M40.6645 39.6077V35.0002C41.4395 34.2534 41.8763 33.2248 41.8763 32.1258V26.081C41.8763 22.3753 38.8609 19.36 35.1552 19.36H33.8589C30.1532 19.36 27.1378 22.3753 27.1378 26.081V32.1258C27.1378 33.2248 27.5887 34.2534 28.3496 35.0002V39.6077C26.8842 40.3686 23.3617 42.2989 20.0645 45.0043C19.515 45.4551 19.4446 46.2583 19.8955 46.8078C20.3463 47.3573 21.1495 47.4278 21.699 46.9769C25.3484 43.9757 29.2937 41.9889 30.0545 41.6226C30.59 41.3549 30.914 40.8335 30.914 40.2277V34.3943C30.914 33.9716 30.7027 33.563 30.3504 33.3375C29.9418 33.0698 29.7023 32.6189 29.7023 32.1258V26.081C29.7023 23.7843 31.5763 21.9103 33.873 21.9103H35.1693C37.466 21.9103 39.34 23.7843 39.34 26.081V32.1258C39.34 32.6048 39.1005 33.0557 38.6919 33.3375C38.3396 33.5771 38.1283 33.9716 38.1283 34.3943V40.2277C38.1283 40.8195 38.4664 41.3549 39.0018 41.6226C39.7627 41.9889 43.708 43.9898 47.3574 46.9769C47.5969 47.1742 47.8787 47.2728 48.1605 47.2728C48.5269 47.2728 48.8932 47.1178 49.1468 46.8078C49.5977 46.2583 49.5132 45.4551 48.9778 45.0043C45.6525 42.2989 42.1299 40.3545 40.6645 39.6077Z" fill="white"/>
</svg>
