<svg width="63" height="69" viewBox="0 0 63 69" fill="none" xmlns="http://www.w3.org/2000/svg">
<path d="M62.407 20.6422C62.407 16.9929 59.448 14.0339 55.7986 14.0339C53.8119 14.0339 52.0365 14.9075 50.8248 16.3024L37.7631 8.73596C37.9886 8.07372 38.1154 7.35512 38.1154 6.60833C38.1154 2.95895 35.1564 0 31.507 0C27.8577 0 24.8987 2.95895 24.8987 6.60833C24.8987 7.35512 25.0255 8.05963 25.251 8.72187L12.1893 16.2883C10.9775 14.9075 9.20217 14.0198 7.21544 14.0198C3.56606 14.0198 0.607108 16.9788 0.607108 20.6281C0.607108 23.7844 2.83337 26.4333 5.79232 27.0815L5.80641 41.9044C2.83337 42.5526 0.593018 45.2016 0.593018 48.3578C0.593018 52.0071 3.55197 54.9661 7.20135 54.9661C9.1458 54.9661 10.893 54.1207 12.1048 52.7821L25.2087 60.3486C24.9973 60.9967 24.8846 61.6731 24.8846 62.3917C24.8846 66.041 27.8436 69 31.493 69C35.1423 69 38.1013 66.041 38.1013 62.3917C38.1013 61.6731 37.9886 60.9967 37.7772 60.3486L50.8811 52.7821C52.0929 54.1207 53.8401 54.9661 55.7846 54.9661C59.4339 54.9661 62.3929 52.0071 62.3929 48.3578C62.3929 45.1593 60.0962 42.468 57.0668 41.8763V27.1097C60.1103 26.532 62.407 23.8548 62.407 20.6422ZM55.7986 16.5842C58.039 16.5842 59.8566 18.4019 59.8566 20.6422C59.8566 22.8826 58.039 24.7002 55.7986 24.7002C53.5583 24.7002 51.7407 22.8826 51.7407 20.6422C51.7407 18.4019 53.5724 16.5842 55.7986 16.5842ZM31.507 2.56443C33.7474 2.56443 35.565 4.38207 35.565 6.62242C35.565 7.31284 35.396 7.961 35.086 8.5387C35.0578 8.56688 35.0437 8.59506 35.0155 8.63733C35.0014 8.66551 34.9873 8.69369 34.9732 8.72187C34.2687 9.89136 32.9724 10.6804 31.507 10.6804C29.2667 10.6804 27.4491 8.86277 27.4491 6.62242C27.4491 4.38207 29.2667 2.56443 31.507 2.56443ZM3.15744 20.6422C3.15744 18.4019 4.97509 16.5842 7.21544 16.5842C9.45579 16.5842 11.2734 18.4019 11.2734 20.6422C11.2734 22.8826 9.45579 24.7002 7.21544 24.7002C4.97509 24.7002 3.15744 22.8826 3.15744 20.6422ZM7.21544 52.4299C4.97509 52.4299 3.15744 50.6122 3.15744 48.3719C3.15744 46.1315 4.97509 44.3139 7.21544 44.3139C9.45579 44.3139 11.2734 46.1315 11.2734 48.3719C11.2593 50.6122 9.4417 52.4299 7.21544 52.4299ZM31.507 66.4497C29.2667 66.4497 27.4491 64.632 27.4491 62.3917C27.4491 60.1513 29.2667 58.3337 31.507 58.3337C33.7474 58.3337 35.565 60.1513 35.565 62.3917C35.565 64.632 33.7474 66.4497 31.507 66.4497ZM36.5373 58.1223C35.3255 56.6992 33.5219 55.7833 31.507 55.7833C29.4921 55.7833 27.6886 56.6851 26.4768 58.1223L13.4292 50.5981C13.6829 49.9077 13.8238 49.1468 13.8238 48.3719C13.8238 45.117 11.4707 42.4117 8.37084 41.8622L8.35675 27.1378C11.4566 26.6024 13.8238 23.883 13.8238 20.6281C13.8238 19.8814 13.697 19.1628 13.4715 18.5005L26.5332 10.934C27.7449 12.329 29.5344 13.2026 31.5211 13.2026C33.5079 13.2026 35.2832 12.329 36.495 10.934L49.5567 18.5005C49.3312 19.1628 49.2044 19.8814 49.2044 20.6281C49.2044 23.8266 51.5011 26.5179 54.5305 27.1097V41.8763C51.5011 42.468 49.2044 45.1452 49.2044 48.3578C49.2044 49.1468 49.3453 49.8936 49.5989 50.584L36.5373 58.1223ZM59.8566 48.3719C59.8566 50.6122 58.039 52.4299 55.7986 52.4299C53.5583 52.4299 51.7407 50.6122 51.7407 48.3719C51.7407 46.1315 53.5583 44.3139 55.7986 44.3139C58.039 44.3139 59.8566 46.1315 59.8566 48.3719Z" fill="white"/>
</svg>
