<svg width="70" height="70" viewBox="0 0 70 70" fill="none" xmlns="http://www.w3.org/2000/svg">
<g clip-path="url(#clip0)">
<path d="M68.8334 11.6666H40.8334C40.1891 11.6666 39.6667 12.189 39.6667 12.8333V23.3333C39.6672 23.9776 40.19 24.4995 40.8343 24.4991C40.9593 24.4989 41.0835 24.4788 41.2021 24.4393L42.6686 23.9505C44.2608 23.4292 45.9739 24.2975 46.495 25.8898C47.016 27.482 46.1479 29.1951 44.5557 29.7161C43.9426 29.9168 43.2815 29.9168 42.6684 29.7161L41.2019 29.2273C40.5906 29.0237 39.93 29.3542 39.7264 29.9655C39.6869 30.0841 39.6667 30.2083 39.6666 30.3333V39.6666H30.3333C29.689 39.6671 29.167 40.1899 29.1675 40.8342C29.1676 40.9591 29.1877 41.0834 29.2273 41.202L29.7161 42.6685C30.2373 44.2607 29.369 45.9738 27.7768 46.4948C26.1846 47.016 24.4715 46.1477 23.9504 44.5555C23.7498 43.9425 23.7498 43.2814 23.9504 42.6683L24.4393 41.2018C24.6429 40.5905 24.3124 39.9299 23.7011 39.7263C23.5825 39.6868 23.4582 39.6666 23.3333 39.6665H12.8334C12.1891 39.6665 11.6667 40.1889 11.6667 40.8331V68.8331C11.6667 69.4774 12.1891 69.9998 12.8334 69.9998H68.8334C69.4777 69.9998 70.0001 69.4774 70.0001 68.8331V12.8333C70.0001 12.189 69.4777 11.6666 68.8334 11.6666ZM39.7265 57.9655C39.687 58.0841 39.6669 58.2083 39.6667 58.3333V67.6666H14.0001V42H21.7153C20.8238 44.8266 22.3926 47.8409 25.2193 48.7322C28.046 49.6237 31.0602 48.0548 31.9516 45.2281C32.2829 44.1775 32.2829 43.0504 31.9516 41.9998H39.6667V51.3331C39.6672 51.9774 40.19 52.4994 40.8343 52.4989C40.9593 52.4988 41.0835 52.4787 41.2021 52.4391L42.6686 51.9503C44.2608 51.4292 45.9739 52.2974 46.495 53.8896C47.016 55.4818 46.1479 57.1949 44.5557 57.716C43.9426 57.9166 43.2815 57.9166 42.6684 57.716L41.2019 57.2271C40.5908 57.0237 39.9301 57.3542 39.7265 57.9655ZM67.6668 67.6666H42.0001V59.9515C44.8268 60.8429 47.841 59.2741 48.7323 56.4474C49.6238 53.6207 48.0549 50.6065 45.2282 49.7151C44.1777 49.3838 43.0505 49.3838 41.9999 49.7151V42H51.3333C51.9776 41.9995 52.4995 41.4767 52.4991 40.8324C52.4989 40.7074 52.4788 40.5832 52.4393 40.4646L51.9504 38.9981C51.4294 37.4059 52.2975 35.6928 53.8897 35.1717C55.4819 34.6507 57.195 35.5188 57.7161 37.111C57.9168 37.7241 57.9168 38.3852 57.7161 38.9983L57.2273 40.4648C57.0237 41.0761 57.3541 41.7367 57.9655 41.9403C58.084 41.9798 58.2083 42 58.3333 42.0001H67.6666V67.6666H67.6668ZM67.6668 39.6666H59.9516C60.8431 36.8399 59.2742 33.8257 56.4475 32.9344C53.6208 32.0429 50.6066 33.6118 49.7152 36.4385C49.3839 37.489 49.3839 38.6162 49.7152 39.6668H42.0001V31.9516C43.6204 32.4767 45.3944 32.1934 46.7706 31.1898C49.1835 29.4686 49.7444 26.1173 48.0233 23.7043C46.6641 21.7988 44.2268 20.994 42.0001 21.7153V14H67.6668V39.6666Z" fill="white"/>
<path d="M33.5616 10.0485C32.5111 9.71717 31.3839 9.71717 30.3333 10.0485V1.16667C30.3333 0.522375 29.811 0 29.1667 0H1.16667C0.522375 0 0 0.522375 0 1.16667V29.1667C0 29.811 0.522375 30.3333 1.16667 30.3333H10.0485C9.15702 33.16 10.7259 36.1742 13.5526 37.0656C16.3793 37.9569 19.3935 36.3882 20.2848 33.5615C20.6162 32.5109 20.6162 31.3838 20.2848 30.3332H29.1667C29.811 30.3332 30.3333 29.8108 30.3333 29.1665V20.2847C33.16 21.1762 36.1743 19.6073 37.0656 16.7806C37.9571 13.9541 36.3883 10.94 33.5616 10.0485ZM32.8891 18.0495C32.276 18.2502 31.6149 18.2502 31.0018 18.0495L29.5353 17.5607C28.924 17.3571 28.2634 17.6875 28.0598 18.2989C28.0203 18.4174 28.0001 18.5417 28 18.6667V28H18.6667C18.0224 28.0004 17.5004 28.5232 17.5009 29.1675C17.501 29.2925 17.5211 29.4168 17.5607 29.5353L18.0495 31.0018C18.5707 32.594 17.7024 34.3071 16.1102 34.8282C14.518 35.3493 12.8049 34.4811 12.2838 32.8889C12.0832 32.2758 12.0832 31.6148 12.2838 31.0017L12.7727 29.5352C12.9763 28.9239 12.6458 28.2632 12.0345 28.0596C11.9159 28.0201 11.7916 28 11.6667 27.9999H2.33333V2.33333H28V11.6667C28.0004 12.311 28.5233 12.8329 29.1675 12.8325C29.2925 12.8323 29.4168 12.8122 29.5353 12.7727L31.0018 12.2838C32.594 11.7628 34.3071 12.6309 34.8282 14.2231C35.3494 15.8152 34.4811 17.5284 32.8891 18.0495Z" fill="white"/>
</g>
<defs>
<clipPath id="clip0">
<rect width="70" height="70" fill="white"/>
</clipPath>
</defs>
</svg>
