<svg width="30" height="30" viewBox="0 0 30 30" fill="none" xmlns="http://www.w3.org/2000/svg">
<g clip-path="url(#clip0)">
<path d="M28.5594 4.5283C28.1457 2.00264 22.2345 0 15 0C7.76548 0 1.85435 2.00264 1.44057 4.5283H1.4151V4.81132V11.3208V11.6038V11.8868V18.1132V18.3962V18.6792V25.4717H1.44057C1.85435 27.9968 7.76604 30 15 30C22.234 30 28.1457 27.9968 28.5594 25.4717H28.5849V18.6792V18.3962V18.1132V11.8868V11.6038V11.3208V4.81132V4.5283H28.5594Z" fill="#424A60"/>
<path d="M15 23.2078C7.49718 23.2078 1.4151 21.0535 1.4151 18.3965V25.472H1.44057C1.85435 27.9971 7.76604 30.0003 15 30.0003C22.234 30.0003 28.1457 27.9971 28.5594 25.472H28.5849V18.3965C28.5849 21.0535 22.5028 23.2078 15 23.2078Z" fill="#424A60"/>
<path d="M1.4151 18.1133V18.3963C1.4151 18.3012 1.42529 18.2072 1.44057 18.1133H1.4151Z" fill="#424A60"/>
<path d="M28.5594 18.1133C28.5747 18.2072 28.5849 18.3012 28.5849 18.3963V18.1133H28.5594Z" fill="#424A60"/>
<path d="M15 16.4148C7.49718 16.4148 1.4151 14.2605 1.4151 11.6035V18.679H1.44057C1.85435 21.2041 7.76604 23.2073 15 23.2073C22.234 23.2073 28.1457 21.2041 28.5594 18.679H28.5849V11.6035C28.5849 14.2605 22.5028 16.4148 15 16.4148Z" fill="#EFCE4A"/>
<path d="M1.4151 11.3203V11.6033C1.4151 11.5082 1.42529 11.4143 1.44057 11.3203H1.4151Z" fill="#EFCE4A"/>
<path d="M28.5594 11.3203C28.5747 11.4143 28.5849 11.5082 28.5849 11.6033V11.3203H28.5594Z" fill="#EFCE4A"/>
<path d="M15 9.62264C22.5027 9.62264 28.5849 7.46854 28.5849 4.81132C28.5849 2.1541 22.5027 0 15 0C7.49727 0 1.4151 2.1541 1.4151 4.81132C1.4151 7.46854 7.49727 9.62264 15 9.62264Z" fill="#7FABDA"/>
<path d="M15 9.62284C7.49718 9.62284 1.4151 7.4685 1.4151 4.81152V11.887H1.44057C1.85435 14.4121 7.76604 16.4153 15 16.4153C22.234 16.4153 28.1457 14.4121 28.5594 11.887H28.5849V4.81152C28.5849 7.4685 22.5028 9.62284 15 9.62284Z" fill="#7383BF"/>
<path d="M1.4151 4.52832V4.81134C1.4151 4.71624 1.42529 4.62228 1.44057 4.52832H1.4151Z" fill="#7383BF"/>
<path d="M28.5594 4.52832C28.5747 4.62228 28.5849 4.71624 28.5849 4.81134V4.52832H28.5594Z" fill="#7383BF"/>
</g>
<defs>
<clipPath id="clip0">
<rect width="30" height="30" fill="white"/>
</clipPath>
</defs>
</svg>
