<svg width="30" height="30" viewBox="0 0 30 30" fill="none" xmlns="http://www.w3.org/2000/svg">
<path d="M26.4938 4.28571C26.1021 1.89536 20.5077 0 13.6607 0C6.81375 0 1.21929 1.89536 0.827681 4.28571H0.803574V4.55357V10.7143V10.9821V11.25V17.1429V17.4107V17.6786V24.1071H0.827681C1.21929 26.497 6.81429 28.3929 13.6607 28.3929C20.5071 28.3929 26.1021 26.497 26.4938 24.1071H26.5179V17.6786V17.4107V17.1429V11.25V10.9821V10.7143V4.55357V4.28571H26.4938Z" fill="#545E73"/>
<path d="M13.6607 21.9637C6.55982 21.9637 0.803574 19.9248 0.803574 17.4102V24.1066H0.827681C1.21929 26.4964 6.81429 28.3923 13.6607 28.3923C20.5071 28.3923 26.1021 26.4964 26.4938 24.1066H26.5179V17.4102C26.5179 19.9248 20.7616 21.9637 13.6607 21.9637Z" fill="#38454F"/>
<path d="M0.803574 17.1426V17.4104C0.803574 17.3204 0.813216 17.2315 0.827681 17.1426H0.803574Z" fill="#38454F"/>
<path d="M26.4937 17.1426C26.5082 17.2315 26.5178 17.3204 26.5178 17.4104V17.1426H26.4937Z" fill="#38454F"/>
<path d="M13.6607 15.535C6.55982 15.535 0.803574 13.4961 0.803574 10.9814V17.6779H0.827681C1.21929 20.0677 6.81429 21.9636 13.6607 21.9636C20.5071 21.9636 26.1021 20.0677 26.4938 17.6779H26.5179V10.9814C26.5179 13.4961 20.7616 15.535 13.6607 15.535Z" fill="#556080"/>
<path d="M0.803574 10.7139V10.9817C0.803574 10.8917 0.813216 10.8028 0.827681 10.7139H0.803574Z" fill="#556080"/>
<path d="M26.4937 10.7139C26.5082 10.8028 26.5178 10.8917 26.5178 10.9817V10.7139H26.4937Z" fill="#556080"/>
<path d="M13.6607 9.10714C20.7615 9.10714 26.5179 7.06844 26.5179 4.55357C26.5179 2.0387 20.7615 0 13.6607 0C6.55991 0 0.803574 2.0387 0.803574 4.55357C0.803574 7.06844 6.55991 9.10714 13.6607 9.10714Z" fill="#91BAE1"/>
<path d="M13.6607 9.10728C6.55982 9.10728 0.803574 7.06835 0.803574 4.55371V11.2501H0.827681C1.21929 13.64 6.81429 15.5359 13.6607 15.5359C20.5071 15.5359 26.1021 13.64 26.4938 11.2501H26.5179V4.55371C26.5179 7.06835 20.7616 9.10728 13.6607 9.10728Z" fill="#8697CB"/>
<path d="M0.803574 4.28613V4.55399C0.803574 4.46399 0.813216 4.37506 0.827681 4.28613H0.803574Z" fill="#8697CB"/>
<path d="M26.4937 4.28613C26.5082 4.37506 26.5178 4.46399 26.5178 4.55399V4.28613H26.4937Z" fill="#8697CB"/>
<path d="M26.542 24.1669C26.5146 22.0583 24.8475 20.3574 22.7925 20.3574C21.4168 20.3574 20.2179 21.1214 19.5648 22.2571C19.3393 22.1815 19.0987 22.1392 18.8486 22.1392C17.7434 22.1392 16.8209 22.9385 16.5943 24.0056C15.6541 24.469 15 25.4553 15 26.5937C15 28.173 16.2552 29.4646 17.79 29.4646H23.5623C23.595 29.4646 23.6261 29.4608 23.6587 29.4597C23.6909 29.4608 23.7225 29.4646 23.7552 29.4646H26.0641C27.4929 29.4646 28.6618 28.2619 28.6618 26.7919C28.6607 25.4901 27.7436 24.3999 26.542 24.1669Z" fill="#48A0DC"/>
<path d="M26.063 29.9999H23.7541C23.7204 29.9999 23.6866 29.9977 23.6534 29.9956C23.6282 29.9977 23.5955 29.9999 23.5618 29.9999H17.79C15.9563 29.9999 14.4643 28.4715 14.4643 26.5938C14.4643 25.382 15.112 24.2516 16.1336 23.6458C16.5011 22.4484 17.6047 21.6031 18.8475 21.6031C19.0061 21.6031 19.1647 21.6165 19.3211 21.6438C20.1225 20.5102 21.4179 19.8213 22.7925 19.8213C24.99 19.8213 26.8232 21.549 27.0536 23.7491C28.3168 24.1809 29.1964 25.3986 29.1964 26.7915C29.1964 28.5604 27.7907 29.9999 26.063 29.9999ZM23.6325 28.9236L23.7322 28.9268L26.063 28.9284C27.1998 28.9284 28.125 27.9695 28.125 26.7915C28.125 25.7645 27.4163 24.8822 26.4396 24.692L26.0116 24.609L26.0057 24.1734C25.9827 22.3643 24.5416 20.8927 22.7925 20.8927C21.6488 20.8927 20.6159 21.5029 20.0293 22.524L19.8102 22.9049L19.3939 22.765C19.2161 22.705 19.0323 22.6745 18.848 22.6745C18.023 22.6745 17.2955 23.2815 17.1182 24.1166L17.0636 24.3711L16.8305 24.4858C16.0436 24.8741 15.5357 25.7013 15.5357 26.5938C15.5357 27.8811 16.5472 28.9284 17.79 28.9284L23.6325 28.9236Z" fill="#B1D3EF"/>
</svg>
