<svg width="30" height="30" viewBox="0 0 30 30" fill="none" xmlns="http://www.w3.org/2000/svg">
<path d="M17.5862 0C11.7791 0 6.90517 1.41207 5.54896 3.31966C2.39483 4.06241 0.256034 5.30276 0.0232759 6.72414H0V6.98276V12.931V13.1897V13.4483V19.1379V19.3966V19.6552V25.8621H0.0232759C0.401379 28.1695 5.80293 30 12.4138 30C18.2209 30 23.0938 28.5874 24.4495 26.6798C27.6031 25.9371 29.744 24.6972 29.9772 23.2759H30V17.069V16.8103V10.8621V10.6034V4.39655C30 1.96862 24.4422 0 17.5862 0Z" fill="#424A60"/>
<path d="M12.4138 23.793C5.55776 23.793 0 21.8244 0 19.3965V25.862H0.0232759C0.401379 28.1694 5.80293 29.9999 12.4138 29.9999C19.0247 29.9999 24.4262 28.1694 24.8043 25.862H24.8276V19.3965C24.8276 21.8244 19.2698 23.793 12.4138 23.793Z" fill="#424A60"/>
<path d="M0 19.1377V19.3963C0 19.3094 0.00931035 19.2236 0.0232759 19.1377H0Z" fill="#424A60"/>
<path d="M24.8043 19.1377C24.8183 19.2236 24.8276 19.3094 24.8276 19.3963V19.1377H24.8043Z" fill="#424A60"/>
<path d="M12.4138 17.586C5.55776 17.586 0 15.6174 0 13.1895V19.655H0.0232759C0.401379 21.9624 5.80293 23.7929 12.4138 23.7929C19.0247 23.7929 24.4262 21.9624 24.8043 19.655H24.8276V13.1895C24.8276 15.6174 19.2698 17.586 12.4138 17.586Z" fill="#556080"/>
<path d="M0 12.9307V13.1893C0 13.1024 0.00931035 13.0165 0.0232759 12.9307H0Z" fill="#556080"/>
<path d="M24.8043 12.9307C24.8183 13.0165 24.8276 13.1024 24.8276 13.1893V12.9307H24.8043Z" fill="#556080"/>
<path d="M12.4138 11.379C19.2697 11.379 24.8276 9.41064 24.8276 6.98249C24.8276 4.55434 19.2697 2.58594 12.4138 2.58594C5.55784 2.58594 0 4.55434 0 6.98249C0 9.41064 5.55784 11.379 12.4138 11.379Z" fill="#7FABDA"/>
<path d="M12.4138 11.38C5.55776 11.38 0 9.41133 0 6.9834V13.4489H0.0232759C0.401379 15.7563 5.80293 17.5868 12.4138 17.5868C19.0247 17.5868 24.4262 15.7563 24.8043 13.4489H24.8276V6.9834C24.8276 9.41133 19.2698 11.38 12.4138 11.38Z" fill="#7383BF"/>
<path d="M0 6.72461V6.98323C0 6.89633 0.00931035 6.81047 0.0232759 6.72461H0Z" fill="#7383BF"/>
<path d="M24.8043 6.72461C24.8183 6.81047 24.8276 6.89633 24.8276 6.98323V6.72461H24.8043Z" fill="#7383BF"/>
<path d="M17.5862 0C11.7786 0 6.90362 1.41259 5.54845 3.32069C7.515 2.85724 9.87414 2.58621 12.4138 2.58621C19.0247 2.58621 24.4262 4.41621 24.8043 6.72414H24.8276V6.98276V7.96655C27.959 7.16845 30 5.86707 30 4.39655C30 1.96862 24.4422 0 17.5862 0Z" fill="#88C057"/>
<path d="M24.8276 7.96648V12.931V13.1896V13.4482V14.1739C27.7738 13.4229 29.7533 12.226 29.9767 10.862H30V4.39648C30 5.867 27.959 7.16838 24.8276 7.96648Z" fill="#61B872"/>
<path d="M24.8276 14.1735V19.138V19.3966V19.6552V20.3809C27.7738 19.6299 29.7533 18.433 29.9767 17.069H30V10.6035C30 12.074 27.959 13.3754 24.8276 14.1735Z" fill="#25AE88"/>
<path d="M24.8276 20.3805V25.8623H24.8043C24.7583 26.1426 24.6367 26.4162 24.449 26.68C27.6026 25.9373 29.7434 24.6974 29.9767 23.2761H30V16.8105C30 18.2811 27.959 19.5824 24.8276 20.3805Z" fill="#1A9172"/>
</svg>
