<svg width="11" height="10" viewBox="0 0 11 10" fill="none" xmlns="http://www.w3.org/2000/svg">
<path d="M6.5489 5.00005L9.93991 1.60894C10.0213 1.52753 10.0213 1.39557 9.93991 1.31417L8.68713 0.0610805C8.64804 0.0219931 8.59489 0 8.53975 0C8.4845 0 8.43145 0.0219931 8.39236 0.0610805L5.00114 3.4523L1.60993 0.0610805C1.53175 -0.0170942 1.39333 -0.0170942 1.31515 0.0610805L0.0622751 1.31417C-0.0191308 1.39557 -0.0191308 1.52753 0.0622751 1.60894L3.45339 5.00005L0.0622751 8.39116C-0.0191308 8.47257 -0.0191308 8.60453 0.0622751 8.68594L1.31515 9.93892C1.35424 9.97801 1.4073 10 1.46254 10C1.51778 10 1.57084 9.97801 1.60993 9.93892L5.00114 6.5477L8.39236 9.93892C8.43145 9.97801 8.4845 10 8.53975 10C8.59489 10 8.64804 9.97801 8.68713 9.93892L9.94001 8.68594C10.0214 8.60453 10.0214 8.47247 9.94001 8.39116L6.5489 5.00005Z" fill="white"/>
</svg>
