<svg width="12" height="8" viewBox="0 0 12 8" fill="none" xmlns="http://www.w3.org/2000/svg">
<path d="M11.3461 4.18414L11.4586 4.00049L11.3461 3.81674C11.3273 3.78607 10.8746 3.05548 9.99527 2.32333C8.82568 1.34967 7.44781 0.834961 6.01053 0.834961C4.57361 0.834961 3.19235 1.3494 2.01608 2.3226C1.13168 3.05438 0.67392 3.78442 0.654877 3.81519L0.539978 4.00049L0.654877 4.18579C0.67392 4.21655 1.13168 4.94659 2.01608 5.67838C3.19235 6.65158 4.57361 7.16602 6.01053 7.16602C7.44781 7.16602 8.82568 6.65131 9.99527 5.67764C10.8746 4.9455 11.3273 4.21491 11.3461 4.18414ZM9.5267 5.15268C8.47458 6.02207 7.29153 6.4628 6.01053 6.4628C4.72906 6.4628 3.54218 6.02179 2.48291 5.15186C1.93506 4.70197 1.56363 4.2464 1.38171 4.00049C1.56372 3.7544 1.93515 3.29892 2.48291 2.84903C3.54218 1.97919 4.72897 1.53809 6.01053 1.53809C7.29153 1.53809 8.47449 1.97891 9.5267 2.84821C10.0721 3.29883 10.4403 3.75504 10.6198 4.00049C10.4401 4.24603 10.072 4.70224 9.5267 5.15268Z" fill="#666666"/>
</svg>
