<svg width="12" height="12" viewBox="0 0 12 12" fill="none" xmlns="http://www.w3.org/2000/svg">
<path d="M11.3461 6.18414L11.4586 6.00049L11.3461 5.81674C11.3273 5.78607 10.8746 5.05548 9.99527 4.32333C8.82568 3.34967 7.44781 2.83496 6.01053 2.83496C4.57361 2.83496 3.19235 3.3494 2.01608 4.3226C1.13168 5.05438 0.67392 5.78442 0.654877 5.81519L0.539978 6.00049L0.654877 6.18579C0.67392 6.21655 1.13168 6.94659 2.01608 7.67838C3.19235 8.65158 4.57361 9.16602 6.01053 9.16602C7.44781 9.16602 8.82568 8.65131 9.99527 7.67764C10.8746 6.9455 11.3273 6.21491 11.3461 6.18414ZM9.5267 7.15268C8.47458 8.02207 7.29153 8.4628 6.01053 8.4628C4.72906 8.4628 3.54218 8.02179 2.48291 7.15186C1.93506 6.70197 1.56363 6.2464 1.38171 6.00049C1.56372 5.7544 1.93515 5.29892 2.48291 4.84903C3.54218 3.97919 4.72897 3.53809 6.01053 3.53809C7.29153 3.53809 8.47449 3.97891 9.5267 4.84821C10.0721 5.29883 10.4403 5.75504 10.6198 6.00049C10.4401 6.24603 10.072 6.70224 9.5267 7.15268Z" fill="#666666"/>
<path d="M6 3.8877C4.83517 3.8877 3.88751 4.83536 3.88751 6.00018C3.88751 7.16501 4.83517 8.11267 6 8.11267C7.16483 8.11267 8.11249 7.16501 8.11249 6.00018C8.11249 4.83536 7.16483 3.8877 6 3.8877ZM6 7.40955C5.2229 7.40955 4.59064 6.77728 4.59064 6.00018C4.59064 5.22308 5.2229 4.59082 6 4.59082C6.7771 4.59082 7.40936 5.22308 7.40936 6.00018C7.40936 6.77728 6.7771 7.40955 6 7.40955Z" fill="#666666"/>
<path d="M0.703125 0.703125H2.1709V0H0V2.14453H0.703125V0.703125Z" fill="#666666"/>
<path d="M9.8291 0V0.703125H11.2969V2.14453H12V0H9.8291Z" fill="#666666"/>
<path d="M0.703125 9.85547H0V12H2.1709V11.2969H0.703125V9.85547Z" fill="#666666"/>
<path d="M11.2969 11.2969H9.8291V12H12V9.85547H11.2969V11.2969Z" fill="#666666"/>
</svg>
