<svg width="36" height="36" viewBox="0 0 36 36" fill="none" xmlns="http://www.w3.org/2000/svg">
<g clip-path="url(#clip0)">
<path d="M20.4048 29.2023C20.4048 24.3977 24.3136 20.4889 29.1182 20.4889C31.7885 20.4889 34.1814 21.6964 35.7811 23.5939V9.57892C35.7811 7.7965 34.3386 6.35695 32.5592 6.35695H20.9025L15.7112 1.16564C15.519 0.973381 15.2581 0.865234 14.9863 0.865234H4.0031C2.22095 0.865234 0.781128 2.30772 0.781128 4.0872V28.2501C0.781128 30.0325 2.22388 31.4721 4.0031 31.4721H20.7052C20.5098 30.7482 20.4048 29.9874 20.4048 29.2023Z" fill="#7E7E7E"/>
<path d="M29.1182 22.54C25.4385 22.54 22.4556 25.523 22.4556 29.2027C22.4556 32.8826 25.4385 35.8656 29.1182 35.8656C32.7981 35.8656 35.7811 32.8826 35.7811 29.2027C35.7811 25.523 32.7981 22.54 29.1182 22.54ZM30.1436 32.3093C30.1436 32.8757 29.6846 33.3347 29.1182 33.3347C28.5521 33.3347 28.0928 32.8757 28.0928 32.3093V30.2281H26.0119C25.4455 30.2281 24.9865 29.769 24.9865 29.2027C24.9865 28.6363 25.4455 28.1773 26.0119 28.1773H28.0931V26.0963C28.0931 25.53 28.5521 25.0709 29.1185 25.0709C29.6846 25.0707 30.1439 25.53 30.1439 26.0963V28.1773H32.2248C32.7912 28.1773 33.2502 28.6363 33.2502 29.2027C33.2502 29.769 32.7912 30.2281 32.2248 30.2281H30.1439V32.3093H30.1436Z" fill="#7E7E7E"/>
</g>
<defs>
<clipPath id="clip0">
<rect width="35" height="35" fill="white" transform="translate(0.781128 0.865234)"/>
</clipPath>
</defs>
</svg>
