<svg width="16" height="15" viewBox="0 0 16 15" fill="none" xmlns="http://www.w3.org/2000/svg">
<g clip-path="url(#clip0)">
<path d="M8.97083 12.1445C8.97083 10.0853 10.7577 8.41015 12.9541 8.41015C14.1748 8.41015 15.2687 8.92765 16 9.74087V3.73444C16 2.97054 15.3406 2.35359 14.5271 2.35359H9.19836L6.8252 0.128746C6.7373 0.0463486 6.61804 0 6.49377 0H1.4729C0.658203 0 0 0.61821 0 1.38084V11.7364C0 12.5003 0.659546 13.1172 1.4729 13.1172H9.10815C9.0188 12.807 8.97083 12.4809 8.97083 12.1445Z" fill="white"/>
<path d="M12.954 9.28906C11.2719 9.28906 9.9082 10.5675 9.9082 12.1445C9.9082 13.7216 11.2719 15 12.954 15C14.6362 15 15.9999 13.7216 15.9999 12.1445C15.9999 10.5675 14.6362 9.28906 12.954 9.28906ZM13.4227 13.4759C13.4227 13.7186 13.2129 13.9153 12.954 13.9153C12.6952 13.9153 12.4852 13.7186 12.4852 13.4759V12.5839H11.5339C11.275 12.5839 11.0652 12.3872 11.0652 12.1445C11.0652 11.9017 11.275 11.705 11.5339 11.705H12.4854V10.8132C12.4854 10.5705 12.6952 10.3737 12.9541 10.3737C13.2129 10.3736 13.4229 10.5705 13.4229 10.8132V11.705H14.3741C14.6331 11.705 14.8429 11.9017 14.8429 12.1445C14.8429 12.3872 14.6331 12.5839 14.3741 12.5839H13.4229V13.4759H13.4227Z" fill="white"/>
</g>
<defs>
<clipPath id="clip0">
<rect width="16" height="15" fill="white"/>
</clipPath>
</defs>
</svg>
