<svg width="42" height="43" viewBox="0 0 42 43" fill="none" xmlns="http://www.w3.org/2000/svg">
<g clip-path="url(#clip0)">
<path d="M20.9653 42.0877C32.4693 42.0877 41.7953 32.7618 41.7953 21.2577C41.7953 9.75364 32.4693 0.427734 20.9653 0.427734C9.46116 0.427734 0.135254 9.75364 0.135254 21.2577C0.135254 32.7618 9.46116 42.0877 20.9653 42.0877Z" fill="#ffffff"/>
<path d="M10.0209 32.2013C2.52778 24.708 1.93731 12.9263 8.2491 4.75684C7.54993 5.29694 6.87719 5.88742 6.23587 6.52874C-1.89861 14.6632 -1.89861 27.8519 6.23587 35.9863C14.3703 44.1207 27.559 44.1208 35.6934 35.9863C36.3347 35.345 36.9251 34.6722 37.4653 33.973C29.2959 40.2849 17.5142 39.6945 10.0209 32.2013Z" fill="#A6A6A6"/>
<path d="M16.1263 19.8793C15.8635 19.8793 15.6073 19.745 15.4628 19.5031C14.7654 18.3357 13.5371 17.6387 12.1772 17.6387C10.8174 17.6387 9.58908 18.3356 8.89169 19.5031C8.67315 19.8691 8.19911 19.9885 7.83296 19.7699C7.4669 19.5512 7.34753 19.0772 7.56616 18.7111C8.54499 17.0727 10.2687 16.0947 12.1772 16.0947C14.0858 16.0947 15.8095 17.0729 16.7883 18.7111C17.007 19.0772 16.8876 19.5512 16.5215 19.7699C16.3975 19.8441 16.2609 19.8793 16.1263 19.8793Z" fill="#A6A6A6"/>
<path d="M33.7015 19.8793C33.4386 19.8793 33.1825 19.745 33.038 19.5031C32.3406 18.3357 31.1123 17.6387 29.7524 17.6387C28.3925 17.6387 27.1644 18.3357 26.4669 19.5031C26.2483 19.8691 25.7742 19.9885 25.4082 19.7699C25.0421 19.5512 24.9227 19.0772 25.1414 18.7111C26.1202 17.0728 27.8439 16.0947 29.7524 16.0947C31.6609 16.0947 33.3846 17.0727 34.3636 18.7111C34.5822 19.0772 34.4629 19.5512 34.0968 19.7699C33.9727 19.8441 33.8362 19.8793 33.7015 19.8793Z" fill="#A6A6A6"/>
<path d="M20.965 31.23C16.7765 31.23 12.5898 29.6363 9.40121 26.4478C9.09966 26.1463 9.09966 25.6575 9.40121 25.356C9.70283 25.0545 10.1916 25.0545 10.4931 25.356C16.2669 31.1302 25.6624 31.1303 31.4369 25.356C31.7386 25.0545 32.2274 25.0547 32.5288 25.356C32.8304 25.6576 32.8304 26.1464 32.5288 26.448C29.341 29.6356 25.1522 31.23 20.965 31.23Z" fill="#A6A6A6"/>
<path d="M20.9651 34.2259C19.72 34.2259 18.4754 34.0562 17.265 33.7169C16.8545 33.6018 16.615 33.1756 16.73 32.765C16.8451 32.3546 17.2709 32.1149 17.6818 32.2301C19.8297 32.8323 22.1005 32.8323 24.2485 32.2301C24.6594 32.115 25.0852 32.3546 25.2004 32.765C25.3154 33.1757 25.0759 33.6017 24.6654 33.7169C23.455 34.0561 22.2098 34.2259 20.9651 34.2259Z" fill="#E09B2D"/>
</g>
<defs>
<clipPath id="clip0">
<rect width="41.6601" height="41.6601" fill="white" transform="translate(0.135254 0.427734)"/>
</clipPath>
</defs>
</svg>
