<?xml version="1.0" encoding="utf-8"?>
<!-- Generator: Adobe Illustrator 16.0.0, SVG Export Plug-In . SVG Version: 6.00 Build 0)  -->
<!DOCTYPE svg PUBLIC "-//W3C//DTD SVG 1.1//EN" "http://www.w3.org/Graphics/SVG/1.1/DTD/svg11.dtd">
<svg version="1.1" id="Layer_1" xmlns="http://www.w3.org/2000/svg" xmlns:xlink="http://www.w3.org/1999/xlink" x="0px" y="0px"
	 width="960px" height="1400px" viewBox="0 0 960 1400" enable-background="new 0 0 960 1400" xml:space="preserve">
<g>
	<g>
		<polygon fill="#4B4B4B" points="966.534,1250.945 6.534,1250.945 54.133,1166.809 906.936,1166.809 		"/>
		<path fill="#4B4B4B" d="M868.547,1112.675l24.34,34.355H776.225l-300.527-124.541l0,0l-268.706,110.438l0.055,0.056
			l-34.157,14.037H65.284l20.12-35.534l82.495-4.033V925.23c61.185-50.267,225.238-72.811,306.224-71.829v0.242l4.55-0.188h0.529
			l4.683,0.188v-0.242c74.837-0.926,230.186,19.656,297.387,65.284l1.51,190.485L868.547,1112.675z M733.308,1051.953v-103.86
			c0-3.504-1.697-6.654-4.605-8.958c-2.788-2.324-6.732-3.702-11.085-3.702c-8.649,0-15.624,5.686-15.624,12.66v103.86
			c0,3.503,1.763,6.654,4.528,8.957c2.844,2.248,6.732,3.681,11.096,3.681C726.322,1064.591,733.308,1058.938,733.308,1051.953z
			 M652.531,1028.615V916.229c0-3.758-1.763-7.174-4.539-9.619c-2.82-2.523-6.722-4.022-11.073-4.022
			c-8.716,0-15.713,6.148-15.713,13.642v112.387c0,3.824,1.719,7.239,4.628,9.675c2.766,2.522,6.732,4.021,11.085,4.021
			C645.524,1042.334,652.531,1036.186,652.531,1028.615z M571.756,1010.997V898.653c0-3.757-1.708-7.206-4.605-9.707
			c-2.766-2.501-6.732-4.011-11.074-4.011c-8.638,0-15.646,6.138-15.646,13.729v112.344c0,3.757,1.785,7.184,4.551,9.618
			c2.831,2.523,6.731,4.033,11.084,4.033C564.781,1024.649,571.756,1018.512,571.756,1010.997z M490.991,1002.105V894.753
			c0-3.603-1.785-6.919-4.551-9.3c-2.832-2.38-6.732-3.834-11.073-3.834c-8.705,0-15.68,5.884-15.68,13.123v107.353
			c0,3.536,1.708,6.831,4.617,9.222c2.766,2.381,6.732,3.835,11.073,3.835C483.994,1015.162,490.991,1009.278,490.991,1002.105z
			 M410.215,1012.65V900.263c0-3.823-1.708-7.239-4.616-9.663c-2.766-2.523-6.722-4.021-11.074-4.021
			c-8.638,0-15.624,6.126-15.624,13.706v112.377c0,3.769,1.774,7.184,4.551,9.619c2.843,2.523,6.732,4.032,11.073,4.032
			C403.219,1026.312,410.215,1020.165,410.215,1012.65z M329.439,1028.615V916.229c0-3.758-1.785-7.174-4.562-9.619
			c-2.832-2.523-6.722-4.022-11.074-4.022c-8.704,0-15.69,6.148-15.69,13.642v112.387c0,3.824,1.708,7.239,4.617,9.675
			c2.766,2.522,6.71,4.021,11.073,4.021C322.453,1042.334,329.439,1036.186,329.439,1028.615z M248.663,1051.953v-103.86
			c0-3.504-1.729-6.654-4.617-8.958c-2.765-2.324-6.732-3.702-11.073-3.702c-8.639,0-15.624,5.686-15.624,12.66v103.86
			c0,3.503,1.774,6.654,4.55,8.957c2.832,2.248,6.71,3.681,11.074,3.681C241.667,1064.591,248.663,1058.938,248.663,1051.953z"/>
		<path fill="#4B4B4B" d="M807.957,879.107c5.487,16.164,3.559,29.353,1.245,36.658c-3.625-3.482-7.724-6.909-12.264-10.236
			c-72.843-53.517-245.082-73.559-317.748-71.852c-0.21,0-0.331,0-0.529,0c-78.594-1.707-260.397,20.297-326.872,79.245
			c0,0-8.528-16.385-1.785-33.761c12.925-11.261,31.116-21.938,54.266-31.777c81.635-34.752,208.689-51.114,271.736-49.913v0.132
			c0.859-0.065,1.719-0.065,2.843-0.065c0.132,0,0.253,0,0.396,0c0.98,0,1.84,0,2.7,0.065v-0.121
			c52.744-1.002,161.684,10.611,246.58,40.239C763.828,850.052,790.604,863.968,807.957,879.107z"/>
		<path fill="#4B4B4B" d="M753.163,735.89c-55.324-61.846-207.764-88.93-280.705-86.715c-0.066,0-0.209,0-0.253,0
			c-67.004-1.906-222.826,22.104-280.319,86.473c-0.066,0.132-0.209,0.177-0.265,0.309c-3.846-30.631,7.713-45.627,7.713-45.627
			c14.974-14.522,36.272-27.833,63.422-39.766c71.752-31.392,162.94-43.787,207.256-42.729v0.209
			c0.717-0.065,1.378-0.132,2.369-0.132c0.132,0,0.265,0,0.33,0c0.717,0,1.378,0.066,2.05,0.132v-0.209
			c43.457-1.047,134.248,11.073,206.055,42.2c31.646,13.729,55.456,29.354,70.606,46.41
			C757.339,712.763,754.474,729.687,753.163,735.89z"/>
		<path fill="#4B4B4B" d="M739.963,750.886v69.89c-1.653-0.617-3.283-1.179-4.947-1.773c-18.853-6.589-38.896-12.264-59.202-17.211
			c0.132-0.342,0.209-0.672,0.209-1.068v-55.39c0-3.758-5.531-6.711-12.318-6.711c-6.864,0-12.406,2.964-12.406,6.711v50.981
			c-13.267-2.754-26.521-5.211-39.512-7.25c0.275-0.528,0.407-1.068,0.407-1.652v-60.271c0-4.011-5.531-7.327-12.33-7.327
			c-6.853,0-12.396,3.316-12.396,7.327v58.298c-13.585-1.917-26.785-3.438-39.247-4.639c0.132-0.386,0.221-0.771,0.221-1.168
			v-64.138c0-4.363-5.543-7.879-12.418-7.879c-6.776,0-12.33,3.516-12.33,7.879v63.422c-14.875-0.937-28.151-1.322-39.236-1.168
			c0.132-0.353,0.132-0.694,0.132-1.025v-66.672c0-4.484-5.53-8.099-12.329-8.099c-6.854,0-12.406,3.614-12.406,8.099v66.672
			c0,0.32,0.065,0.728,0.209,1.069c-11.734,0.198-24.924,0.926-39.236,2.061v-63.422c0-4.363-5.531-7.867-12.407-7.867
			c-6.854,0-12.385,3.504-12.385,7.867v64.215c0,0.507,0.056,0.992,0.254,1.521c-12.595,1.378-25.772,3.097-39.292,5.135v-60.128
			c0-4.021-5.542-7.315-12.396-7.315c-6.787,0-12.33,3.294-12.33,7.315v60.271c0,1.322,0.606,2.578,1.72,3.613
			c-13.586,2.369-27.227,5.157-40.812,8.176v-53.88c0-3.757-5.531-6.71-12.33-6.71c-6.854,0-12.396,2.964-12.396,6.71v55.39
			c0,1.466,0.86,2.843,2.38,3.9c-21.486,5.531-42.399,12.076-61.725,19.514v-77.9c52.029-54.133,191.29-78.462,259.285-77.327v0.21
			c1.058-0.066,2.115-0.133,3.427-0.133h0.727l3.956,0.199v-0.254C546.579,667.852,692.099,694.097,739.963,750.886z"/>
		<polygon fill="#4B4B4B" points="724.272,1147.03 224.985,1147.03 474.971,1044.163 		"/>
		<path fill="#4B4B4B" d="M519.065,414.384c70.1,25.331,125.368,101.689,152.925,210.683
			c-66.386-25.254-150.61-38.52-198.673-36.922c-0.198,0-0.386,0-0.595,0c-0.133,0-0.21,0-0.331,0
			c-41.616-1.389-127.989,9.376-200.645,37.451c24.395-111.969,82.23-191.29,156.736-213.779
			C458.2,402.771,489.536,403.707,519.065,414.384z"/>
		<path fill="#4B4B4B" d="M514.13,300.112v91.926c-26.037-7.393-53.01-8.198-79.189-2.38v-87.1
			c5.465-4.947,11.282-8.771,17.276-11.283c13.256-5.74,27.767-5.939,43.192-0.584C503.32,293.446,509.788,297.203,514.13,300.112z"
			/>
		<path fill="#4B4B4B" d="M472.656,149.105c4.286,10.423,12.33,41.011,14.765,125.819c-9.949-1.84-19.712-1.73-28.956,0.518
			C457.947,205.817,466.266,163.495,472.656,149.105z"/>
	</g>
</g>
</svg>
