<svg width="473" height="105" viewBox="0 0 473 105" fill="none" xmlns="http://www.w3.org/2000/svg">
<path d="M13.22 34.37L15.18 32.48L30.65 50.89H43.39L22.11 25.62L43.39 1.33H30.86L13.22 21.98V1.33H2.92999V50.89H13.22V34.37Z" fill="white"/>
<path d="M74.2715 14.63H64.4715V42.63C63.3515 43.26 61.8815 43.75 60.4115 43.75C56.8415 43.75 54.8115 42.35 54.8115 39.48V14.63H45.4315V39.62C45.4315 47.46 50.8215 51.59 58.7315 51.59C60.6915 51.59 63.0015 51.03 64.8915 50.4C64.9615 55.16 62.3015 56.91 58.1015 56.91C55.6515 56.91 52.7815 55.86 51.1715 54.25L46.5515 60.34C49.9815 63.77 54.7415 65.17 59.2215 65.17C67.8315 65.17 74.2715 60.34 74.2715 50.61V14.63Z" fill="white"/>
<path d="M95.6636 13.93C89.0836 13.93 81.4536 18.13 81.4536 26.81V50.89H91.1836V26.95C91.1836 23.87 94.2636 22.26 97.5536 22.12H98.0436C98.9536 22.12 99.8636 22.26 100.774 22.47V14.63C98.7436 14.14 96.9936 13.93 95.6636 13.93Z" fill="white"/>
<path d="M117.571 57.05C114.981 57.05 111.901 56.07 110.221 54.46L105.741 60.27C109.031 63.56 113.721 65.17 118.271 65.17C126.461 65.17 133.251 60.55 133.251 50.82V17.01C129.331 15.12 124.291 13.93 119.251 13.93C111.481 13.93 104.411 17.22 104.411 26.11V39.83C104.411 47.67 110.781 51.59 117.711 51.59C119.671 51.59 121.701 51.17 123.591 50.05C123.591 54.88 121.281 57.05 117.571 57.05ZM119.321 21.42C120.721 21.42 122.121 21.7 123.451 22.33V42.84C122.331 43.47 121.071 43.75 119.601 43.75C116.871 43.75 114.141 42.49 113.791 39.69V25.9C113.791 22.89 116.451 21.42 119.321 21.42Z" fill="white"/>
<path d="M169.291 14.63H159.491V42.63C158.371 43.26 156.901 43.75 155.431 43.75C151.861 43.75 149.831 42.35 149.831 39.48V14.63H140.451V39.62C140.451 47.46 145.841 51.59 153.751 51.59C155.711 51.59 158.021 51.03 159.911 50.4C159.981 55.16 157.321 56.91 153.121 56.91C150.671 56.91 147.801 55.86 146.191 54.25L141.571 60.34C145.001 63.77 149.761 65.17 154.241 65.17C162.851 65.17 169.291 60.34 169.291 50.61V14.63Z" fill="white"/>
<path d="M187.813 42.56L202.933 18.06L200.833 14.63H175.843V22.96H189.563L174.513 47.39L176.613 50.89H202.443V42.56H187.813Z" fill="white"/>
<path d="M236.569 32.76L250.639 50.89H263.309L248.539 32.06C255.749 30.66 259.809 26.32 259.809 17.15C259.459 5.88 252.039 1.33 242.099 1.33H222.569V50.89H232.929V32.76H236.569ZM232.929 23.38V11.69H242.729C244.619 11.69 246.229 12.04 247.489 12.81C248.819 13.65 249.519 15.12 249.519 17.22C249.519 21.63 246.649 23.38 242.099 23.38H232.929Z" fill="white"/>
<path d="M279.887 51.59C284.157 51.59 289.827 49.91 292.557 44.73L286.187 40.11C285.067 42 282.757 42.84 280.517 42.84C277.717 42.84 275.057 41.37 275.057 38.57V36.96H294.027V26.32C294.027 17.57 287.097 13.93 280.027 13.93C272.747 13.93 265.257 17.99 265.257 26.74V38.71C265.257 47.32 272.607 51.59 279.887 51.59ZM284.857 29.75H275.057V26.53C275.057 23.94 277.577 22.68 280.097 22.68C282.547 22.68 284.857 23.94 284.857 26.46V29.75Z" fill="white"/>
<path d="M314.143 13.93C309.593 13.93 304.483 14.98 300.003 16.66V64.19H309.803V50.33C311.623 51.17 313.583 51.59 315.683 51.59C322.473 51.59 329.193 47.81 329.193 39.27V26.04C329.193 16.52 321.703 13.93 314.143 13.93ZM313.583 44.1C312.183 44.1 310.853 43.82 309.803 43.26V22.19C310.923 21.63 312.253 21.35 313.723 21.35C316.873 21.35 319.463 22.54 319.463 25.55V39.27C319.463 42.56 316.733 44.1 313.583 44.1Z" fill="white"/>
<path d="M350.807 51.59C355.847 51.59 360.607 50.33 364.527 48.93V14.63H354.867V42.91C353.747 43.33 352.557 43.54 351.367 43.54C348.077 43.54 345.277 41.86 345.277 37.59V14.63H335.547V38.15C335.547 48.44 342.757 51.59 350.807 51.59Z" fill="white"/>
<path d="M387.601 13.93C385.431 13.93 383.471 14.35 381.581 15.19V1.4H371.781V48.86C376.261 50.54 381.371 51.59 385.921 51.59C393.551 51.59 400.201 48.44 400.971 39.06V26.25C400.971 18.69 394.251 13.93 387.601 13.93ZM385.151 44.38C384.941 44.38 384.731 44.38 384.521 44.31C383.401 44.24 382.421 44.03 381.581 43.61V22.61C382.351 22.19 383.331 21.91 384.381 21.77C384.731 21.7 385.081 21.7 385.431 21.7C386.061 21.7 386.761 21.77 387.391 21.91C389.351 22.47 390.961 23.73 391.241 25.76V39.97C391.241 42.14 389.631 43.47 387.671 44.03C386.901 44.24 386.061 44.38 385.151 44.38Z" fill="white"/>
<path d="M420.696 51.59C421.326 51.59 421.956 51.52 422.726 51.45V43.12C418.736 43.12 416.916 40.88 416.916 38.15V1.33H407.186V38.15C407.186 45.64 411.386 51.59 420.696 51.59Z" fill="white"/>
<path d="M431.708 0C428.348 0 425.758 2.66 425.758 6.02C425.758 9.45 428.348 12.11 431.708 12.11C435.068 12.11 437.728 9.45 437.728 6.02C437.728 2.66 435.068 0 431.708 0ZM436.748 14.7H426.808V50.89H436.748V14.7Z" fill="white"/>
<path d="M457.893 51.59C463.213 51.59 469.443 49 472.033 41.72L463.493 38.92C462.583 41.65 460.133 42.84 457.893 42.84C455.443 42.84 453.063 41.44 453.063 38.71V26.74C453.063 24.15 455.443 22.68 457.893 22.68C460.133 22.68 462.513 23.8 463.283 26.32L471.613 23.73C469.793 16.31 463.003 13.93 457.893 13.93C450.683 13.93 443.333 18.2 443.333 26.81V38.78C443.333 47.39 450.683 51.59 457.893 51.59Z" fill="white"/>
<path d="M0 94.0001C0 97.4501 3.03 99.1901 6.03 99.1901C9.03 99.1901 12 97.4501 12 94.0001V88.2401C12 84.7901 9.03 83.0501 6.03 83.0501C3.03 83.0501 0 84.7901 0 88.2401V94.0001ZM6.03 85.3301C7.71 85.3301 9.6 86.2301 9.6 88.1801V94.0301C9.6 95.9501 7.71 96.9101 6.03 96.9101C4.26 96.9101 2.4 95.9501 2.4 94.0301V88.1801C2.4 86.2301 4.26 85.3301 6.03 85.3301Z" fill="white"/>
<path d="M30.4235 83.0501C28.4135 83.0501 26.3735 83.4701 24.3335 84.1601V104.32H26.7335V98.3201C27.9035 98.9201 29.0435 99.1601 30.3335 99.1601C33.3635 99.1601 36.3635 97.3601 36.3635 93.9701V88.2101C36.3635 84.7601 33.3935 83.0501 30.4235 83.0501ZM30.3635 96.8801C29.1335 96.8801 27.9035 96.6401 26.7335 96.1901V85.7201C27.9035 85.3901 29.1935 85.3601 30.4235 85.3601C32.1935 85.3601 33.9335 86.4101 33.9335 88.1801V94.0001C33.9335 95.8301 32.1635 96.8801 30.3635 96.8801Z" fill="white"/>
<path d="M50.6651 92.3201H60.2051V88.2101C60.2051 84.7301 57.2351 83.0501 54.2651 83.0501C51.2651 83.0501 48.2351 84.7301 48.2351 88.2101V94.0301C48.2351 97.5101 51.2651 99.1901 54.2651 99.1901C56.5151 99.1901 58.7951 98.0501 59.9051 95.7701L57.8051 94.8701C57.1751 96.3101 55.6751 96.9701 54.2651 96.9701C52.4351 96.9701 50.6651 96.1001 50.6651 94.2101V92.3201ZM57.9251 90.3101H50.6651V88.1501C50.6651 86.2601 52.2251 85.2401 54.2651 85.2401C56.0351 85.2401 57.9251 86.2901 57.9251 88.0901V90.3101Z" fill="white"/>
<path d="M84.2135 88.1501C84.2135 84.7001 81.3335 83.1401 78.3635 83.0501C76.4135 83.0501 74.3135 83.6501 72.3035 84.3401V98.8901H74.7035V85.9601C75.5735 85.6301 76.9535 85.2701 78.3635 85.2701C80.0135 85.2701 81.8435 86.1401 81.8435 88.0601V98.8901H84.2135V88.1501Z" fill="white"/>
<path d="M111.739 94.0301C111.739 97.5101 114.709 99.1001 117.679 99.1901C119.689 99.1901 121.729 98.7701 123.769 98.0801V77.8901H121.369V84.0401C120.259 83.3201 119.059 83.0801 117.739 83.0801C114.739 83.0801 111.739 84.9101 111.739 88.2701V94.0301ZM117.679 97.0601C115.909 97.0601 114.169 95.8001 114.169 94.0001V88.2701C114.169 86.2301 115.939 85.2101 117.739 85.2101C118.909 85.2101 120.199 85.4801 121.369 86.0801V96.6101C120.199 96.9701 118.879 97.0601 117.679 97.0601Z" fill="white"/>
<path d="M145.181 90.1301C144.011 89.6201 142.751 89.3801 141.461 89.3801C138.461 89.3801 135.611 90.9101 135.611 94.3301C135.611 97.6301 138.041 99.1901 141.161 99.1901H141.491C142.421 99.1901 143.381 99.1001 144.341 98.9501C145.421 98.8001 146.501 98.5301 147.581 98.1401V88.0601C147.581 84.7001 144.701 83.0501 141.701 83.0501C139.751 83.0501 137.621 83.8901 136.181 85.4801L137.681 86.9501C138.611 85.7801 140.111 85.2701 141.521 85.2701C143.351 85.2701 145.181 86.2601 145.181 88.0601V90.1301ZM141.701 91.2701C142.991 91.2701 144.221 91.5401 145.181 91.8701V96.8501C144.551 97.0001 143.891 97.0901 143.201 97.1201C142.751 97.1501 142.331 97.1501 141.881 97.1501H141.221C139.391 97.1201 137.981 96.3401 137.981 94.3301C137.981 92.0801 139.781 91.2701 141.701 91.2701Z" fill="white"/>
<path d="M165.5 99.1901C165.83 99.1901 166.1 99.1601 166.43 99.1301V97.0601C166.13 97.1201 165.86 97.1501 165.59 97.1501C165.29 97.1501 165.02 97.1201 164.75 97.0301C163.28 96.6701 162.44 95.4401 162.44 94.0901V85.5701H165.62V83.3501H162.44V79.4201H160.07V94.0901C160.07 97.3001 162.35 99.1901 165.5 99.1901Z" fill="white"/>
<path d="M186.355 90.1301C185.185 89.6201 183.925 89.3801 182.635 89.3801C179.635 89.3801 176.785 90.9101 176.785 94.3301C176.785 97.6301 179.215 99.1901 182.335 99.1901H182.665C183.595 99.1901 184.555 99.1001 185.515 98.9501C186.595 98.8001 187.675 98.5301 188.755 98.1401V88.0601C188.755 84.7001 185.875 83.0501 182.875 83.0501C180.925 83.0501 178.795 83.8901 177.355 85.4801L178.855 86.9501C179.785 85.7801 181.285 85.2701 182.695 85.2701C184.525 85.2701 186.355 86.2601 186.355 88.0601V90.1301ZM182.875 91.2701C184.165 91.2701 185.395 91.5401 186.355 91.8701V96.8501C185.725 97.0001 185.065 97.0901 184.375 97.1201C183.925 97.1501 183.505 97.1501 183.055 97.1501H182.395C180.565 97.1201 179.155 96.3401 179.155 94.3301C179.155 92.0801 180.955 91.2701 182.875 91.2701Z" fill="white"/>
<path d="M222.722 83.0501C220.712 83.0501 218.672 83.4701 216.632 84.1601V104.32H219.032V98.3201C220.202 98.9201 221.342 99.1601 222.632 99.1601C225.662 99.1601 228.662 97.3601 228.662 93.9701V88.2101C228.662 84.7601 225.692 83.0501 222.722 83.0501ZM222.662 96.8801C221.432 96.8801 220.202 96.6401 219.032 96.1901V85.7201C220.202 85.3901 221.492 85.3601 222.722 85.3601C224.492 85.3601 226.232 86.4101 226.232 88.1801V94.0001C226.232 95.8301 224.462 96.8801 222.662 96.8801Z" fill="white"/>
<path d="M240.504 94.0001C240.504 97.4501 243.534 99.1901 246.534 99.1901C249.534 99.1901 252.504 97.4501 252.504 94.0001V88.2401C252.504 84.7901 249.534 83.0501 246.534 83.0501C243.534 83.0501 240.504 84.7901 240.504 88.2401V94.0001ZM246.534 85.3301C248.214 85.3301 250.104 86.2301 250.104 88.1801V94.0301C250.104 95.9501 248.214 96.9101 246.534 96.9101C244.764 96.9101 242.904 95.9501 242.904 94.0301V88.1801C242.904 86.2301 244.764 85.3301 246.534 85.3301Z" fill="white"/>
<path d="M270.657 85.3301C271.107 85.3301 271.467 85.3301 271.917 85.4201V83.1701C271.467 83.0801 271.017 83.0501 270.567 83.0501C267.837 83.0501 264.747 84.7301 264.747 88.2401V98.8901H267.147V88.2401C267.147 86.3201 268.767 85.3301 270.657 85.3301Z" fill="white"/>
<path d="M288.523 99.1901C288.853 99.1901 289.123 99.1601 289.453 99.1301V97.0601C289.153 97.1201 288.883 97.1501 288.613 97.1501C288.313 97.1501 288.043 97.1201 287.773 97.0301C286.303 96.6701 285.463 95.4401 285.463 94.0901V85.5701H288.643V83.3501H285.463V79.4201H283.093V94.0901C283.093 97.3001 285.373 99.1901 288.523 99.1901Z" fill="white"/>
<path d="M309.379 90.1301C308.208 89.6201 306.949 89.3801 305.659 89.3801C302.659 89.3801 299.809 90.9101 299.809 94.3301C299.809 97.6301 302.239 99.1901 305.359 99.1901H305.689C306.618 99.1901 307.579 99.1001 308.539 98.9501C309.618 98.8001 310.699 98.5301 311.779 98.1401V88.0601C311.779 84.7001 308.899 83.0501 305.899 83.0501C303.949 83.0501 301.819 83.8901 300.379 85.4801L301.879 86.9501C302.809 85.7801 304.309 85.2701 305.719 85.2701C307.548 85.2701 309.379 86.2601 309.379 88.0601V90.1301ZM305.899 91.2701C307.189 91.2701 308.419 91.5401 309.379 91.8701V96.8501C308.749 97.0001 308.089 97.0901 307.399 97.1201C306.949 97.1501 306.529 97.1501 306.079 97.1501H305.419C303.589 97.1201 302.179 96.3401 302.179 94.3301C302.179 92.0801 303.979 91.2701 305.899 91.2701Z" fill="white"/>
<path d="M329.547 96.9401C327.537 96.9401 326.667 95.8301 326.667 94.1201V77.9201H324.267V94.1201C324.267 97.3301 326.157 99.1901 329.547 99.1901V96.9401Z" fill="white"/>
</svg>
