<svg width="624" height="103" viewBox="0 0 624 103" fill="none" xmlns="http://www.w3.org/2000/svg">
<path d="M10.8277 36.3662L12.8901 34.3775L29.1685 53.7495H42.5743L20.1823 27.159L42.5743 1.5997H29.3895L10.8277 23.3288V1.5997H0V53.7495H10.8277V36.3662Z" fill="white"/>
<path d="M76.1485 15.5947H65.8364V45.0579C64.6579 45.7208 63.111 46.2364 61.5642 46.2364C57.8077 46.2364 55.6716 44.7632 55.6716 41.7433V15.5947H45.8014V41.8906C45.8014 50.1403 51.4731 54.4861 59.7964 54.4861C61.8589 54.4861 64.2896 53.8968 66.2783 53.2339C66.352 58.2427 63.553 60.0841 59.1335 60.0841C56.5555 60.0841 53.5355 58.9792 51.8414 57.2851L46.9799 63.6933C50.5892 67.3026 55.5979 68.7757 60.312 68.7757C69.372 68.7757 76.1485 63.6933 76.1485 53.4549V15.5947Z" fill="white"/>
<path d="M98.6585 14.8581C91.7346 14.8581 83.7059 19.2776 83.7059 28.4112V53.7495H93.9444V28.5585C93.9444 25.3176 97.1853 23.6234 100.647 23.4761H101.163C102.12 23.4761 103.078 23.6234 104.035 23.8444V15.5947C101.899 15.0791 100.058 14.8581 98.6585 14.8581Z" fill="white"/>
<path d="M121.711 60.2314C118.985 60.2314 115.744 59.2002 113.976 57.5061L109.262 63.6197C112.724 67.0816 117.659 68.7757 122.447 68.7757C131.065 68.7757 138.21 63.9143 138.21 53.6759V18.0991C134.085 16.1103 128.782 14.8581 123.478 14.8581C115.302 14.8581 107.863 18.32 107.863 27.6746V42.1116C107.863 50.3612 114.566 54.4861 121.858 54.4861C123.92 54.4861 126.056 54.0441 128.045 52.8656C128.045 57.948 125.614 60.2314 121.711 60.2314ZM123.552 22.7395C125.025 22.7395 126.498 23.0342 127.898 23.6971V45.2789C126.719 45.9418 125.393 46.2364 123.847 46.2364C120.974 46.2364 118.101 44.9106 117.733 41.9642V27.4536C117.733 24.2863 120.532 22.7395 123.552 22.7395Z" fill="white"/>
<path d="M176.133 15.5947H165.821V45.0579C164.643 45.7208 163.096 46.2364 161.549 46.2364C157.793 46.2364 155.656 44.7632 155.656 41.7433V15.5947H145.786V41.8906C145.786 50.1403 151.458 54.4861 159.781 54.4861C161.844 54.4861 164.274 53.8968 166.263 53.2339C166.337 58.2427 163.538 60.0841 159.118 60.0841C156.54 60.0841 153.52 58.9792 151.826 57.2851L146.965 63.6933C150.574 67.3026 155.583 68.7757 160.297 68.7757C169.357 68.7757 176.133 63.6933 176.133 53.4549V15.5947Z" fill="white"/>
<path d="M195.623 44.9842L211.533 19.2039L209.324 15.5947H183.028V24.36H197.465L181.628 50.0666L183.838 53.7495H211.018V44.9842H195.623Z" fill="white"/>
<path d="M229.368 45.6471C226.716 45.6471 223.033 44.1003 220.161 41.375L215.299 48.0042C218.908 52.792 223.696 54.4861 229 54.4861C236.144 54.4861 242.774 50.2876 242.774 41.9642C242.774 34.7458 236.66 31.9468 231.799 30.7682C230.105 30.5473 226.495 28.7795 226.716 26.5697C226.937 24.2863 228.484 23.4761 230.178 23.4761C232.462 23.4761 235.113 24.581 236.365 25.8332L241.448 18.8357C237.544 15.6684 232.756 14.8581 229.294 14.8581C220.824 14.8581 216.257 20.6771 216.257 26.6434C216.257 32.0204 220.308 37.7657 228.779 39.0916C230.473 39.3126 231.651 39.9018 232.314 40.8594C232.609 41.375 232.756 41.9642 232.756 42.4799C232.756 42.9955 232.683 43.4374 232.462 43.953C231.946 45.0579 230.915 45.6471 229.368 45.6471Z" fill="white"/>
<path d="M260.218 54.3388C262.207 54.3388 264.269 53.9705 266.479 53.2339V44.8369C265.227 45.0579 264.195 45.2052 263.312 45.2052C262.133 45.2052 261.175 44.9842 260.439 44.6159C259.187 43.953 258.597 42.4799 258.597 40.2701V24.9493H265.374V15.5947H258.597L257.861 7.12404H248.433V40.3438C248.433 49.2564 252.778 53.8968 259.334 54.3388H260.218Z" fill="white"/>
<path d="M270.187 42.4062C270.187 49.772 275.195 54.4861 286.023 54.4861C290.737 54.4861 295.893 53.3812 300.386 51.6871V28.4112C300.386 19.2039 292.947 14.8581 285.36 14.8581C280.057 14.9318 275.49 16.7732 271.586 21.2664L276.595 26.6434C278.436 24.6546 281.751 23.1078 284.623 23.1078C287.791 23.1078 290.516 24.36 290.516 28.4112V31.1365C288.233 30.3263 286.023 29.958 283.74 29.958C276.816 29.958 270.187 33.5672 270.187 42.4062ZM285.581 37.4711C287.275 37.4711 289.043 37.8394 290.221 38.355V46.0891C288.896 46.4574 287.422 46.6047 285.876 46.6047C281.751 46.6047 279.909 44.8369 279.909 42.1116C279.909 39.3862 281.677 37.4711 285.581 37.4711Z" fill="white"/>
<path d="M321.554 14.8581C316.84 14.8581 311.978 16.1103 307.78 18.1727V53.7495H318.018V25.0966C319.27 24.4337 320.67 24.0654 322.217 24.0654C325.163 24.0654 328.036 25.6122 328.036 29.1478V53.7495H338.2V28.7795C338.2 18.762 330.098 14.8581 321.554 14.8581Z" fill="white"/>
<path d="M375.253 34.6721L390.058 53.7495H403.39L387.848 33.9355C395.435 32.4624 399.707 27.8956 399.707 18.2464C399.339 6.38746 391.531 1.5997 381.072 1.5997H360.521V53.7495H371.422V34.6721H375.253ZM371.422 24.8019V12.5011H381.735C383.723 12.5011 385.417 12.8694 386.743 13.6796C388.143 14.5635 388.879 16.1103 388.879 18.32C388.879 22.9605 385.859 24.8019 381.072 24.8019H371.422Z" fill="white"/>
<path d="M420.835 54.4861C425.328 54.4861 431.294 52.7183 434.167 47.2676L427.464 42.4062C426.285 44.395 423.855 45.2789 421.498 45.2789C418.551 45.2789 415.752 43.732 415.752 40.7857V39.0916H435.714V27.8956C435.714 18.6883 428.422 14.8581 420.982 14.8581C413.322 14.8581 405.44 19.1303 405.44 28.3375V40.933C405.44 49.993 413.174 54.4861 420.835 54.4861ZM426.065 31.5048H415.752V28.1166C415.752 25.3912 418.404 24.0654 421.056 24.0654C423.634 24.0654 426.065 25.3912 426.065 28.0429V31.5048Z" fill="white"/>
<path d="M456.881 14.8581C452.093 14.8581 446.716 15.963 442.002 17.7308V67.7445H452.314V53.1603C454.229 54.0441 456.292 54.4861 458.502 54.4861C465.646 54.4861 472.718 50.5086 472.718 41.5223V27.6009C472.718 17.5835 464.836 14.8581 456.881 14.8581ZM456.292 46.6047C454.819 46.6047 453.419 46.3101 452.314 45.7208V23.5498C453.493 22.9605 454.892 22.6659 456.439 22.6659C459.754 22.6659 462.479 23.9181 462.479 27.0853V41.5223C462.479 44.9842 459.607 46.6047 456.292 46.6047Z" fill="white"/>
<path d="M495.461 54.4861C500.764 54.4861 505.773 53.1603 509.898 51.6871V15.5947H499.733V45.3525C498.554 45.7945 497.302 46.0154 496.05 46.0154C492.588 46.0154 489.642 44.2476 489.642 39.7545V15.5947H479.403V40.3438C479.403 51.1715 486.99 54.4861 495.461 54.4861Z" fill="white"/>
<path d="M534.177 14.8581C531.894 14.8581 529.831 15.3001 527.843 16.184V1.67336H517.53V51.6134C522.245 53.3812 527.622 54.4861 532.409 54.4861C540.438 54.4861 547.436 51.1715 548.246 41.3013V27.8219C548.246 19.8669 541.175 14.8581 534.177 14.8581ZM531.599 46.8993C531.378 46.8993 531.157 46.8993 530.936 46.8257C529.758 46.752 528.726 46.531 527.843 46.0891V23.9917C528.653 23.5498 529.684 23.2551 530.789 23.1078C531.157 23.0342 531.525 23.0342 531.894 23.0342C532.557 23.0342 533.293 23.1078 533.956 23.2551C536.019 23.8444 537.713 25.1702 538.007 27.3063V42.2589C538.007 44.5423 536.313 45.9418 534.251 46.531C533.44 46.752 532.557 46.8993 531.599 46.8993Z" fill="white"/>
<path d="M569.002 54.4861C569.665 54.4861 570.328 54.4124 571.138 54.3388V45.5735C566.939 45.5735 565.024 43.2164 565.024 40.3438V1.5997H554.786V40.3438C554.786 48.2252 559.205 54.4861 569.002 54.4861Z" fill="white"/>
<path d="M580.59 0.200195C577.054 0.200195 574.329 2.9992 574.329 6.53478C574.329 10.144 577.054 12.943 580.59 12.943C584.125 12.943 586.924 10.144 586.924 6.53478C586.924 2.9992 584.125 0.200195 580.59 0.200195ZM585.893 15.6684H575.434V53.7495H585.893V15.6684Z" fill="white"/>
<path d="M608.143 54.4861C613.741 54.4861 620.296 51.7608 623.022 44.1003L614.036 41.154C613.078 44.0267 610.5 45.2789 608.143 45.2789C605.565 45.2789 603.06 43.8057 603.06 40.933V28.3375C603.06 25.6122 605.565 24.0654 608.143 24.0654C610.5 24.0654 613.004 25.2439 613.815 27.8956L622.58 25.1702C620.665 17.3625 613.52 14.8581 608.143 14.8581C600.556 14.8581 592.822 19.3513 592.822 28.4112V41.0067C592.822 50.0666 600.556 54.4861 608.143 54.4861Z" fill="white"/>
<path d="M0.500758 92.3852C0.500758 95.7735 3.47654 97.4824 6.42286 97.4824C9.36917 97.4824 12.286 95.7735 12.286 92.3852V86.7283C12.286 83.34 9.36917 81.6312 6.42286 81.6312C3.47654 81.6312 0.500758 83.34 0.500758 86.7283V92.3852ZM6.42286 83.8704C8.07279 83.8704 9.92897 84.7543 9.92897 86.6694V92.4147C9.92897 94.3004 8.07279 95.2432 6.42286 95.2432C4.68453 95.2432 2.85781 94.3004 2.85781 92.4147V86.6694C2.85781 84.7543 4.68453 83.8704 6.42286 83.8704Z" fill="white"/>
<path d="M45.1115 81.6312C43.1374 81.6312 41.1339 82.0437 39.1304 82.7213V102.521H41.4875V96.6279C42.6365 97.2172 43.7561 97.4529 45.0231 97.4529C47.9988 97.4529 50.9452 95.6851 50.9452 92.3558V86.6989C50.9452 83.3106 48.0283 81.6312 45.1115 81.6312ZM45.0525 95.2137C43.8445 95.2137 42.6365 94.978 41.4875 94.5361V84.2534C42.6365 83.9293 43.9035 83.8999 45.1115 83.8999C46.8498 83.8999 48.5586 84.9311 48.5586 86.6694V92.3852C48.5586 94.1825 46.8203 95.2137 45.0525 95.2137Z" fill="white"/>
<path d="M79.7224 90.7353H89.0917V86.6989C89.0917 83.2811 86.1748 81.6312 83.258 81.6312C80.3117 81.6312 77.3359 83.2811 77.3359 86.6989V92.4147C77.3359 95.8324 80.3117 97.4824 83.258 97.4824C85.4677 97.4824 87.7069 96.3628 88.7971 94.1236L86.7346 93.2397C86.1159 94.6539 84.6427 95.3021 83.258 95.3021C81.4607 95.3021 79.7224 94.4477 79.7224 92.5915V90.7353ZM86.8525 88.7613H79.7224V86.6399C79.7224 84.7838 81.2545 83.782 83.258 83.782C84.9963 83.782 86.8525 84.8132 86.8525 86.581V88.7613Z" fill="white"/>
<path d="M127.402 86.6399C127.402 83.2517 124.574 81.7196 121.657 81.6312C119.742 81.6312 117.679 82.2205 115.705 82.8981V97.1877H118.062V84.4891C118.917 84.165 120.272 83.8115 121.657 83.8115C123.277 83.8115 125.075 84.6659 125.075 86.5515V97.1877H127.402V86.6399Z" fill="white"/>
<path d="M183.898 92.4147C183.898 95.8324 186.815 97.394 189.732 97.4824C191.706 97.4824 193.709 97.0699 195.713 96.3922V76.5635H193.356V82.6035C192.266 81.8964 191.087 81.6607 189.791 81.6607C186.845 81.6607 183.898 83.4579 183.898 86.7578V92.4147ZM189.732 95.3905C187.994 95.3905 186.285 94.153 186.285 92.3852V86.7578C186.285 84.7543 188.023 83.7525 189.791 83.7525C190.94 83.7525 192.207 84.0177 193.356 84.607V94.9485C192.207 95.3021 190.91 95.3905 189.732 95.3905Z" fill="white"/>
<path d="M231.474 88.5845C230.325 88.0836 229.087 87.8479 227.82 87.8479C224.874 87.8479 222.075 89.3505 222.075 92.7093C222.075 95.9503 224.461 97.4824 227.526 97.4824H227.85C228.763 97.4824 229.706 97.394 230.649 97.2467C231.709 97.0994 232.77 96.8342 233.831 96.4512V86.5515C233.831 83.2517 231.002 81.6312 228.056 81.6312C226.141 81.6312 224.049 82.4562 222.635 84.0177L224.108 85.4614C225.021 84.3123 226.494 83.8115 227.879 83.8115C229.676 83.8115 231.474 84.7837 231.474 86.5515V88.5845ZM228.056 89.7041C229.323 89.7041 230.531 89.9693 231.474 90.2934V95.1842C230.855 95.3316 230.207 95.42 229.529 95.4494C229.087 95.4789 228.675 95.4789 228.233 95.4789H227.585C225.787 95.4494 224.402 94.6834 224.402 92.7093C224.402 90.4996 226.17 89.7041 228.056 89.7041Z" fill="white"/>
<path d="M266.16 97.4824C266.484 97.4824 266.749 97.4529 267.073 97.4235V95.3905C266.779 95.4494 266.514 95.4789 266.248 95.4789C265.954 95.4789 265.689 95.4494 265.423 95.361C263.98 95.0075 263.155 93.7995 263.155 92.4736V84.1061H266.278V81.9258H263.155V78.0661H260.827V92.4736C260.827 95.6262 263.066 97.4824 266.16 97.4824Z" fill="white"/>
<path d="M301.374 88.5845C300.225 88.0836 298.987 87.8479 297.72 87.8479C294.774 87.8479 291.975 89.3505 291.975 92.7093C291.975 95.9503 294.362 97.4824 297.426 97.4824H297.75C298.663 97.4824 299.606 97.394 300.549 97.2467C301.61 97.0994 302.67 96.8342 303.731 96.4512V86.5515C303.731 83.2517 300.902 81.6312 297.956 81.6312C296.041 81.6312 293.949 82.4562 292.535 84.0177L294.008 85.4614C294.921 84.3123 296.395 83.8115 297.779 83.8115C299.577 83.8115 301.374 84.7837 301.374 86.5515V88.5845ZM297.956 89.7041C299.223 89.7041 300.431 89.9693 301.374 90.2934V95.1842C300.755 95.3316 300.107 95.42 299.429 95.4494C298.987 95.4789 298.575 95.4789 298.133 95.4789H297.485C295.687 95.4494 294.303 94.6834 294.303 92.7093C294.303 90.4996 296.07 89.7041 297.956 89.7041Z" fill="white"/>
<path d="M366.554 81.6312C364.579 81.6312 362.576 82.0437 360.573 82.7213V102.521H362.93V96.6279C364.079 97.2172 365.198 97.4529 366.465 97.4529C369.441 97.4529 372.387 95.6851 372.387 92.3558V86.6989C372.387 83.3106 369.47 81.6312 366.554 81.6312ZM366.495 95.2137C365.287 95.2137 364.079 94.978 362.93 94.5361V84.2534C364.079 83.9293 365.346 83.8999 366.554 83.8999C368.292 83.8999 370.001 84.9311 370.001 86.6694V92.3852C370.001 94.1825 368.262 95.2137 366.495 95.2137Z" fill="white"/>
<path d="M398.749 92.3852C398.749 95.7735 401.724 97.4824 404.671 97.4824C407.617 97.4824 410.534 95.7735 410.534 92.3852V86.7283C410.534 83.34 407.617 81.6312 404.671 81.6312C401.724 81.6312 398.749 83.34 398.749 86.7283V92.3852ZM404.671 83.8704C406.321 83.8704 408.177 84.7543 408.177 86.6694V92.4147C408.177 94.3004 406.321 95.2432 404.671 95.2432C402.932 95.2432 401.106 94.3004 401.106 92.4147V86.6694C401.106 84.7543 402.932 83.8704 404.671 83.8704Z" fill="white"/>
<path d="M443.094 83.8704C443.536 83.8704 443.89 83.8704 444.332 83.9588V81.749C443.89 81.6607 443.448 81.6312 443.006 81.6312C440.324 81.6312 437.29 83.2811 437.29 86.7283V97.1877H439.647V86.7283C439.647 84.8427 441.238 83.8704 443.094 83.8704Z" fill="white"/>
<path d="M475.372 97.4824C475.696 97.4824 475.961 97.4529 476.285 97.4235V95.3905C475.99 95.4494 475.725 95.4789 475.46 95.4789C475.165 95.4789 474.9 95.4494 474.635 95.361C473.191 95.0075 472.366 93.7995 472.366 92.4736V84.1061H475.49V81.9258H472.366V78.0661H470.039V92.4736C470.039 95.6262 472.278 97.4824 475.372 97.4824Z" fill="white"/>
<path d="M510.585 88.5845C509.436 88.0836 508.199 87.8479 506.932 87.8479C503.986 87.8479 501.187 89.3505 501.187 92.7093C501.187 95.9503 503.573 97.4824 506.637 97.4824H506.961C507.875 97.4824 508.818 97.394 509.76 97.2467C510.821 97.0994 511.882 96.8342 512.943 96.4512V86.5515C512.943 83.2517 510.114 81.6312 507.168 81.6312C505.253 81.6312 503.161 82.4562 501.746 84.0177L503.22 85.4614C504.133 84.3123 505.606 83.8115 506.991 83.8115C508.788 83.8115 510.585 84.7837 510.585 86.5515V88.5845ZM507.168 89.7041C508.435 89.7041 509.643 89.9693 510.585 90.2934V95.1842C509.967 95.3316 509.319 95.42 508.641 95.4494C508.199 95.4789 507.786 95.4789 507.344 95.4789H506.696C504.899 95.4494 503.514 94.6834 503.514 92.7093C503.514 90.4996 505.282 89.7041 507.168 89.7041Z" fill="white"/>
<path d="M545.125 95.2726C543.15 95.2726 542.296 94.1825 542.296 92.5031V76.593H539.939V92.5031C539.939 95.6557 541.795 97.4824 545.125 97.4824V95.2726Z" fill="white"/>
</svg>
