<svg width="18" height="18" viewBox="0 0 18 18" fill="none" xmlns="http://www.w3.org/2000/svg">
<path d="M15.7308 14.9654C17.141 13.3762 18 11.2869 18 9C18 6.62059 17.0702 4.45562 15.557 2.84462V2.84431C15.5557 2.84245 15.5539 2.84183 15.5529 2.84028C13.9767 1.16472 11.7683 0.0921724 9.3119 0.00806897L9.31159 0.00775862L9.13624 0.00310345C9.09093 0.00155172 9.04562 0 9 0C8.95438 0 8.90907 0.00155172 8.86376 0.00310345L8.68903 0.00775862L8.68872 0.00806897C6.23234 0.0921724 4.02393 1.16472 2.44769 2.84028C2.44645 2.84183 2.44459 2.84245 2.44366 2.84431C2.44366 2.84431 2.44366 2.84462 2.44334 2.84493C0.929793 4.45562 0 6.62059 0 9C0 11.2869 0.859034 13.3762 2.26924 14.9654C2.2711 14.9682 2.2711 14.9713 2.27328 14.9741C2.27886 14.9819 2.28693 14.9856 2.29283 14.9928C3.87745 16.7642 6.15103 17.9053 8.68841 17.9922L8.68872 17.9926L8.86345 17.9972C8.90907 17.9984 8.95438 18 9 18C9.04562 18 9.09093 17.9984 9.13624 17.9969L9.31097 17.9922L9.31128 17.9919C11.8514 17.9047 14.1275 16.7614 15.7121 14.9862C15.7162 14.981 15.7227 14.9794 15.7264 14.9738C15.7289 14.9713 15.7289 14.9682 15.7308 14.9654ZM0.628448 9.31034H4.35352C4.38859 10.6259 4.64555 11.9042 5.103 13.1018C4.22038 13.4212 3.37655 13.8494 2.58579 14.3839C1.42293 13.0007 0.699207 11.2376 0.628448 9.31034ZM2.75524 3.42093C3.52738 3.92307 4.34948 4.32528 5.20697 4.62569C4.68186 5.90028 4.39138 7.27448 4.35352 8.68966H0.628448C0.702621 6.67024 1.49338 4.83145 2.75524 3.42093ZM17.3716 8.68966H13.6465C13.6086 7.27448 13.3181 5.90028 12.793 4.62569C13.6505 4.32528 14.4726 3.92307 15.2448 3.42093C16.5066 4.83145 17.2974 6.67024 17.3716 8.68966ZM8.68966 4.64369C7.79245 4.61824 6.91169 4.48448 6.06072 4.24552C6.68979 2.9551 7.578 1.79038 8.68966 0.820552V4.64369ZM8.68966 5.26438V8.68966H4.97421C5.01238 7.34028 5.29541 6.03155 5.80159 4.8181C6.73448 5.08841 7.70307 5.238 8.68966 5.26438ZM9.31034 5.26438C10.2969 5.238 11.2655 5.08872 12.1987 4.8181C12.7049 6.03155 12.9879 7.34028 13.0261 8.68966H9.31034V5.26438ZM9.31034 4.64369V0.820552C10.422 1.79038 11.3102 2.9551 11.9393 4.24552C11.0883 4.48448 10.2076 4.61824 9.31034 4.64369ZM12.5407 4.05683C11.9446 2.80769 11.1172 1.66966 10.0927 0.694241C11.9101 0.931965 13.5453 1.75376 14.8047 2.96534C14.0897 3.41907 13.3312 3.78403 12.5407 4.05683ZM5.45928 4.05683C4.66883 3.78403 3.91034 3.41907 3.19562 2.96534C4.45469 1.75376 6.09021 0.931965 7.90759 0.694241C6.88283 1.66966 6.05545 2.80769 5.45928 4.05683ZM4.97421 9.31034H8.68966V12.4256C7.66334 12.4529 6.65783 12.613 5.69141 12.9038C5.25476 11.7695 5.00928 10.5576 4.97421 9.31034ZM8.68966 13.0463V17.1794C7.49979 16.1413 6.5669 14.8801 5.93255 13.4811C6.82231 13.2188 7.74652 13.073 8.68966 13.0463ZM9.31034 17.1794V13.0463C10.2535 13.0727 11.1777 13.2188 12.0674 13.4808C11.4331 14.8801 10.5002 16.1413 9.31034 17.1794ZM9.31034 12.4256V9.31034H13.0258C12.9907 10.5576 12.7452 11.7695 12.3083 12.9041C11.3422 12.613 10.3367 12.4529 9.31034 12.4256ZM13.6465 9.31034H17.3716C17.3008 11.2376 16.5774 13.0007 15.4142 14.3839C14.6234 13.8494 13.7796 13.4212 12.897 13.1018C13.3548 11.9042 13.6114 10.6259 13.6465 9.31034ZM3.00755 14.8488C3.74183 14.3609 4.52359 13.9686 5.34041 13.6753C5.94403 15.0284 6.81052 16.2614 7.90728 17.3058C5.99834 17.0559 4.2899 16.1621 3.00755 14.8488ZM10.0927 17.3058C11.1895 16.2618 12.056 15.0288 12.6596 13.6753C13.4764 13.9686 14.2579 14.3609 14.9924 14.8488C13.7101 16.1621 12.0017 17.0559 10.0927 17.3058Z" fill="white"/>
</svg>
