<svg width="18" height="19" viewBox="0 0 18 19" fill="none" xmlns="http://www.w3.org/2000/svg">
<path d="M13.5068 2.89426C13.1768 2.7001 12.7517 2.81045 12.5576 3.14049C12.3635 3.47054 12.4737 3.89553 12.8039 4.08964C14.9705 5.36383 16.3165 7.71489 16.3165 10.2253C16.3165 14.1477 13.1255 17.3386 9.20312 17.3386C5.2808 17.3386 2.0898 14.1476 2.0898 10.2253C2.0898 7.71489 3.43569 5.36383 5.60237 4.08964C5.93247 3.89558 6.04271 3.47059 5.84861 3.14049C5.65455 2.8104 5.22961 2.70026 4.89946 2.89426C2.31106 4.41656 0.703125 7.22565 0.703125 10.2253C0.703125 14.9123 4.51619 18.7253 9.20318 18.7253C13.8902 18.7253 17.7032 14.9123 17.7031 10.2253C17.7031 7.2257 16.0952 4.41656 13.5068 2.89426Z" fill="white"/>
<path d="M9.20315 0.800049C8.8202 0.800049 8.50977 1.11053 8.50977 1.49344V10.2253C8.50977 10.6083 8.8202 10.9187 9.20315 10.9187C9.58611 10.9187 9.89654 10.6083 9.89654 10.2253V1.49344C9.89654 1.11059 9.58611 0.800049 9.20315 0.800049Z" fill="white"/>
</svg>
