<svg width="25" height="25" viewBox="0 0 25 25" fill="none" xmlns="http://www.w3.org/2000/svg">
<g clip-path="url(#clip0)">
<path d="M24.6259 1.43901H10.5448C10.3381 1.43901 10.1707 1.60649 10.1707 1.81313V11.2457C10.1707 11.2852 10.1769 11.3245 10.1892 11.3621L11.3939 15.0442C11.4394 15.1833 11.5618 15.2831 11.7071 15.2997C11.7213 15.3013 11.7355 15.302 11.7496 15.302C11.8795 15.302 12.0015 15.2343 12.0698 15.1213L14.1834 11.6199H24.626C24.8327 11.6199 25.0001 11.4524 25.0001 11.2458V1.81313C25 1.60654 24.8325 1.43901 24.6259 1.43901ZM24.2518 10.8716H13.9722C13.8412 10.8716 13.7196 10.9402 13.6519 11.0524L11.8512 14.0355L10.9189 11.1861V2.1873H24.2518V10.8716H24.2518Z" fill="white"/>
<path d="M22.5767 3.85996H12.8587C12.6521 3.85996 12.4846 4.02744 12.4846 4.23408C12.4846 4.44072 12.6521 4.6082 12.8587 4.6082H22.5767C22.7834 4.6082 22.9509 4.44072 22.9509 4.23408C22.9509 4.02744 22.7833 3.85996 22.5767 3.85996Z" fill="white"/>
<path d="M22.5767 6.07748H12.8587C12.6521 6.07748 12.4846 6.24496 12.4846 6.4516C12.4846 6.65824 12.6521 6.82572 12.8587 6.82572H22.5767C22.7834 6.82572 22.9509 6.65824 22.9509 6.4516C22.9509 6.24496 22.7833 6.07748 22.5767 6.07748Z" fill="white"/>
<path d="M22.5767 8.29497H12.8587C12.6521 8.29497 12.4846 8.46245 12.4846 8.66909C12.4846 8.87573 12.6521 9.04321 12.8587 9.04321H22.5767C22.7834 9.04321 22.9509 8.87573 22.9509 8.66909C22.9509 8.46245 22.7833 8.29497 22.5767 8.29497Z" fill="white"/>
<path d="M8.62993 17.7598H7.28262V16.8349L8.09458 15.9406C8.49228 15.5026 8.71128 14.9356 8.71128 14.344V12.2767C8.71128 10.8747 7.57061 9.73399 6.16855 9.73399H4.96274C3.56074 9.73399 2.42007 10.8747 2.42007 12.2767V14.344C2.42007 14.9356 2.63911 15.5026 3.03672 15.9406L3.84873 16.8349V17.7598H2.50151C1.12217 17.7598 0 18.8819 0 20.2613V23.1869C0 23.3936 0.167529 23.561 0.374121 23.561H10.7573C10.964 23.561 11.1314 23.3935 11.1314 23.1869V20.2613C11.1314 18.8819 10.0093 17.7598 8.62993 17.7598ZM10.3832 22.8127H0.748291V20.2612C0.748291 19.2945 1.53477 18.508 2.50151 18.508H4.223C4.42964 18.508 4.59712 18.3405 4.59712 18.1339V16.6698C4.59712 16.5363 4.52725 16.4192 4.42207 16.353L3.59077 15.4375C3.31841 15.1376 3.16841 14.7491 3.16841 14.344V12.2767C3.16841 11.2873 3.97339 10.4823 4.96279 10.4823H6.1686C7.15806 10.4823 7.96304 11.2873 7.96304 12.2767V14.344C7.96304 14.7492 7.81304 15.1376 7.54063 15.4375L6.70933 16.353C6.60415 16.4192 6.53428 16.5363 6.53428 16.6698V18.1339C6.53428 18.3406 6.70181 18.508 6.9084 18.508H8.62988C9.59658 18.508 10.3831 19.2945 10.3831 20.2612V22.8127H10.3832Z" fill="white"/>
</g>
<defs>
<clipPath id="clip0">
<rect width="25" height="25" fill="white"/>
</clipPath>
</defs>
</svg>
