<svg width="25" height="21" viewBox="0 0 25 21" fill="none" xmlns="http://www.w3.org/2000/svg">
<path d="M24.5139 12.704C24.205 12.5335 23.813 12.5709 23.4384 12.8068L16.5183 17.1644C16.3258 17.2857 16.268 17.5401 16.3892 17.7326C16.5105 17.9252 16.7649 17.983 16.9575 17.8618L23.8776 13.5042C24.0237 13.4121 24.1037 13.4189 24.1156 13.4255C24.1275 13.4321 24.1758 13.4961 24.1758 13.6688C24.1758 14.133 23.8312 14.7572 23.4384 15.0045L16.7298 19.2289C16.3731 19.4536 16.047 19.5153 15.835 19.3984C15.6232 19.2814 15.5017 18.9726 15.5017 18.551C15.5017 17.483 16.2652 16.0999 17.169 15.5309L24.8075 10.7209C24.9274 10.6455 25 10.5138 25 10.3722C25 10.2306 24.9273 10.0989 24.8075 10.0234L10.13 0.781015C9.99582 0.69651 9.825 0.69651 9.69083 0.781015L1.95932 5.64953C0.86065 6.34139 0 7.90033 0 9.19867V9.41845C0 10.7168 0.86065 12.2758 1.95932 12.9676L13.4588 20.2088C13.6513 20.33 13.9058 20.2722 14.027 20.0797C14.1483 19.8871 14.0905 19.6326 13.8979 19.5114L2.39849 12.2702C1.54509 11.7329 0.824167 10.4269 0.824167 9.41845V9.19867C0.824167 8.19022 1.54509 6.8843 2.39849 6.34694L9.91039 1.61672L23.8146 10.3721L16.7298 14.8334C15.579 15.5581 14.6775 17.191 14.6775 18.551C14.6775 19.2925 14.9471 19.8497 15.4368 20.1199C15.6334 20.2285 15.8503 20.2823 16.0801 20.2823C16.4225 20.2823 16.7936 20.1628 17.1689 19.9264L23.8776 15.702C24.507 15.3056 24.9999 14.4126 24.9999 13.6688C24.9999 13.2262 24.8228 12.8745 24.5139 12.704Z" fill="white"/>
</svg>
