<svg width="20" height="20" viewBox="0 0 20 20" fill="none" xmlns="http://www.w3.org/2000/svg">
<g clip-path="url(#clip0)">
<path d="M0 4.9378V15.0622C0 16.4573 1.13808 17.5954 2.53314 17.5954H10.7159C12.111 17.5954 13.249 16.4573 13.249 15.0622V13.4224C13.249 13.145 13.0247 12.9207 12.7473 12.9207C12.4699 12.9207 12.2456 13.145 12.2456 13.4224V15.0622C12.2456 15.9066 11.5562 16.596 10.7118 16.596H2.53314C1.68876 16.596 0.999388 15.9066 0.999388 15.0622V4.9378C0.999388 4.09341 1.68876 3.40404 2.53314 3.40404H10.7159C11.5603 3.40404 12.2496 4.09341 12.2496 4.9378V6.57761C12.2496 6.85499 12.474 7.07934 12.7514 7.07934C13.0288 7.07934 13.2531 6.85499 13.2531 6.57761V4.9378C13.2531 3.54273 12.115 2.40465 10.72 2.40465H2.53314C1.13808 2.40465 0 3.53865 0 4.9378Z" fill="#92FFF2"/>
<path d="M15.721 13.7732C15.8189 13.8711 15.9454 13.9201 16.0759 13.9201C16.2064 13.9201 16.3329 13.8711 16.4308 13.7732L19.8532 10.3508C20.049 10.155 20.049 9.84092 19.8532 9.64512L16.4308 6.22272C16.235 6.02692 15.9209 6.02692 15.7251 6.22272C15.5293 6.41852 15.5293 6.73262 15.7251 6.92841L18.2949 9.49827H8.91702C8.63964 9.49827 8.41528 9.72262 8.41528 10C8.41528 10.2774 8.63964 10.5017 8.91702 10.5017H18.2909L15.721 13.0716C15.5252 13.2633 15.5252 13.5815 15.721 13.7732Z" fill="#92FFF2"/>
</g>
<defs>
<clipPath id="clip0">
<rect width="20" height="20" fill="white"/>
</clipPath>
</defs>
</svg>
