<svg width="18" height="17" viewBox="0 0 18 17" fill="none" xmlns="http://www.w3.org/2000/svg">
<path d="M13.507 0.89426C13.177 0.700103 12.752 0.810448 12.5579 1.14049C12.3638 1.47054 12.474 1.89553 12.8041 2.08964C14.9708 3.36383 16.3167 5.71489 16.3167 8.2253C16.3167 12.1477 13.1257 15.3386 9.20337 15.3386C5.28105 15.3386 2.09004 12.1476 2.09004 8.2253C2.09004 5.71489 3.43593 3.36383 5.60262 2.08964C5.93271 1.89558 6.04295 1.47059 5.84885 1.14049C5.6548 0.810396 5.22986 0.700259 4.89971 0.89426C2.31131 2.41656 0.703369 5.22565 0.703369 8.2253C0.703369 12.9123 4.51644 16.7253 9.20342 16.7253C13.8904 16.7253 17.7035 12.9123 17.7034 8.2253C17.7034 5.2257 16.0954 2.41656 13.507 0.89426Z" fill="white"/>
</svg>
