<svg width="24" height="24" viewBox="0 0 24 24" fill="none" xmlns="http://www.w3.org/2000/svg">
<g clip-path="url(#clip0)">
<path d="M21.0274 3.38738C21.113 3.38738 21.2415 3.34453 21.3272 3.25889L23.1259 1.4602C23.2971 1.28892 23.2971 1.03195 23.1259 0.860626C22.9546 0.689298 22.6976 0.689344 22.5263 0.860626L20.7276 2.65931C20.5563 2.83059 20.5563 3.08756 20.7276 3.25889C20.8133 3.34458 20.9418 3.38738 21.0274 3.38738Z" fill="white"/>
<path d="M19.1004 2.48803C19.1433 2.57367 19.2289 2.57367 19.2717 2.57367C19.443 2.57367 19.5715 2.48803 19.6571 2.3167L20.5136 0.603653C20.5993 0.389528 20.5136 0.132559 20.3424 0.0469182C20.1282 -0.0387225 19.8713 0.0469182 19.7856 0.218199L18.9291 1.93125C18.8434 2.14547 18.9291 2.40239 19.1004 2.48803Z" fill="white"/>
<path d="M23.9397 3.68717C23.8112 3.47305 23.5971 3.38741 23.3829 3.47305L21.6699 4.32955C21.4558 4.41519 21.3701 4.67216 21.4986 4.88628C21.5842 5.05756 21.7127 5.14325 21.8841 5.14325C21.9269 5.14325 22.0125 5.14325 22.0553 5.10041L23.7684 4.24391C23.9825 4.15827 24.0682 3.9013 23.9397 3.68717Z" fill="white"/>
<path d="M14.3038 0.73218C13.7899 0.21829 13.019 0.21829 12.5051 0.689337L11.6058 1.50304C11.4345 1.67432 11.3488 1.88849 11.3488 2.10262C11.3488 2.31674 11.4345 2.57371 11.6058 2.7022L11.8627 2.95916L2.01281 17.5627H1.92717C1.75589 17.3915 1.54172 17.3058 1.32759 17.3058C1.11347 17.3058 0.899344 17.3914 0.728016 17.5627C0.256969 17.991 0 18.5905 0 19.2329C0 19.8753 0.256969 20.4749 0.728016 20.946L3.04059 23.2586C3.51169 23.7297 4.11122 23.9866 4.75364 23.9866C5.39602 23.9866 5.99559 23.7296 6.46669 23.2586C6.8093 22.916 6.8093 22.4021 6.46669 22.0595L6.25256 21.8453L7.70864 20.9031L8.22253 21.7168C8.77927 22.6162 9.76425 23.0873 10.7492 23.0873C11.306 23.0873 11.8627 22.916 12.3766 22.6162C13.0618 22.1879 13.5329 21.5027 13.6614 20.7319C13.8327 19.961 13.7042 19.1473 13.2331 18.4621L12.6764 17.5627L20.9418 12.081L21.2844 12.4236C21.627 12.7234 22.1409 12.7663 22.4407 12.4236L22.869 12.0382C23.2116 11.7384 23.4257 11.3102 23.4257 10.8391C23.4257 10.368 23.2544 9.93974 22.9546 9.59713L14.3038 0.73218ZM3.64017 22.659L1.32759 20.3464C1.02783 20.0466 0.8565 19.6612 0.8565 19.2329C0.8565 18.8047 1.02778 18.4192 1.32759 18.1195L5.86711 22.659C5.22473 23.3014 4.23975 23.3014 3.64017 22.659ZM12.8049 20.5605C12.6764 21.1173 12.3338 21.5884 11.8627 21.8881C10.8777 22.5305 9.55012 22.2307 8.9077 21.2458L8.39381 20.432L11.9483 18.0766L12.5051 18.9331C12.8049 19.4042 12.9334 20.0038 12.8049 20.5605ZM22.2694 11.4386L21.8412 11.8241L21.2416 11.2673C21.1131 11.1388 20.8561 11.0961 20.7277 11.2245L5.61019 21.2458L2.61239 18.248L12.4195 3.64434L19.1003 10.3251C19.2716 10.4964 19.5285 10.4964 19.6999 10.3251C19.8712 10.1539 19.8712 9.8969 19.6999 9.72557L12.7192 2.7022L12.2054 2.14546L13.1047 1.33176C13.276 1.16048 13.533 1.16048 13.7043 1.33176L22.3551 10.1967C22.4836 10.368 22.5692 10.5822 22.5692 10.8391C22.5692 11.0532 22.4407 11.3102 22.2694 11.4386Z" fill="white"/>
<path d="M12.9761 10.4108L9.55009 13.8369C9.37881 14.0082 9.37881 14.2651 9.55009 14.4365C9.63573 14.5221 9.76422 14.565 9.84986 14.565C9.97834 14.565 10.064 14.5221 10.1496 14.4365L13.5757 11.0104C13.747 10.8391 13.747 10.5822 13.5757 10.4108C13.4044 10.2395 13.1474 10.2395 12.9761 10.4108Z" fill="white"/>
<path d="M9.8499 12.8519C9.97839 12.8519 10.064 12.8091 10.1497 12.7234L11.8627 11.0104C12.034 10.8391 12.034 10.5821 11.8627 10.4108C11.6914 10.2395 11.4345 10.2395 11.2631 10.4108L9.55009 12.1238C9.37881 12.2951 9.37881 12.5521 9.55009 12.7234C9.63578 12.8091 9.76426 12.8519 9.8499 12.8519Z" fill="white"/>
<path d="M12.9763 12.1238L11.2632 13.8369C11.0919 14.0082 11.0919 14.2651 11.2632 14.4365C11.3489 14.5221 11.4774 14.5649 11.563 14.5649C11.6486 14.5649 11.7771 14.5221 11.8628 14.4365L13.5758 12.7234C13.7471 12.5521 13.7471 12.2952 13.5758 12.1238C13.4045 11.9526 13.1476 11.9526 12.9763 12.1238Z" fill="white"/>
</g>
<defs>
<clipPath id="clip0">
<rect width="24" height="24" fill="white"/>
</clipPath>
</defs>
</svg>
