<svg width="945" height="122" viewBox="0 0 945 122" fill="none" xmlns="http://www.w3.org/2000/svg">
<path d="M179.05 15.5756C168.342 15.5756 159.659 23.8095 159.659 34.8827C159.659 45.956 168.342 54.1899 179.05 54.1899C189.759 54.1899 198.442 45.956 198.442 34.8827C198.442 23.8095 189.759 15.5756 179.05 15.5756ZM179.05 18.9827C187.733 18.9827 194.68 25.5131 194.68 34.5988C194.68 43.6846 187.733 50.2149 179.05 50.2149C170.368 50.2149 163.421 43.6846 163.421 34.5988C163.421 25.5131 170.368 18.9827 179.05 18.9827ZM227.385 15.5756C220.149 15.5756 214.65 19.2666 211.466 25.2292V16.4273H207.704V70.09H211.756V45.0776C214.65 50.7562 220.149 54.1899 227.385 54.1899C237.804 54.1899 245.04 45.956 245.04 34.8827C245.04 23.8095 237.804 15.5756 227.385 15.5756ZM226.806 50.4989C218.123 50.4989 211.466 43.9685 211.466 34.8827C211.466 25.797 218.123 19.2666 226.806 19.2666C235.489 19.2666 241.567 25.797 241.567 34.8827C241.567 43.9685 235.489 50.4989 226.806 50.4989ZM271.957 15.5756C260.959 15.5756 252.855 23.5256 252.855 34.8827C252.855 46.2399 260.959 53.906 271.957 53.906C279.482 53.906 286.139 50.2149 289.322 43.1167H285.56C282.955 47.9435 278.035 50.4989 271.957 50.4989C263.274 50.4989 256.907 45.1042 256.328 36.0185H290.191C290.48 24.0934 283.244 15.5756 271.957 15.5756ZM271.957 18.9827C280.35 18.9827 285.849 24.6613 286.718 32.6113H256.617C257.485 24.6613 263.563 18.9827 271.957 18.9827ZM317.397 15.5756C310.161 15.5756 305.241 19.2666 302.926 24.9452V16.4273H299.163V53.3381H302.926V34.5988C302.926 25.5131 307.846 18.9827 316.529 18.9827C323.185 18.9827 327.237 22.6738 327.237 30.056V53.0542H331V29.772C330.711 20.6863 325.79 15.5756 317.397 15.5756Z" fill="white"/>
<path d="M197.871 54.5144V78.9722C194.912 73.0788 188.995 68.9534 181.599 68.9534C170.949 68.9534 163.553 77.4989 163.553 88.9911C163.553 100.483 170.949 109.029 181.895 109.029C189.291 109.029 194.912 105.198 198.167 99.0099V108.145H202.012V54.5144H197.871ZM182.191 105.198C173.316 105.198 167.103 98.4206 167.103 88.9911C167.103 79.5616 173.316 72.7841 182.191 72.7841C191.066 72.7841 197.871 79.5616 197.871 88.9911C197.871 98.4206 191.066 105.198 182.191 105.198ZM245.501 69.8374V78.9722C242.543 73.0788 236.626 68.9534 229.23 68.9534C218.58 68.9534 211.184 77.4989 211.184 88.9911C211.184 100.483 218.58 109.029 229.526 109.029C236.922 109.029 242.543 105.198 245.501 99.0099V108.145H249.347V69.8374H245.501ZM229.822 105.198C220.946 105.198 214.734 98.4206 214.734 88.9911C214.734 79.5616 220.946 72.7841 229.822 72.7841C238.697 72.7841 245.501 79.5616 245.501 88.9911C245.501 98.4206 238.697 105.198 229.822 105.198ZM286.919 103.43C284.257 104.609 281.298 105.198 278.34 105.198C271.24 105.198 267.985 100.778 267.985 93.1165V73.0788H286.624V69.5427H267.985V59.2292L264.139 60.1132V69.8374H256.448V73.3734H264.139V93.7058C264.139 103.43 269.169 109.029 277.748 109.029C281.594 109.029 285.44 107.85 287.511 106.671L286.919 103.43ZM327.154 69.8374V78.9722C324.196 73.0788 318.279 68.9534 310.883 68.9534C300.232 68.9534 292.836 77.4989 292.836 88.9911C292.836 100.483 300.232 109.029 311.178 109.029C318.279 109.029 324.196 104.903 327.154 99.0099V108.145H331V69.8374H327.154ZM311.474 105.198C302.599 105.198 296.386 98.4206 296.386 88.9911C296.386 79.5616 302.599 72.7841 311.474 72.7841C320.35 72.7841 327.154 79.5616 327.154 88.9911C327.154 98.4206 320.35 105.198 311.474 105.198Z" fill="white"/>
<path d="M69.7047 51.3991C73.5988 55.293 76.3247 59.5762 78.6612 64.6383C80.6082 69.7003 81.7765 74.7624 81.7765 80.2138C81.7765 91.5061 77.1035 101.63 69.7047 109.029C62.3059 116.427 52.1812 121.1 40.8882 121.1C29.5953 121.1 19.4706 116.427 12.0718 109.029C4.67294 102.02 0 91.5061 0 80.6032C0 69.7003 4.67294 59.1868 12.0718 51.7885C19.4706 44.3901 29.5953 39.7174 40.8882 39.7174C46.34 39.7174 51.4023 40.8856 56.4647 42.8325C61.5271 44.7795 65.8106 47.8946 69.7047 51.3991ZM74.3776 66.5852C72.4306 62.3019 70.0941 58.0187 66.5894 54.9036C63.0847 51.7885 59.1906 48.6733 54.9071 47.1158C50.6235 45.1688 45.9506 44.3901 40.8882 44.3901C30.7635 44.3901 21.8071 48.284 15.1871 54.9036C8.56706 61.5232 4.67294 70.4791 4.67294 80.6032C4.67294 90.7273 8.56706 99.6832 15.1871 106.303C21.8071 112.922 30.7635 116.816 40.8882 116.816C51.0129 116.816 59.9694 112.922 66.5894 106.303C73.2094 99.6832 77.1035 90.7273 77.1035 80.6032C77.1035 75.5412 76.3247 70.8685 74.3776 66.5852Z" fill="white"/>
<path d="M130.842 51.3994C134.736 55.2933 137.462 59.5766 139.799 64.6387C141.746 69.7007 142.914 74.7628 142.914 80.2142C142.914 91.5065 138.241 101.631 130.842 109.029C123.444 116.427 113.319 121.1 102.026 121.1C93.0694 121.1 84.5024 117.985 77.8824 113.312C78.2718 112.923 78.6612 112.533 78.6612 112.533C79.44 111.755 80.2188 110.976 80.6082 110.197C86.4494 114.48 93.8482 116.817 101.636 116.817C111.761 116.817 120.718 112.923 127.338 106.303C133.958 99.6836 137.852 90.7277 137.852 80.6036C137.852 75.9309 137.073 70.8689 135.126 66.5856C133.179 62.3023 130.842 58.0191 127.338 54.9039C123.833 51.3994 119.939 48.6737 115.655 47.1162C111.372 45.1692 106.699 44.3905 101.636 44.3905C93.8482 44.3905 86.4494 46.7268 80.6082 51.0101C79.8294 50.2313 79.0506 49.4525 78.6612 48.6737C78.2718 48.2843 77.8824 47.8949 77.8824 47.8949C84.5024 42.8329 93.0694 40.1072 102.026 40.1072C107.478 40.1072 112.54 41.2753 117.602 43.2223C122.275 44.7798 126.948 47.8949 130.842 51.3994Z" fill="white"/>
<path d="M35.8258 35.8238C36.2152 32.7086 36.9941 29.5935 38.1623 26.8678C40.1094 22.5845 42.4458 18.3013 45.9505 15.1862C49.4552 12.071 53.3494 8.95594 57.6329 7.39838C61.9164 5.45144 66.5894 4.67266 71.6517 4.67266C81.7764 4.67266 90.7329 8.56655 97.3529 15.1862C102.805 20.6376 106.309 27.6466 107.478 35.4344C109.035 35.8238 110.593 36.2131 112.151 36.6025C110.982 26.8678 106.699 18.3013 100.468 12.071C93.0694 4.67266 82.9447 0 71.6517 0C66.2 0 61.1376 1.16817 56.0752 3.11511C51.4023 4.67266 46.7294 7.78777 43.2247 11.6817C39.3305 15.5755 36.6047 19.8588 34.2682 24.9209C32.7105 28.8148 31.5423 32.7086 31.1529 36.9919C32.7105 36.6025 34.2682 36.2131 35.8258 35.8238Z" fill="white"/>
<line x1="412" y1="7" x2="412" y2="117" stroke="white" stroke-width="2"/>
<path d="M485.63 41.48L487.59 39.59L503.06 58H515.8L494.52 32.73L515.8 8.43999H503.27L485.63 29.09V8.43999H475.34V58H485.63V41.48Z" fill="white"/>
<path d="M546.681 21.74H536.881V49.74C535.761 50.37 534.291 50.86 532.821 50.86C529.251 50.86 527.221 49.46 527.221 46.59V21.74H517.841V46.73C517.841 54.57 523.231 58.7 531.141 58.7C533.101 58.7 535.411 58.14 537.301 57.51C537.371 62.27 534.711 64.02 530.511 64.02C528.061 64.02 525.191 62.97 523.581 61.36L518.961 67.45C522.391 70.88 527.151 72.28 531.631 72.28C540.241 72.28 546.681 67.45 546.681 57.72V21.74Z" fill="white"/>
<path d="M568.074 21.04C561.494 21.04 553.864 25.24 553.864 33.92V58H563.594V34.06C563.594 30.98 566.674 29.37 569.964 29.23H570.454C571.364 29.23 572.274 29.37 573.184 29.58V21.74C571.154 21.25 569.404 21.04 568.074 21.04Z" fill="white"/>
<path d="M589.981 64.16C587.391 64.16 584.311 63.18 582.631 61.57L578.151 67.38C581.441 70.67 586.131 72.28 590.681 72.28C598.871 72.28 605.661 67.66 605.661 57.93V24.12C601.741 22.23 596.701 21.04 591.661 21.04C583.891 21.04 576.821 24.33 576.821 33.22V46.94C576.821 54.78 583.191 58.7 590.121 58.7C592.081 58.7 594.111 58.28 596.001 57.16C596.001 61.99 593.691 64.16 589.981 64.16ZM591.731 28.53C593.131 28.53 594.531 28.81 595.861 29.44V49.95C594.741 50.58 593.481 50.86 592.011 50.86C589.281 50.86 586.551 49.6 586.201 46.8V33.01C586.201 30 588.861 28.53 591.731 28.53Z" fill="white"/>
<path d="M641.701 21.74H631.901V49.74C630.781 50.37 629.311 50.86 627.841 50.86C624.271 50.86 622.241 49.46 622.241 46.59V21.74H612.861V46.73C612.861 54.57 618.251 58.7 626.161 58.7C628.121 58.7 630.431 58.14 632.321 57.51C632.391 62.27 629.731 64.02 625.531 64.02C623.081 64.02 620.211 62.97 618.601 61.36L613.981 67.45C617.411 70.88 622.171 72.28 626.651 72.28C635.261 72.28 641.701 67.45 641.701 57.72V21.74Z" fill="white"/>
<path d="M660.223 49.67L675.343 25.17L673.243 21.74H648.253V30.07H661.973L646.923 54.5L649.023 58H674.853V49.67H660.223Z" fill="white"/>
<path d="M708.979 39.87L723.049 58H735.719L720.949 39.17C728.159 37.77 732.219 33.43 732.219 24.26C731.869 12.99 724.449 8.43999 714.509 8.43999H694.979V58H705.339V39.87H708.979ZM705.339 30.49V18.8H715.139C717.029 18.8 718.639 19.15 719.899 19.92C721.229 20.76 721.929 22.23 721.929 24.33C721.929 28.74 719.059 30.49 714.509 30.49H705.339Z" fill="white"/>
<path d="M752.297 58.7C756.567 58.7 762.237 57.02 764.967 51.84L758.597 47.22C757.477 49.11 755.167 49.95 752.927 49.95C750.127 49.95 747.467 48.48 747.467 45.68V44.07H766.437V33.43C766.437 24.68 759.507 21.04 752.437 21.04C745.157 21.04 737.667 25.1 737.667 33.85V45.82C737.667 54.43 745.017 58.7 752.297 58.7ZM757.267 36.86H747.467V33.64C747.467 31.05 749.987 29.79 752.507 29.79C754.957 29.79 757.267 31.05 757.267 33.57V36.86Z" fill="white"/>
<path d="M786.553 21.04C782.003 21.04 776.893 22.09 772.413 23.77V71.3H782.213V57.44C784.033 58.28 785.993 58.7 788.093 58.7C794.883 58.7 801.603 54.92 801.603 46.38V33.15C801.603 23.63 794.113 21.04 786.553 21.04ZM785.993 51.21C784.593 51.21 783.263 50.93 782.213 50.37V29.3C783.333 28.74 784.663 28.46 786.133 28.46C789.283 28.46 791.873 29.65 791.873 32.66V46.38C791.873 49.67 789.143 51.21 785.993 51.21Z" fill="white"/>
<path d="M823.217 58.7C828.257 58.7 833.017 57.44 836.937 56.04V21.74H827.277V50.02C826.157 50.44 824.967 50.65 823.777 50.65C820.487 50.65 817.687 48.97 817.687 44.7V21.74H807.957V45.26C807.957 55.55 815.167 58.7 823.217 58.7Z" fill="white"/>
<path d="M860.011 21.04C857.841 21.04 855.881 21.46 853.991 22.3V8.50999H844.191V55.97C848.671 57.65 853.781 58.7 858.331 58.7C865.961 58.7 872.611 55.55 873.381 46.17V33.36C873.381 25.8 866.661 21.04 860.011 21.04ZM857.561 51.49C857.351 51.49 857.141 51.49 856.931 51.42C855.811 51.35 854.831 51.14 853.991 50.72V29.72C854.761 29.3 855.741 29.02 856.791 28.88C857.141 28.81 857.491 28.81 857.841 28.81C858.471 28.81 859.171 28.88 859.801 29.02C861.761 29.58 863.371 30.84 863.651 32.87V47.08C863.651 49.25 862.041 50.58 860.081 51.14C859.311 51.35 858.471 51.49 857.561 51.49Z" fill="white"/>
<path d="M893.106 58.7C893.736 58.7 894.366 58.63 895.136 58.56V50.23C891.146 50.23 889.326 47.99 889.326 45.26V8.43999H879.596V45.26C879.596 52.75 883.796 58.7 893.106 58.7Z" fill="white"/>
<path d="M904.118 7.10999C900.758 7.10999 898.168 9.76999 898.168 13.13C898.168 16.56 900.758 19.22 904.118 19.22C907.478 19.22 910.138 16.56 910.138 13.13C910.138 9.76999 907.478 7.10999 904.118 7.10999ZM909.158 21.81H899.218V58H909.158V21.81Z" fill="white"/>
<path d="M930.303 58.7C935.623 58.7 941.853 56.11 944.443 48.83L935.903 46.03C934.993 48.76 932.543 49.95 930.303 49.95C927.853 49.95 925.473 48.55 925.473 45.82V33.85C925.473 31.26 927.853 29.79 930.303 29.79C932.543 29.79 934.923 30.91 935.693 33.43L944.023 30.84C942.203 23.42 935.413 21.04 930.303 21.04C923.093 21.04 915.743 25.31 915.743 33.92V45.89C915.743 54.5 923.093 58.7 930.303 58.7Z" fill="white"/>
<path d="M472.41 101.11C472.41 104.56 475.44 106.3 478.44 106.3C481.44 106.3 484.41 104.56 484.41 101.11V95.35C484.41 91.9 481.44 90.16 478.44 90.16C475.44 90.16 472.41 91.9 472.41 95.35V101.11ZM478.44 92.44C480.12 92.44 482.01 93.34 482.01 95.29V101.14C482.01 103.06 480.12 104.02 478.44 104.02C476.67 104.02 474.81 103.06 474.81 101.14V95.29C474.81 93.34 476.67 92.44 478.44 92.44Z" fill="white"/>
<path d="M502.834 90.16C500.824 90.16 498.784 90.58 496.744 91.27V111.43H499.144V105.43C500.314 106.03 501.454 106.27 502.744 106.27C505.774 106.27 508.774 104.47 508.774 101.08V95.32C508.774 91.87 505.804 90.16 502.834 90.16ZM502.774 103.99C501.544 103.99 500.314 103.75 499.144 103.3V92.83C500.314 92.5 501.604 92.47 502.834 92.47C504.604 92.47 506.344 93.52 506.344 95.29V101.11C506.344 102.94 504.574 103.99 502.774 103.99Z" fill="white"/>
<path d="M523.075 99.43H532.615V95.32C532.615 91.84 529.645 90.16 526.675 90.16C523.675 90.16 520.645 91.84 520.645 95.32V101.14C520.645 104.62 523.675 106.3 526.675 106.3C528.925 106.3 531.205 105.16 532.315 102.88L530.215 101.98C529.585 103.42 528.085 104.08 526.675 104.08C524.845 104.08 523.075 103.21 523.075 101.32V99.43ZM530.335 97.42H523.075V95.26C523.075 93.37 524.635 92.35 526.675 92.35C528.445 92.35 530.335 93.4 530.335 95.2V97.42Z" fill="white"/>
<path d="M556.624 95.26C556.624 91.81 553.744 90.25 550.774 90.16C548.824 90.16 546.724 90.76 544.714 91.45V106H547.114V93.07C547.984 92.74 549.364 92.38 550.774 92.38C552.424 92.38 554.254 93.25 554.254 95.17V106H556.624V95.26Z" fill="white"/>
<path d="M584.149 101.14C584.149 104.62 587.119 106.21 590.089 106.3C592.099 106.3 594.139 105.88 596.179 105.19V85H593.779V91.15C592.669 90.43 591.469 90.19 590.149 90.19C587.149 90.19 584.149 92.02 584.149 95.38V101.14ZM590.089 104.17C588.319 104.17 586.579 102.91 586.579 101.11V95.38C586.579 93.34 588.349 92.32 590.149 92.32C591.319 92.32 592.609 92.59 593.779 93.19V103.72C592.609 104.08 591.289 104.17 590.089 104.17Z" fill="white"/>
<path d="M617.591 97.24C616.421 96.73 615.161 96.49 613.871 96.49C610.871 96.49 608.021 98.02 608.021 101.44C608.021 104.74 610.451 106.3 613.571 106.3H613.901C614.831 106.3 615.791 106.21 616.751 106.06C617.831 105.91 618.911 105.64 619.991 105.25V95.17C619.991 91.81 617.111 90.16 614.111 90.16C612.161 90.16 610.031 91 608.591 92.59L610.091 94.06C611.021 92.89 612.521 92.38 613.931 92.38C615.761 92.38 617.591 93.37 617.591 95.17V97.24ZM614.111 98.38C615.401 98.38 616.631 98.65 617.591 98.98V103.96C616.961 104.11 616.301 104.2 615.611 104.23C615.161 104.26 614.741 104.26 614.291 104.26H613.631C611.801 104.23 610.391 103.45 610.391 101.44C610.391 99.19 612.191 98.38 614.111 98.38Z" fill="white"/>
<path d="M637.91 106.3C638.24 106.3 638.51 106.27 638.84 106.24V104.17C638.54 104.23 638.27 104.26 638 104.26C637.7 104.26 637.43 104.23 637.16 104.14C635.69 103.78 634.85 102.55 634.85 101.2V92.68H638.03V90.46H634.85V86.53H632.48V101.2C632.48 104.41 634.76 106.3 637.91 106.3Z" fill="white"/>
<path d="M658.765 97.24C657.595 96.73 656.335 96.49 655.045 96.49C652.045 96.49 649.195 98.02 649.195 101.44C649.195 104.74 651.625 106.3 654.745 106.3H655.075C656.005 106.3 656.965 106.21 657.925 106.06C659.005 105.91 660.085 105.64 661.165 105.25V95.17C661.165 91.81 658.285 90.16 655.285 90.16C653.335 90.16 651.205 91 649.765 92.59L651.265 94.06C652.195 92.89 653.695 92.38 655.105 92.38C656.935 92.38 658.765 93.37 658.765 95.17V97.24ZM655.285 98.38C656.575 98.38 657.805 98.65 658.765 98.98V103.96C658.135 104.11 657.475 104.2 656.785 104.23C656.335 104.26 655.915 104.26 655.465 104.26H654.805C652.975 104.23 651.565 103.45 651.565 101.44C651.565 99.19 653.365 98.38 655.285 98.38Z" fill="white"/>
<path d="M695.132 90.16C693.122 90.16 691.082 90.58 689.042 91.27V111.43H691.442V105.43C692.612 106.03 693.752 106.27 695.042 106.27C698.072 106.27 701.072 104.47 701.072 101.08V95.32C701.072 91.87 698.102 90.16 695.132 90.16ZM695.072 103.99C693.842 103.99 692.612 103.75 691.442 103.3V92.83C692.612 92.5 693.902 92.47 695.132 92.47C696.902 92.47 698.642 93.52 698.642 95.29V101.11C698.642 102.94 696.872 103.99 695.072 103.99Z" fill="white"/>
<path d="M712.914 101.11C712.914 104.56 715.944 106.3 718.944 106.3C721.944 106.3 724.914 104.56 724.914 101.11V95.35C724.914 91.9 721.944 90.16 718.944 90.16C715.944 90.16 712.914 91.9 712.914 95.35V101.11ZM718.944 92.44C720.624 92.44 722.514 93.34 722.514 95.29V101.14C722.514 103.06 720.624 104.02 718.944 104.02C717.174 104.02 715.314 103.06 715.314 101.14V95.29C715.314 93.34 717.174 92.44 718.944 92.44Z" fill="white"/>
<path d="M743.067 92.44C743.517 92.44 743.877 92.44 744.327 92.53V90.28C743.877 90.19 743.427 90.16 742.977 90.16C740.247 90.16 737.157 91.84 737.157 95.35V106H739.557V95.35C739.557 93.43 741.177 92.44 743.067 92.44Z" fill="white"/>
<path d="M760.933 106.3C761.263 106.3 761.533 106.27 761.863 106.24V104.17C761.563 104.23 761.293 104.26 761.023 104.26C760.723 104.26 760.453 104.23 760.183 104.14C758.713 103.78 757.873 102.55 757.873 101.2V92.68H761.053V90.46H757.873V86.53H755.503V101.2C755.503 104.41 757.783 106.3 760.933 106.3Z" fill="white"/>
<path d="M781.789 97.24C780.618 96.73 779.359 96.49 778.069 96.49C775.069 96.49 772.219 98.02 772.219 101.44C772.219 104.74 774.649 106.3 777.769 106.3H778.099C779.029 106.3 779.989 106.21 780.949 106.06C782.029 105.91 783.109 105.64 784.189 105.25V95.17C784.189 91.81 781.309 90.16 778.309 90.16C776.359 90.16 774.229 91 772.789 92.59L774.289 94.06C775.219 92.89 776.719 92.38 778.129 92.38C779.958 92.38 781.789 93.37 781.789 95.17V97.24ZM778.309 98.38C779.599 98.38 780.829 98.65 781.789 98.98V103.96C781.159 104.11 780.499 104.2 779.809 104.23C779.359 104.26 778.939 104.26 778.489 104.26H777.829C775.999 104.23 774.589 103.45 774.589 101.44C774.589 99.19 776.389 98.38 778.309 98.38Z" fill="white"/>
<path d="M801.957 104.05C799.947 104.05 799.077 102.94 799.077 101.23V85.03H796.677V101.23C796.677 104.44 798.567 106.3 801.957 106.3V104.05Z" fill="white"/>
</svg>
