<svg width="1075" height="122" viewBox="0 0 1075 122" fill="none" xmlns="http://www.w3.org/2000/svg">
<path d="M179.051 15.6756C168.342 15.6756 159.659 23.9096 159.659 34.9828C159.659 46.0561 168.342 54.29 179.051 54.29C189.759 54.29 198.442 46.0561 198.442 34.9828C198.442 23.9096 189.759 15.6756 179.051 15.6756ZM179.051 19.0828C187.733 19.0828 194.68 25.6132 194.68 34.6989C194.68 43.7846 187.733 50.315 179.051 50.315C170.368 50.315 163.421 43.7846 163.421 34.6989C163.421 25.6132 170.368 19.0828 179.051 19.0828ZM227.385 15.6756C220.149 15.6756 214.65 19.3667 211.466 25.3292V16.5274H207.704V70.1901H211.756V45.1777C214.65 50.8562 220.149 54.29 227.385 54.29C237.804 54.29 245.04 46.0561 245.04 34.9828C245.04 23.9096 237.804 15.6756 227.385 15.6756ZM226.806 50.5989C218.123 50.5989 211.466 44.0686 211.466 34.9828C211.466 25.8971 218.123 19.3667 226.806 19.3667C235.489 19.3667 241.567 25.8971 241.567 34.9828C241.567 44.0686 235.489 50.5989 226.806 50.5989ZM271.957 15.6756C260.959 15.6756 252.855 23.6257 252.855 34.9828C252.855 46.34 260.959 54.0061 271.957 54.0061C279.482 54.0061 286.139 50.315 289.322 43.2168H285.56C282.955 48.0436 278.035 50.5989 271.957 50.5989C263.274 50.5989 256.907 45.2043 256.328 36.1185H290.191C290.48 24.1935 283.244 15.6756 271.957 15.6756ZM271.957 19.0828C280.35 19.0828 285.849 24.7614 286.718 32.7114H256.617C257.485 24.7614 263.563 19.0828 271.957 19.0828ZM317.397 15.6756C310.161 15.6756 305.241 19.3667 302.926 25.0453V16.5274H299.163V53.4382H302.926V34.6989C302.926 25.6132 307.846 19.0828 316.529 19.0828C323.185 19.0828 327.237 22.7739 327.237 30.156V53.1543H331V29.8721C330.711 20.7864 325.79 15.6756 317.397 15.6756Z" fill="white"/>
<path d="M197.871 54.6145V79.0723C194.912 73.1789 188.995 69.0535 181.599 69.0535C170.949 69.0535 163.553 77.599 163.553 89.0912C163.553 100.583 170.949 109.129 181.895 109.129C189.291 109.129 194.912 105.298 198.167 99.11V108.245H202.013V54.6145H197.871ZM182.191 105.298C173.316 105.298 167.103 98.5207 167.103 89.0912C167.103 79.6617 173.316 72.8842 182.191 72.8842C191.066 72.8842 197.871 79.6617 197.871 89.0912C197.871 98.5207 191.066 105.298 182.191 105.298ZM245.501 69.9375V79.0723C242.543 73.1789 236.626 69.0535 229.23 69.0535C218.58 69.0535 211.184 77.599 211.184 89.0912C211.184 100.583 218.58 109.129 229.526 109.129C236.922 109.129 242.543 105.298 245.501 99.11V108.245H249.347V69.9375H245.501ZM229.822 105.298C220.946 105.298 214.734 98.5207 214.734 89.0912C214.734 79.6617 220.946 72.8842 229.822 72.8842C238.697 72.8842 245.501 79.6617 245.501 89.0912C245.501 98.5207 238.697 105.298 229.822 105.298ZM286.919 103.53C284.257 104.709 281.298 105.298 278.34 105.298C271.24 105.298 267.985 100.878 267.985 93.2166V73.1789H286.624V69.6428H267.985V59.3293L264.139 60.2133V69.9375H256.448V73.4735H264.139V93.8059C264.139 103.53 269.169 109.129 277.748 109.129C281.594 109.129 285.44 107.95 287.511 106.772L286.919 103.53ZM327.154 69.9375V79.0723C324.196 73.1789 318.279 69.0535 310.883 69.0535C300.232 69.0535 292.836 77.599 292.836 89.0912C292.836 100.583 300.232 109.129 311.179 109.129C318.279 109.129 324.196 105.003 327.154 99.11V108.245H331V69.9375H327.154ZM311.474 105.298C302.599 105.298 296.386 98.5207 296.386 89.0912C296.386 79.6617 302.599 72.8842 311.474 72.8842C320.35 72.8842 327.154 79.6617 327.154 89.0912C327.154 98.5207 320.35 105.298 311.474 105.298Z" fill="white"/>
<path d="M69.7047 51.4992C73.5988 55.3931 76.3247 59.6764 78.6612 64.7384C80.6082 69.8005 81.7765 74.8625 81.7765 80.314C81.7765 91.6062 77.1035 101.73 69.7047 109.129C62.3059 116.527 52.1812 121.2 40.8882 121.2C29.5953 121.2 19.4706 116.527 12.0718 109.129C4.67294 102.12 0 91.6062 0 80.7034C0 69.8005 4.67294 59.287 12.0718 51.8886C19.4706 44.4902 29.5953 39.8175 40.8882 39.8175C46.34 39.8175 51.4024 40.9857 56.4647 42.9327C61.5271 44.8796 65.8106 47.9947 69.7047 51.4992ZM74.3776 66.6854C72.4306 62.4021 70.0941 58.1188 66.5894 55.0037C63.0847 51.8886 59.1906 48.7735 54.9071 47.2159C50.6235 45.269 45.9506 44.4902 40.8882 44.4902C30.7635 44.4902 21.8071 48.3841 15.1871 55.0037C8.56706 61.6233 4.67294 70.5793 4.67294 80.7034C4.67294 90.8275 8.56706 99.7834 15.1871 106.403C21.8071 113.023 30.7635 116.916 40.8882 116.916C51.0129 116.916 59.9694 113.023 66.5894 106.403C73.2094 99.7834 77.1035 90.8275 77.1035 80.7034C77.1035 75.6413 76.3247 70.9686 74.3776 66.6854Z" fill="white"/>
<path d="M130.842 51.4996C134.736 55.3935 137.462 59.6768 139.799 64.7388C141.746 69.8008 142.914 74.8629 142.914 80.3143C142.914 91.6066 138.241 101.731 130.842 109.129C123.444 116.527 113.319 121.2 102.026 121.2C93.0694 121.2 84.5023 118.085 77.8823 113.412C78.2718 113.023 78.6612 112.634 78.6612 112.634C79.44 111.855 80.2188 111.076 80.6082 110.297C86.4494 114.581 93.8482 116.917 101.636 116.917C111.761 116.917 120.718 113.023 127.338 106.403C133.958 99.7838 137.852 90.8278 137.852 80.7037C137.852 76.0311 137.073 70.969 135.126 66.6857C133.179 62.4025 130.842 58.1192 127.338 55.0041C123.833 51.4996 119.939 48.7739 115.655 47.2163C111.372 45.2694 106.699 44.4906 101.636 44.4906C93.8482 44.4906 86.4494 46.8269 80.6082 51.1102C79.8294 50.3314 79.0506 49.5526 78.6612 48.7739C78.2718 48.3845 77.8823 47.9951 77.8823 47.9951C84.5023 42.933 93.0694 40.2073 102.026 40.2073C107.478 40.2073 112.54 41.3755 117.602 43.3224C122.275 44.88 126.948 47.9951 130.842 51.4996Z" fill="white"/>
<path d="M35.8259 35.9239C36.2153 32.8087 36.9941 29.6936 38.1623 26.9679C40.1094 22.6846 42.4459 18.4014 45.9506 15.2863C49.4553 12.1711 53.3494 9.05604 57.6329 7.49848C61.9164 5.55154 66.5894 4.77276 71.6517 4.77276C81.7764 4.77276 90.7329 8.66665 97.3529 15.2863C102.805 20.7377 106.309 27.7467 107.478 35.5345C109.035 35.9239 110.593 36.3132 112.151 36.7026C110.982 26.9679 106.699 18.4014 100.468 12.1711C93.0694 4.77276 82.9447 0.100098 71.6517 0.100098C66.2 0.100098 61.1376 1.26826 56.0753 3.21521C51.4023 4.77276 46.7294 7.88787 43.2247 11.7818C39.3306 15.6756 36.6047 19.9589 34.2682 25.021C32.7106 28.9149 31.5423 32.8087 31.1529 37.092C32.7106 36.7026 34.2682 36.3132 35.8259 35.9239Z" fill="white"/>
<path d="M461.828 44.054L463.89 42.0652L480.169 61.4373H493.574L471.182 34.8467L493.574 9.28744H480.39L461.828 31.0165V9.28744H451V61.4373H461.828V44.054Z" fill="white"/>
<path d="M527.148 23.2825H516.836V52.7456C515.658 53.4085 514.111 53.9242 512.564 53.9242C508.808 53.9242 506.672 52.451 506.672 49.431V23.2825H496.801V49.5783C496.801 57.828 502.473 62.1738 510.796 62.1738C512.859 62.1738 515.29 61.5846 517.278 60.9217C517.352 65.9304 514.553 67.7718 510.134 67.7718C507.555 67.7718 504.536 66.667 502.841 64.9728L497.98 71.3811C501.589 74.9903 506.598 76.4635 511.312 76.4635C520.372 76.4635 527.148 71.3811 527.148 61.1426V23.2825Z" fill="white"/>
<path d="M549.658 22.5459C542.735 22.5459 534.706 26.9653 534.706 36.0989V61.4373H544.944V36.2462C544.944 33.0053 548.185 31.3112 551.647 31.1638H552.163C553.12 31.1638 554.078 31.3112 555.035 31.5321V23.2825C552.899 22.7668 551.058 22.5459 549.658 22.5459Z" fill="white"/>
<path d="M572.711 67.9192C569.985 67.9192 566.744 66.888 564.976 65.1938L560.262 71.3074C563.724 74.7693 568.659 76.4635 573.447 76.4635C582.065 76.4635 589.21 71.6021 589.21 61.3636V25.7868C585.085 23.7981 579.782 22.5459 574.478 22.5459C566.302 22.5459 558.863 26.0078 558.863 35.3624V49.7993C558.863 58.049 565.566 62.1738 572.858 62.1738C574.92 62.1738 577.056 61.7319 579.045 60.5534C579.045 65.6358 576.614 67.9192 572.711 67.9192ZM574.552 30.4273C576.025 30.4273 577.498 30.7219 578.898 31.3848V52.9666C577.719 53.6295 576.393 53.9242 574.847 53.9242C571.974 53.9242 569.101 52.5983 568.733 49.652V35.1414C568.733 31.9741 571.532 30.4273 574.552 30.4273Z" fill="white"/>
<path d="M627.133 23.2825H616.821V52.7456C615.643 53.4085 614.096 53.9242 612.549 53.9242C608.793 53.9242 606.656 52.451 606.656 49.431V23.2825H596.786V49.5783C596.786 57.828 602.458 62.1738 610.781 62.1738C612.844 62.1738 615.274 61.5846 617.263 60.9217C617.337 65.9304 614.538 67.7718 610.118 67.7718C607.54 67.7718 604.52 66.667 602.826 64.9728L597.965 71.3811C601.574 74.9903 606.583 76.4635 611.297 76.4635C620.357 76.4635 627.133 71.3811 627.133 61.1426V23.2825Z" fill="white"/>
<path d="M646.623 52.672L662.533 26.8917L660.324 23.2825H634.028V32.0477H648.465L632.628 57.7544L634.838 61.4373H662.018V52.672H646.623Z" fill="white"/>
<path d="M680.368 53.3349C677.716 53.3349 674.033 51.7881 671.161 49.0627L666.299 55.6919C669.908 60.4797 674.696 62.1738 680 62.1738C687.144 62.1738 693.774 57.9753 693.774 49.652C693.774 42.4335 687.66 39.6345 682.799 38.456C681.105 38.235 677.495 36.4672 677.716 34.2575C677.937 31.9741 679.484 31.1638 681.178 31.1638C683.462 31.1638 686.113 32.2687 687.365 33.5209L692.448 26.5234C688.544 23.3561 683.756 22.5459 680.294 22.5459C671.824 22.5459 667.257 28.3648 667.257 34.3311C667.257 39.7082 671.308 45.4535 679.779 46.7793C681.473 47.0003 682.651 47.5896 683.314 48.5471C683.609 49.0627 683.756 49.652 683.756 50.1676C683.756 50.6832 683.683 51.1251 683.462 51.6408C682.946 52.7456 681.915 53.3349 680.368 53.3349Z" fill="white"/>
<path d="M711.218 62.0265C713.207 62.0265 715.269 61.6582 717.479 60.9217V52.5247C716.227 52.7456 715.195 52.8929 714.312 52.8929C713.133 52.8929 712.175 52.672 711.439 52.3037C710.187 51.6408 709.597 50.1676 709.597 47.9579V32.637H716.374V23.2825H709.597L708.861 14.8118H699.433V48.0315C699.433 56.9441 703.778 61.5846 710.334 62.0265H711.218Z" fill="white"/>
<path d="M721.187 50.0939C721.187 57.4597 726.195 62.1738 737.023 62.1738C741.737 62.1738 746.893 61.069 751.386 59.3748V36.0989C751.386 26.8917 743.947 22.5459 736.36 22.5459C731.057 22.6195 726.49 24.461 722.586 28.9541L727.595 34.3311C729.436 32.3424 732.751 30.7956 735.623 30.7956C738.791 30.7956 741.516 32.0477 741.516 36.0989V38.8243C739.233 38.014 737.023 37.6457 734.74 37.6457C727.816 37.6457 721.187 41.255 721.187 50.0939ZM736.581 45.1589C738.275 45.1589 740.043 45.5271 741.221 46.0428V53.7768C739.896 54.1451 738.422 54.2924 736.876 54.2924C732.751 54.2924 730.909 52.5246 730.909 49.7993C730.909 47.074 732.677 45.1589 736.581 45.1589Z" fill="white"/>
<path d="M772.554 22.5459C767.84 22.5459 762.978 23.7981 758.78 25.8605V61.4373H769.018V32.7843C770.27 32.1214 771.67 31.7531 773.217 31.7531C776.163 31.7531 779.036 33.2999 779.036 36.8355V61.4373H789.2V36.4672C789.2 26.4497 781.098 22.5459 772.554 22.5459Z" fill="white"/>
<path d="M826.253 42.3599L841.058 61.4373H854.39L838.848 41.6233C846.435 40.1501 850.707 35.5833 850.707 25.9341C850.339 14.0752 842.531 9.28744 832.072 9.28744H811.521V61.4373H822.422V42.3599H826.253ZM822.422 32.4897V20.1888H832.735C834.723 20.1888 836.417 20.5571 837.743 21.3673C839.143 22.2512 839.879 23.7981 839.879 26.0078C839.879 30.6482 836.859 32.4897 832.072 32.4897H822.422Z" fill="white"/>
<path d="M871.835 62.1738C876.328 62.1738 882.294 60.406 885.167 54.9554L878.464 50.0939C877.285 52.0827 874.855 52.9666 872.498 52.9666C869.551 52.9666 866.752 51.4198 866.752 48.4735V46.7793H886.714V35.5833C886.714 26.3761 879.422 22.5459 871.982 22.5459C864.322 22.5459 856.44 26.818 856.44 36.0253V48.6208C856.44 57.6807 864.174 62.1738 871.835 62.1738ZM877.065 39.1926H866.752V35.8043C866.752 33.079 869.404 31.7531 872.056 31.7531C874.634 31.7531 877.065 33.079 877.065 35.7306V39.1926Z" fill="white"/>
<path d="M907.881 22.5459C903.093 22.5459 897.716 23.6507 893.002 25.4185V75.4323H903.314V60.848C905.229 61.7319 907.292 62.1738 909.502 62.1738C916.646 62.1738 923.718 58.1963 923.718 49.21V35.2887C923.718 25.2712 915.836 22.5459 907.881 22.5459ZM907.292 54.2924C905.819 54.2924 904.419 53.9978 903.314 53.4085V31.2375C904.493 30.6482 905.892 30.3536 907.439 30.3536C910.754 30.3536 913.479 31.6058 913.479 34.7731V49.21C913.479 52.672 910.607 54.2924 907.292 54.2924Z" fill="white"/>
<path d="M946.461 62.1738C951.764 62.1738 956.773 60.848 960.898 59.3748V23.2825H950.733V53.0403C949.554 53.4822 948.302 53.7032 947.05 53.7032C943.588 53.7032 940.642 51.9354 940.642 47.4423V23.2825H930.403V48.0315C930.403 58.8592 937.99 62.1738 946.461 62.1738Z" fill="white"/>
<path d="M985.177 22.5459C982.894 22.5459 980.831 22.9878 978.843 23.8717V9.3611H968.53V59.3012C973.245 61.069 978.622 62.1738 983.409 62.1738C991.438 62.1738 998.436 58.8592 999.246 48.9891V35.5097C999.246 27.5546 992.175 22.5459 985.177 22.5459ZM982.599 54.5871C982.378 54.5871 982.157 54.5871 981.936 54.5134C980.758 54.4398 979.726 54.2188 978.843 53.7768V31.6795C979.653 31.2375 980.684 30.9429 981.789 30.7956C982.157 30.7219 982.525 30.7219 982.894 30.7219C983.557 30.7219 984.293 30.7956 984.956 30.9429C987.019 31.5321 988.713 32.858 989.007 34.9941V49.9466C989.007 52.23 987.313 53.6295 985.251 54.2188C984.44 54.4398 983.557 54.5871 982.599 54.5871Z" fill="white"/>
<path d="M1020 62.1738C1020.66 62.1738 1021.33 62.1002 1022.14 62.0265V53.2612C1017.94 53.2612 1016.02 50.9042 1016.02 48.0315V9.28744H1005.79V48.0315C1005.79 55.9129 1010.21 62.1738 1020 62.1738Z" fill="white"/>
<path d="M1031.59 7.88794C1028.05 7.88794 1025.33 10.6869 1025.33 14.2225C1025.33 17.8318 1028.05 20.6308 1031.59 20.6308C1035.13 20.6308 1037.92 17.8318 1037.92 14.2225C1037.92 10.6869 1035.13 7.88794 1031.59 7.88794ZM1036.89 23.3561H1026.43V61.4373H1036.89V23.3561Z" fill="white"/>
<path d="M1059.14 62.1738C1064.74 62.1738 1071.3 59.4485 1074.02 51.7881L1065.04 48.8418C1064.08 51.7144 1061.5 52.9666 1059.14 52.9666C1056.56 52.9666 1054.06 51.4934 1054.06 48.6208V36.0253C1054.06 33.2999 1056.56 31.7531 1059.14 31.7531C1061.5 31.7531 1064 32.9316 1064.81 35.5833L1073.58 32.858C1071.66 25.0502 1064.52 22.5459 1059.14 22.5459C1051.56 22.5459 1043.82 27.039 1043.82 36.0989V48.6944C1043.82 57.7544 1051.56 62.1738 1059.14 62.1738Z" fill="white"/>
<path d="M451.501 100.073C451.501 103.461 454.477 105.17 457.423 105.17C460.369 105.17 463.286 103.461 463.286 100.073V94.4161C463.286 91.0278 460.369 89.3189 457.423 89.3189C454.477 89.3189 451.501 91.0278 451.501 94.4161V100.073ZM457.423 91.5581C459.073 91.5581 460.929 92.442 460.929 94.3571V100.102C460.929 101.988 459.073 102.931 457.423 102.931C455.685 102.931 453.858 101.988 453.858 100.102V94.3571C453.858 92.442 455.685 91.5581 457.423 91.5581Z" fill="white"/>
<path d="M496.111 89.3189C494.137 89.3189 492.134 89.7314 490.13 90.4091V110.208H492.487V104.316C493.637 104.905 494.756 105.141 496.023 105.141C498.999 105.141 501.945 103.373 501.945 100.044V94.3866C501.945 90.9983 499.028 89.3189 496.111 89.3189ZM496.053 102.901C494.845 102.901 493.637 102.666 492.487 102.224V91.9412C493.637 91.6171 494.903 91.5876 496.111 91.5876C497.85 91.5876 499.559 92.6188 499.559 94.3571V100.073C499.559 101.87 497.82 102.901 496.053 102.901Z" fill="white"/>
<path d="M530.722 98.4231H540.092V94.3866C540.092 90.9689 537.175 89.3189 534.258 89.3189C531.312 89.3189 528.336 90.9689 528.336 94.3866V100.102C528.336 103.52 531.312 105.17 534.258 105.17C536.468 105.17 538.707 104.051 539.797 101.811L537.735 100.927C537.116 102.342 535.643 102.99 534.258 102.99C532.461 102.99 530.722 102.135 530.722 100.279V98.4231ZM537.852 96.449H530.722V94.3277C530.722 92.4715 532.254 91.4697 534.258 91.4697C535.996 91.4697 537.852 92.501 537.852 94.2687V96.449Z" fill="white"/>
<path d="M578.402 94.3277C578.402 90.9394 575.574 89.4073 572.657 89.3189C570.742 89.3189 568.679 89.9082 566.705 90.5859V104.875H569.062V92.1769C569.917 91.8528 571.272 91.4992 572.657 91.4992C574.277 91.4992 576.075 92.3536 576.075 94.2393V104.875H578.402V94.3277Z" fill="white"/>
<path d="M634.898 100.102C634.898 103.52 637.815 105.082 640.732 105.17C642.706 105.17 644.709 104.758 646.713 104.08V84.2513H644.356V90.2912C643.266 89.5841 642.087 89.3484 640.791 89.3484C637.845 89.3484 634.898 91.1457 634.898 94.4455V100.102ZM640.732 103.078C638.994 103.078 637.285 101.841 637.285 100.073V94.4455C637.285 92.442 639.023 91.4403 640.791 91.4403C641.94 91.4403 643.207 91.7055 644.356 92.2947V102.636C643.207 102.99 641.91 103.078 640.732 103.078Z" fill="white"/>
<path d="M682.474 96.2722C681.325 95.7714 680.087 95.5357 678.82 95.5357C675.874 95.5357 673.075 97.0383 673.075 100.397C673.075 103.638 675.461 105.17 678.526 105.17H678.85C679.763 105.17 680.706 105.082 681.649 104.934C682.709 104.787 683.77 104.522 684.831 104.139V94.2393C684.831 90.9394 682.002 89.3189 679.056 89.3189C677.141 89.3189 675.049 90.1439 673.635 91.7055L675.108 93.1491C676.021 92.0001 677.494 91.4992 678.879 91.4992C680.676 91.4992 682.474 92.4715 682.474 94.2393V96.2722ZM679.056 97.3918C680.323 97.3918 681.531 97.657 682.474 97.9811V102.872C681.855 103.019 681.207 103.108 680.529 103.137C680.087 103.167 679.675 103.167 679.233 103.167H678.585C676.787 103.137 675.402 102.371 675.402 100.397C675.402 98.1873 677.17 97.3918 679.056 97.3918Z" fill="white"/>
<path d="M717.16 105.17C717.484 105.17 717.749 105.141 718.073 105.111V103.078C717.779 103.137 717.514 103.167 717.248 103.167C716.954 103.167 716.689 103.137 716.423 103.049C714.98 102.695 714.155 101.487 714.155 100.161V91.7938H717.278V89.6136H714.155V85.7539H711.827V100.161C711.827 103.314 714.066 105.17 717.16 105.17Z" fill="white"/>
<path d="M752.374 96.2722C751.225 95.7714 749.987 95.5357 748.72 95.5357C745.774 95.5357 742.975 97.0383 742.975 100.397C742.975 103.638 745.362 105.17 748.426 105.17H748.75C749.663 105.17 750.606 105.082 751.549 104.934C752.61 104.787 753.67 104.522 754.731 104.139V94.2393C754.731 90.9394 751.902 89.3189 748.956 89.3189C747.041 89.3189 744.949 90.1439 743.535 91.7055L745.008 93.1491C745.921 92.0001 747.395 91.4992 748.779 91.4992C750.577 91.4992 752.374 92.4715 752.374 94.2393V96.2722ZM748.956 97.3918C750.223 97.3918 751.431 97.657 752.374 97.9811V102.872C751.755 103.019 751.107 103.108 750.429 103.137C749.987 103.167 749.575 103.167 749.133 103.167H748.485C746.687 103.137 745.303 102.371 745.303 100.397C745.303 98.1873 747.07 97.3918 748.956 97.3918Z" fill="white"/>
<path d="M817.554 89.3189C815.579 89.3189 813.576 89.7314 811.573 90.4091V110.208H813.93V104.316C815.079 104.905 816.198 105.141 817.465 105.141C820.441 105.141 823.387 103.373 823.387 100.044V94.3866C823.387 90.9983 820.47 89.3189 817.554 89.3189ZM817.495 102.901C816.287 102.901 815.079 102.666 813.93 102.224V91.9412C815.079 91.6171 816.346 91.5876 817.554 91.5876C819.292 91.5876 821.001 92.6188 821.001 94.3571V100.073C821.001 101.87 819.262 102.901 817.495 102.901Z" fill="white"/>
<path d="M849.749 100.073C849.749 103.461 852.724 105.17 855.671 105.17C858.617 105.17 861.534 103.461 861.534 100.073V94.4161C861.534 91.0278 858.617 89.3189 855.671 89.3189C852.724 89.3189 849.749 91.0278 849.749 94.4161V100.073ZM855.671 91.5581C857.321 91.5581 859.177 92.442 859.177 94.3571V100.102C859.177 101.988 857.321 102.931 855.671 102.931C853.932 102.931 852.106 101.988 852.106 100.102V94.3571C852.106 92.442 853.932 91.5581 855.671 91.5581Z" fill="white"/>
<path d="M894.094 91.5581C894.536 91.5581 894.89 91.5581 895.332 91.6465V89.4368C894.89 89.3484 894.448 89.3189 894.006 89.3189C891.324 89.3189 888.29 90.9689 888.29 94.4161V104.875H890.647V94.4161C890.647 92.5304 892.238 91.5581 894.094 91.5581Z" fill="white"/>
<path d="M926.372 105.17C926.696 105.17 926.961 105.141 927.285 105.111V103.078C926.99 103.137 926.725 103.167 926.46 103.167C926.165 103.167 925.9 103.137 925.635 103.049C924.191 102.695 923.366 101.487 923.366 100.161V91.7938H926.49V89.6136H923.366V85.7539H921.039V100.161C921.039 103.314 923.278 105.17 926.372 105.17Z" fill="white"/>
<path d="M961.585 96.2722C960.436 95.7714 959.199 95.5357 957.932 95.5357C954.986 95.5357 952.187 97.0383 952.187 100.397C952.187 103.638 954.573 105.17 957.637 105.17H957.961C958.875 105.17 959.818 105.082 960.76 104.934C961.821 104.787 962.882 104.522 963.943 104.139V94.2393C963.943 90.9394 961.114 89.3189 958.168 89.3189C956.253 89.3189 954.161 90.1439 952.746 91.7055L954.22 93.1491C955.133 92.0001 956.606 91.4992 957.991 91.4992C959.788 91.4992 961.585 92.4715 961.585 94.2393V96.2722ZM958.168 97.3918C959.435 97.3918 960.643 97.657 961.585 97.9811V102.872C960.967 103.019 960.319 103.108 959.641 103.137C959.199 103.167 958.786 103.167 958.344 103.167H957.696C955.899 103.137 954.514 102.371 954.514 100.397C954.514 98.1873 956.282 97.3918 958.168 97.3918Z" fill="white"/>
<path d="M996.125 102.96C994.15 102.96 993.296 101.87 993.296 100.191V84.2807H990.939V100.191C990.939 103.343 992.795 105.17 996.125 105.17V102.96Z" fill="white"/>
<path d="M391 8L391 118" stroke="white" stroke-width="2"/>
</svg>
