<svg width="331" height="122" viewBox="0 0 331 122" fill="none" xmlns="http://www.w3.org/2000/svg">
<path d="M179.051 15.5755C168.342 15.5755 159.659 23.8095 159.659 34.8827C159.659 45.956 168.342 54.1899 179.051 54.1899C189.759 54.1899 198.442 45.956 198.442 34.8827C198.442 23.8095 189.759 15.5755 179.051 15.5755ZM179.051 18.9827C187.733 18.9827 194.68 25.5131 194.68 34.5988C194.68 43.6845 187.733 50.2149 179.051 50.2149C170.368 50.2149 163.421 43.6845 163.421 34.5988C163.421 25.5131 170.368 18.9827 179.051 18.9827ZM227.385 15.5755C220.149 15.5755 214.65 19.2666 211.466 25.2291V16.4273H207.704V70.09H211.756V45.0776C214.65 50.7561 220.149 54.1899 227.385 54.1899C237.804 54.1899 245.04 45.956 245.04 34.8827C245.04 23.8095 237.804 15.5755 227.385 15.5755ZM226.806 50.4988C218.123 50.4988 211.466 43.9685 211.466 34.8827C211.466 25.797 218.123 19.2666 226.806 19.2666C235.489 19.2666 241.567 25.797 241.567 34.8827C241.567 43.9685 235.489 50.4988 226.806 50.4988ZM271.957 15.5755C260.959 15.5755 252.855 23.5256 252.855 34.8827C252.855 46.2399 260.959 53.906 271.957 53.906C279.482 53.906 286.139 50.2149 289.322 43.1167H285.56C282.955 47.9435 278.035 50.4988 271.957 50.4988C263.274 50.4988 256.907 45.1042 256.328 36.0184H290.191C290.48 24.0934 283.244 15.5755 271.957 15.5755ZM271.957 18.9827C280.35 18.9827 285.849 24.6613 286.718 32.6113H256.617C257.485 24.6613 263.563 18.9827 271.957 18.9827ZM317.397 15.5755C310.161 15.5755 305.241 19.2666 302.926 24.9452V16.4273H299.163V53.3381H302.926V34.5988C302.926 25.5131 307.846 18.9827 316.529 18.9827C323.185 18.9827 327.237 22.6738 327.237 30.0559V53.0542H331V29.772C330.711 20.6863 325.79 15.5755 317.397 15.5755Z" fill="white"/>
<path d="M197.871 54.5144V78.9722C194.912 73.0788 188.995 68.9534 181.599 68.9534C170.949 68.9534 163.553 77.4989 163.553 88.9911C163.553 100.483 170.949 109.029 181.895 109.029C189.291 109.029 194.912 105.198 198.167 99.0099V108.145H202.013V54.5144H197.871ZM182.191 105.198C173.316 105.198 167.103 98.4206 167.103 88.9911C167.103 79.5616 173.316 72.7841 182.191 72.7841C191.066 72.7841 197.871 79.5616 197.871 88.9911C197.871 98.4206 191.066 105.198 182.191 105.198ZM245.501 69.8374V78.9722C242.543 73.0788 236.626 68.9534 229.23 68.9534C218.58 68.9534 211.184 77.4989 211.184 88.9911C211.184 100.483 218.58 109.029 229.526 109.029C236.922 109.029 242.543 105.198 245.501 99.0099V108.145H249.347V69.8374H245.501ZM229.822 105.198C220.946 105.198 214.734 98.4206 214.734 88.9911C214.734 79.5616 220.946 72.7841 229.822 72.7841C238.697 72.7841 245.501 79.5616 245.501 88.9911C245.501 98.4206 238.697 105.198 229.822 105.198ZM286.919 103.43C284.257 104.609 281.298 105.198 278.34 105.198C271.24 105.198 267.985 100.778 267.985 93.1165V73.0788H286.624V69.5427H267.985V59.2292L264.139 60.1132V69.8374H256.448V73.3734H264.139V93.7058C264.139 103.43 269.169 109.029 277.748 109.029C281.594 109.029 285.44 107.85 287.511 106.671L286.919 103.43ZM327.154 69.8374V78.9722C324.196 73.0788 318.279 68.9534 310.883 68.9534C300.232 68.9534 292.836 77.4989 292.836 88.9911C292.836 100.483 300.232 109.029 311.179 109.029C318.279 109.029 324.196 104.903 327.154 99.0099V108.145H331V69.8374H327.154ZM311.474 105.198C302.599 105.198 296.386 98.4206 296.386 88.9911C296.386 79.5616 302.599 72.7841 311.474 72.7841C320.35 72.7841 327.154 79.5616 327.154 88.9911C327.154 98.4206 320.35 105.198 311.474 105.198Z" fill="white"/>
<path d="M69.7047 51.3991C73.5988 55.293 76.3247 59.5763 78.6612 64.6383C80.6082 69.7004 81.7765 74.7624 81.7765 80.2139C81.7765 91.5061 77.1035 101.63 69.7047 109.029C62.3059 116.427 52.1812 121.1 40.8882 121.1C29.5953 121.1 19.4706 116.427 12.0718 109.029C4.67294 102.02 0 91.5061 0 80.6033C0 69.7004 4.67294 59.1869 12.0718 51.7885C19.4706 44.3901 29.5953 39.7174 40.8882 39.7174C46.34 39.7174 51.4024 40.8856 56.4647 42.8326C61.5271 44.7795 65.8106 47.8946 69.7047 51.3991ZM74.3776 66.5853C72.4306 62.302 70.0941 58.0187 66.5894 54.9036C63.0847 51.7885 59.1906 48.6734 54.9071 47.1158C50.6235 45.1689 45.9506 44.3901 40.8882 44.3901C30.7635 44.3901 21.8071 48.284 15.1871 54.9036C8.56706 61.5232 4.67294 70.4792 4.67294 80.6033C4.67294 90.7274 8.56706 99.6833 15.1871 106.303C21.8071 112.923 30.7635 116.816 40.8882 116.816C51.0129 116.816 59.9694 112.923 66.5894 106.303C73.2094 99.6833 77.1035 90.7274 77.1035 80.6033C77.1035 75.5412 76.3247 70.8685 74.3776 66.5853Z" fill="white"/>
<path d="M130.842 51.3995C134.736 55.2934 137.462 59.5767 139.799 64.6387C141.746 69.7008 142.914 74.7628 142.914 80.2142C142.914 91.5065 138.241 101.631 130.842 109.029C123.444 116.427 113.319 121.1 102.026 121.1C93.0694 121.1 84.5023 117.985 77.8823 113.312C78.2718 112.923 78.6612 112.533 78.6612 112.533C79.44 111.755 80.2188 110.976 80.6082 110.197C86.4494 114.48 93.8482 116.817 101.636 116.817C111.761 116.817 120.718 112.923 127.338 106.303C133.958 99.6837 137.852 90.7277 137.852 80.6036C137.852 75.931 137.073 70.8689 135.126 66.5856C133.179 62.3024 130.842 58.0191 127.338 54.904C123.833 51.3995 119.939 48.6738 115.655 47.1162C111.372 45.1693 106.699 44.3905 101.636 44.3905C93.8482 44.3905 86.4494 46.7268 80.6082 51.0101C79.8294 50.2313 79.0506 49.4525 78.6612 48.6738C78.2718 48.2844 77.8823 47.895 77.8823 47.895C84.5023 42.8329 93.0694 40.1072 102.026 40.1072C107.478 40.1072 112.54 41.2754 117.602 43.2223C122.275 44.7799 126.948 47.895 130.842 51.3995Z" fill="white"/>
<path d="M35.8259 35.8238C36.2153 32.7086 36.9941 29.5935 38.1623 26.8678C40.1094 22.5845 42.4459 18.3013 45.9506 15.1862C49.4553 12.071 53.3494 8.95594 57.6329 7.39838C61.9164 5.45144 66.5894 4.67266 71.6517 4.67266C81.7764 4.67266 90.7329 8.56655 97.3529 15.1862C102.805 20.6376 106.309 27.6466 107.478 35.4344C109.035 35.8238 110.593 36.2131 112.151 36.6025C110.982 26.8678 106.699 18.3013 100.468 12.071C93.0694 4.67266 82.9447 0 71.6517 0C66.2 0 61.1376 1.16817 56.0753 3.11511C51.4023 4.67266 46.7294 7.78777 43.2247 11.6817C39.3306 15.5755 36.6047 19.8588 34.2682 24.9209C32.7106 28.8148 31.5423 32.7086 31.1529 36.9919C32.7106 36.6025 34.2682 36.2131 35.8259 35.8238Z" fill="white"/>
</svg>
