<svg width="19" height="19" viewBox="0 0 19 19" fill="none" xmlns="http://www.w3.org/2000/svg">
<g clip-path="url(#clip0)">
<path d="M18.8234 9.3877C18.8234 4.42512 14.7859 0.387695 9.82336 0.387695C4.86078 0.387695 0.823364 4.42512 0.823364 9.3877C0.823364 14.3499 4.86078 18.3877 9.82336 18.3877C14.7863 18.3877 18.8234 14.3506 18.8234 9.3877ZM10.7072 9.37392C10.7072 9.84592 10.3247 10.2277 9.85345 10.2277C9.38181 10.2277 8.99935 9.8452 8.99935 9.37392V4.93192C8.99935 4.46028 9.38181 4.07782 9.85345 4.07782C10.3251 4.07782 10.7072 4.45992 10.7072 4.93192V9.37392ZM15.635 9.40256C15.635 12.6069 13.0281 15.2134 9.82336 15.2134C6.61866 15.2134 4.01176 12.6069 4.01176 9.40256C4.01176 7.84915 4.61681 6.3889 5.71598 5.29155C5.88274 5.12479 6.10098 5.04177 6.31958 5.04177C6.53818 5.04177 6.75714 5.12515 6.9239 5.29227C7.25743 5.62616 7.25706 6.16668 6.92318 6.5002C6.14774 7.27527 5.72033 8.30593 5.72033 9.40256C5.72033 11.6647 7.56086 13.5045 9.82336 13.5045C12.0859 13.5045 13.926 11.6647 13.926 9.40256C13.926 8.30665 13.4997 7.27636 12.725 6.50129C12.3915 6.1674 12.3918 5.62688 12.7254 5.293C13.0592 4.95911 13.5998 4.95984 13.9337 5.29336C15.0303 6.39108 15.635 7.8506 15.635 9.40256Z" fill="#757575"/>
</g>
<defs>
<clipPath id="clip0">
<rect width="18" height="18" fill="white" transform="translate(0.823364 0.387695)"/>
</clipPath>
</defs>
</svg>
