<svg width="20" height="24" viewBox="0 0 20 24" fill="none" xmlns="http://www.w3.org/2000/svg">
<path d="M17.6473 10.0972C17.6473 6.48505 15.1427 3.461 11.7635 2.66238V1.86072C11.7635 0.885569 10.9772 0.0961914 10 0.0961914C9.02279 0.0961914 8.23651 0.885569 8.23651 1.86072V2.66238C4.85734 3.461 2.3527 6.48603 2.3527 10.0972V16.5671L0 18.9178V20.0941H20V18.9178L17.6473 16.5671V10.0972ZM10 23.6252C10.1653 23.6252 10.3172 23.615 10.4722 23.578C11.2338 23.4261 11.8712 22.8964 12.1638 22.1882C12.2818 21.9089 12.3537 21.602 12.3537 21.2715H7.64627C7.64627 22.5659 8.70562 23.6252 10 23.6252Z" fill="#9B9B9B"/>
</svg>
