<svg width="16" height="15" viewBox="0 0 16 15" fill="none" xmlns="http://www.w3.org/2000/svg">
<g clip-path="url(#clip0)">
<path d="M15.0208 13.6626L11.4507 9.94962C12.3686 8.85844 12.8716 7.48552 12.8716 6.05624C12.8716 2.71688 10.1547 0 6.81534 0C3.47598 0 0.759094 2.71688 0.759094 6.05624C0.759094 9.3956 3.47598 12.1125 6.81534 12.1125C8.06898 12.1125 9.26364 11.7344 10.285 11.0166L13.8822 14.7578C14.0325 14.9139 14.2348 15 14.4515 15C14.6566 15 14.8512 14.9218 14.9989 14.7796C15.3128 14.4776 15.3228 13.9768 15.0208 13.6626ZM6.81534 1.57989C9.28365 1.57989 11.2917 3.58793 11.2917 6.05624C11.2917 8.52456 9.28365 10.5326 6.81534 10.5326C4.34702 10.5326 2.33898 8.52456 2.33898 6.05624C2.33898 3.58793 4.34702 1.57989 6.81534 1.57989Z" fill="#666666"/>
</g>
<defs>
<clipPath id="clip0">
<rect width="15" height="15" fill="white" transform="translate(0.5)"/>
</clipPath>
</defs>
</svg>
