<svg width="42" height="42" viewBox="0 0 42 42" fill="none" xmlns="http://www.w3.org/2000/svg">
<path d="M20.7254 15.421C21.1205 15.576 21.5081 15.1967 21.3771 14.7932C20.4782 12.0231 17.2235 10.9897 14.1979 13.4473C12.6064 14.7402 12.0084 15.0149 11.9933 15.0219C13.0425 16.0709 14.2411 19.591 16.857 19.9803C19.7386 20.5028 22.289 17.6677 20.2024 16.3704C18.8301 15.5173 17.2145 15.0218 15.4826 15.0218C17.2982 14.6125 19.1108 14.788 20.7254 15.421Z" fill="#616161"/>
<path d="M33.7737 13.4472C28.551 9.20483 25.2202 15.895 27.2906 15.2319C28.7611 14.7609 30.3686 14.6583 31.9811 15.0217C29.249 15.0217 26.7306 16.2738 25.0515 18.3117C25.1894 15.109 25.398 13.1043 25.6398 11.6131C27.0354 11.5651 28.8954 10.4381 29.9169 8.46614C31.6779 5.31461 30.8612 2.08325 30.5984 0.0442505C29.2224 1.38419 23.2116 -0.185865 20.8287 3.89737C19.7761 5.7011 20.0821 7.896 21.1894 9.50222C21.5399 10.0107 22.378 9.76672 22.4019 9.14964C22.5059 6.46528 23.8419 4.43715 26.3325 3.31384C25.2149 4.7619 24.4811 6.38311 24.102 8.05875C23.5127 10.669 22.8972 12.3813 22.6712 20.701C22.6483 21.5447 23.3318 22.2431 24.1758 22.2325C24.7868 22.2248 25.3102 21.8371 25.5452 21.2731C25.9025 20.4152 26.4842 19.5273 27.4307 18.7139C28.3302 19.7081 29.6989 20.2371 31.1151 19.9802C33.7198 19.5926 34.9354 16.0648 35.9787 15.0216C35.9634 15.0149 35.3653 14.7402 33.7737 13.4472Z" fill="#616161"/>
<path d="M41.4513 23.8133C39.8186 22.7056 38.0416 23.495 37.2255 23.9662L26.9842 31.4618L20.9877 31.4631L19.4886 29.964H24.9956C26.6519 29.964 28.5068 28.8852 28.5068 26.9651C28.5068 24.9265 26.6519 23.9662 24.9956 23.9662H22.9319C21.3989 23.9662 19.6073 24.1029 18.3441 23.4267C17.144 22.816 15.762 22.4684 14.2867 22.4684C11.8095 22.4684 9.59242 23.456 8.07315 25.0134L0 32.9609L8.99474 41.9556L11.993 37.4583H26.1612C27.6722 37.4583 29.1308 36.904 30.2604 35.9005L41.5538 25.8681C42.1817 25.3104 42.1463 24.2849 41.4513 23.8133Z" fill="#616161"/>
</svg>
