<svg width="30" height="30" viewBox="0 0 30 30" fill="none" xmlns="http://www.w3.org/2000/svg">
<path d="M26.783 22.3915L22.007 20.0035C21.39 19.695 21 19.064 21 18.374V16.5C21.134 16.3475 21.288 16.151 21.452 15.919C22.103 15 22.595 13.9885 22.9365 12.927C23.549 12.7385 24 12.1725 24 11.5V9.5C24 9.06 23.8045 8.6665 23.5 8.3915V5.5C23.5 5.5 24.0935 1 18 1C11.906 1 12.5 5.5 12.5 5.5V8.3915C12.1955 8.6665 12 9.06 12 9.5V11.5C12 12.027 12.277 12.4905 12.6915 12.7585C13.191 14.9345 14.5 16.5 14.5 16.5V18.3275C14.5 18.994 14.136 19.6075 13.5505 19.9265L9.09 22.36C7.8015 23.0625 7 24.413 7 25.8805V27.5H29V25.9785C29 24.4595 28.1415 23.071 26.783 22.3915Z" fill="#8697CB"/>
<path d="M9.09 22.36L12.063 20.7385C12.046 20.722 12.0605 20.717 12.0955 20.7205L13.5505 19.927C14.136 19.6075 14.5 18.9945 14.5 18.3275V16.5C14.5 16.5 13.969 15.8625 13.454 14.8385C13.454 14.838 13.4535 14.8375 13.4535 14.837C13.386 14.703 13.3195 14.5615 13.254 14.415C13.245 14.3945 13.236 14.375 13.227 14.3545C13.1605 14.203 13.0955 14.0465 13.034 13.8825C13.03 13.872 13.0265 13.8605 13.0225 13.85C12.9685 13.705 12.918 13.5555 12.8695 13.402C12.8565 13.36 12.8435 13.3185 12.831 13.2765C12.7805 13.1075 12.733 12.9355 12.692 12.7575C12.277 12.4905 12 12.027 12 11.5V9.5C12 9.06 12.1955 8.6665 12.5 8.3915V5.5675C11.7935 5.0195 10.6985 4.5 9 4.5C4.2185 4.5 4 8.5 4 8.5V10.9975C3.737 11.235 3.5 11.5745 3.5 11.9545V13.682C3.5 14.1375 3.7395 14.5375 4.097 14.769C4.5285 16.648 5.9775 18 5.9775 18V19.5785C5.9775 20.154 5.663 20.684 5.1575 20.9595L1.805 23.061C0.6925 23.668 0 24.834 0 26.1015V27.5H7V25.8805C7 24.413 7.8015 23.0625 9.09 22.36Z" fill="#556080"/>
<path d="M24 29C27.3137 29 30 26.3137 30 23C30 19.6863 27.3137 17 24 17C20.6863 17 18 19.6863 18 23C18 26.3137 20.6863 29 24 29Z" fill="#26B999"/>
<path d="M27.2855 20.0898C27.058 19.9318 26.747 19.9878 26.5895 20.2148L23.7915 24.2348L21.817 22.6138C21.604 22.4383 21.2885 22.4698 21.1135 22.6833C20.938 22.8968 20.969 23.2118 21.183 23.3868L23.576 25.3513C23.666 25.4248 23.778 25.4648 23.893 25.4648C23.9155 25.4648 23.9385 25.4633 23.9615 25.4603C24.0995 25.4408 24.2235 25.3653 24.3035 25.2508L27.4105 20.7863C27.568 20.5593 27.512 20.2478 27.2855 20.0898Z" fill="white"/>
</svg>
