<svg width="46" height="46" viewBox="0 0 46 46" fill="none" xmlns="http://www.w3.org/2000/svg">
<path d="M22.9997 14.0768C25.4878 14.0768 27.5049 12.0598 27.5049 9.57161C27.5049 7.08346 25.4878 5.06642 22.9997 5.06642C20.5115 5.06642 18.4945 7.08346 18.4945 9.57161C18.4945 12.0598 20.5115 14.0768 22.9997 14.0768Z" fill="#444444"/>
<path d="M29.7484 26.3219L28.7257 18.3567C28.6108 17.2011 27.6467 16.3294 26.4866 16.3294H25.2522C24.9526 16.3294 24.6665 16.4488 24.4548 16.6583L22.9996 18.1134L21.5444 16.6583C21.3327 16.4488 21.0466 16.3294 20.747 16.3294H19.5149C18.3525 16.3294 17.3884 17.2011 17.2758 18.3274L16.2508 26.3241C16.2103 26.644 16.3094 26.9684 16.5234 27.2094C16.7374 27.4527 17.0438 27.5924 17.3681 27.5924H18.5845L19.5261 39.0806C19.6387 40.2339 20.6051 41.1079 21.7674 41.1079H24.234C25.3964 41.1079 26.3605 40.2339 26.4776 39.0603L27.4169 27.5924H28.6311C28.9555 27.5924 29.2618 27.4527 29.4758 27.2094C29.6921 26.9684 29.7912 26.644 29.7484 26.3219Z" fill="#444444"/>
<path d="M34.2626 14.0768C36.7507 14.0768 38.7678 12.0598 38.7678 9.57161C38.7678 7.08346 36.7507 5.06642 34.2626 5.06642C31.7744 5.06642 29.7574 7.08346 29.7574 9.57161C29.7574 12.0598 31.7744 14.0768 34.2626 14.0768Z" fill="#444444"/>
<path d="M11.7366 5.06642C9.25202 5.06642 7.23145 7.087 7.23145 9.57161C7.23145 12.0562 9.25202 14.0768 11.7366 14.0768C14.219 14.0768 16.2418 12.0562 16.2418 9.57161C16.2418 7.087 14.219 5.06642 11.7366 5.06642Z" fill="#444444"/>
<path d="M41.0113 26.3219L39.9887 18.359C39.8738 17.2011 38.9119 16.3294 37.7496 16.3294H36.5152C36.2156 16.3294 35.9295 16.4488 35.7177 16.6583L34.2626 18.1134L32.8074 16.6583C32.5956 16.4488 32.3096 16.3294 32.0122 16.3294H30.7778C30.6381 16.3294 30.512 16.3789 30.3791 16.4037C30.6697 16.9173 30.8972 17.4737 30.9648 18.0977L31.9852 26.0358C32.1113 27.0022 31.8095 27.9753 31.1607 28.7074C30.8544 29.0588 30.4624 29.3066 30.0435 29.5003L30.7913 36.828C30.9062 37.9836 31.8703 38.8553 33.0326 38.8553H35.4992C36.6616 38.8553 37.6257 37.9813 37.7428 36.8077L38.6799 27.5924H39.894C40.2184 27.5924 40.5248 27.4527 40.7388 27.2094C40.955 26.9684 41.0541 26.644 41.0113 26.3219Z" fill="#444444"/>
<path d="M14.8317 28.6961C14.192 27.973 13.8947 27.0022 14.0163 26.0403L15.0412 18.0414C15.0998 17.4422 15.3206 16.9015 15.6021 16.4015C15.476 16.3789 15.3566 16.3294 15.2237 16.3294H13.9893C13.6897 16.3294 13.4036 16.4488 13.1919 16.6583L11.7367 18.1134L10.2815 16.6583C10.0698 16.4488 9.78369 16.3294 9.48635 16.3294H8.25185C7.08952 16.3294 6.12541 17.2011 6.01278 18.3274L4.98785 26.3241C4.9473 26.644 5.04642 26.9684 5.26041 27.2094C5.47441 27.4527 5.78301 27.5924 6.10513 27.5924H7.32153L8.26312 36.828C8.37575 37.9813 9.34211 38.8553 10.5044 38.8553H12.971C14.1334 38.8553 15.0975 37.9813 15.2146 36.8077L15.9625 29.498C15.5413 29.3021 15.1471 29.052 14.8317 28.6961Z" fill="#444444"/>
</svg>
