<svg width="50" height="50" viewBox="0 0 50 50" fill="none" xmlns="http://www.w3.org/2000/svg">
<g clip-path="url(#clip0)">
<path d="M46.4323 17.2758C46.2301 15.7558 46.2016 13.138 47.6134 12.2589C47.6386 12.2428 47.6574 12.2195 47.6795 12.1995C48.8337 11.8304 49.6324 11.3123 49.0054 10.6151L31.9793 5.48499L4.41024 9.31796C4.41024 9.31796 1.25323 9.7692 1.53526 14.674C1.68835 17.3435 2.52562 18.6546 3.25783 19.2998L0.995533 19.9816C0.367624 20.6787 1.16624 21.197 2.32059 21.5655C2.34253 21.5861 2.36103 21.6092 2.38669 21.6254C3.79755 22.5052 3.77039 25.1227 3.56746 26.643C-1.50103 28.0822 0.318382 28.5512 0.318382 28.5512L1.43021 28.8202C0.648154 29.5269 -0.128526 30.8671 0.0169612 33.4087C0.299133 38.3126 2.89224 38.651 2.89224 38.651L20.9333 44.515L48.1641 37.9193C48.1641 37.9193 49.9841 37.4495 44.9143 36.0102C44.7105 34.4923 44.6821 31.875 46.0963 30.993C46.1222 30.9773 46.1412 30.9536 46.1622 30.9339C47.3166 30.5647 48.1146 30.0471 47.4874 29.35L46.3038 28.9926C47.0932 28.5166 48.2789 27.2725 48.4646 24.0411C48.5928 21.8183 48.013 20.5165 47.3418 19.7501L49.6812 19.184C49.6814 19.1849 51.5014 18.7151 46.4323 17.2758ZM23.6553 17.213L28.2346 16.2718L43.7097 13.0917L46.0152 12.6175C45.2785 13.9658 45.3094 15.8111 45.4313 16.997C45.4581 17.2653 45.4888 17.5104 45.5186 17.6966L42.9951 18.324L23.4629 23.1831L23.6553 17.213ZM3.98497 21.9854L6.29024 22.4596L21.1519 25.5147L22.4503 25.7806L26.3438 26.5809L26.5359 32.5511L6.46095 27.5566L4.48187 27.0648C4.51096 26.8783 4.5417 26.6336 4.56961 26.3645C4.69077 25.1794 4.72226 23.3338 3.98497 21.9854ZM3.08936 14.4379C3.06146 13.1333 3.29394 12.1898 3.76383 11.7102C4.06286 11.404 4.41576 11.3403 4.65779 11.3403C4.78567 11.3403 4.87774 11.3581 4.88401 11.3581L16.7628 15.2307L22.6893 17.163L22.4949 23.1748L5.8687 18.5136L4.9913 18.2678C4.95906 18.2587 4.91534 18.2524 4.88162 18.2509C4.81313 18.246 3.16934 18.0947 3.08936 14.4379ZM20.9763 41.9104L3.47315 37.0032C3.44077 36.9938 3.3975 36.9876 3.36377 36.9859C3.29409 36.9813 1.64956 36.8301 1.57002 33.1743C1.54167 31.868 1.77535 30.9254 2.24434 30.4454C2.54412 30.1392 2.89717 30.0755 3.13875 30.0755C3.26693 30.0755 3.3587 30.0926 3.36542 30.0926C3.36542 30.0926 3.36616 30.0926 3.36542 30.0926L21.1695 35.8984L20.9763 41.9104ZM43.9119 35.7317C43.9395 36.0009 43.9702 36.2455 44 36.432L21.9438 41.9189L22.1366 35.9487L26.852 34.9792L27.5484 35.1477L30.1586 34.2994L42.1902 31.827L44.4966 31.3525C43.7592 32.7007 43.7898 34.5466 43.9119 35.7317ZM45.1268 27.618C45.0866 27.6189 45.0465 27.6242 45.0088 27.6362L43.3453 28.1019L27.5061 32.5432L27.3124 26.5314L32.5091 24.8364L45.0922 20.7327C45.0938 20.732 45.7541 20.5853 46.2388 21.0782C46.7079 21.5578 46.9407 22.5013 46.9132 23.8059C46.8312 27.4614 45.1866 27.6133 45.1268 27.618Z" fill="#616161"/>
</g>
<defs>
<clipPath id="clip0">
<rect width="50" height="50" fill="white"/>
</clipPath>
</defs>
</svg>
