<svg width="46" height="46" viewBox="0 0 46 46" fill="none" xmlns="http://www.w3.org/2000/svg">
<path d="M18.0628 29.1314C18.6611 29.366 19.248 28.7917 19.0497 28.1807C17.6885 23.9861 12.7602 22.4214 8.17878 26.1428C5.76889 28.1005 4.8633 28.5165 4.84045 28.527C6.42917 30.1154 8.24418 35.4457 12.2052 36.0352C16.5686 36.8263 20.4304 32.5334 17.2709 30.569C15.1929 29.2772 12.7465 28.5268 10.124 28.5268C12.8733 27.9071 15.6179 28.1729 18.0628 29.1314Z" fill="#444444"/>
<path d="M37.8209 26.1425C29.9124 19.7187 24.8689 29.8491 28.0039 28.8449C30.2305 28.1317 32.6647 27.9764 35.1064 28.5267C30.9694 28.5267 27.1559 30.4226 24.6134 33.5085C24.8222 28.6589 25.1381 25.6234 25.5042 23.3653C27.6175 23.2927 30.434 21.5862 31.9807 18.6001C34.6472 13.828 33.4107 8.93502 33.0127 5.84753C30.9291 7.87649 21.8274 5.49909 18.2192 11.682C16.6254 14.4133 17.0886 17.7368 18.7653 20.169C19.2961 20.9389 20.5651 20.5695 20.6013 19.6351C20.7588 15.5704 22.7818 12.4994 26.5531 10.7984C24.8608 12.9911 23.7497 15.446 23.1756 17.9833C22.2834 21.9358 21.3514 24.5285 21.0092 37.1263C20.9744 38.4039 22.0094 39.4615 23.2874 39.4454C24.2126 39.4338 25.0051 38.8467 25.3609 37.9926C25.9021 36.6936 26.7828 35.3492 28.216 34.1174C29.578 35.6229 31.6506 36.4239 33.795 36.035C37.7391 35.4481 39.5798 30.1062 41.1596 28.5266C41.1365 28.5164 40.2307 28.1004 37.8209 26.1425Z" fill="#444444"/>
</svg>
