<svg width="42" height="38" viewBox="0 0 42 38" fill="none" xmlns="http://www.w3.org/2000/svg">
<path d="M15.5528 25.6887C16.2129 25.9476 16.8605 25.314 16.6417 24.6398C15.1399 20.012 9.70259 18.2857 4.64796 22.3914C1.98917 24.5513 0.990045 25.0103 0.964844 25.0219C2.71765 26.7744 4.72012 32.6551 9.09025 33.3055C13.9043 34.1783 18.165 29.4421 14.6791 27.2748C12.3866 25.8496 9.6874 25.0217 6.79413 25.0217C9.82734 24.338 12.8554 24.6312 15.5528 25.6887Z" fill="#616161"/>
<path d="M37.3516 22.3911C28.6264 15.3038 23.0619 26.4806 26.5207 25.3726C28.9773 24.5858 31.6629 24.4144 34.3567 25.0216C29.7925 25.0216 25.5852 27.1132 22.78 30.5179C23.0104 25.1674 23.3589 21.8184 23.7629 19.327C26.0944 19.2469 29.2018 17.3642 30.9082 14.0697C33.8502 8.80472 32.4859 3.40636 32.0468 -1.52588e-05C29.7481 2.2385 19.7063 -0.38445 15.7254 6.43707C13.967 9.4504 14.4781 13.1172 16.3279 15.8006C16.9135 16.6501 18.3136 16.2425 18.3535 15.2116C18.5273 10.727 20.7592 7.33883 24.9201 5.46221C23.053 7.88136 21.8271 10.5898 21.1938 13.3891C20.2094 17.7499 19.1811 20.6104 18.8036 34.5094C18.7652 35.9189 19.9071 37.0857 21.3171 37.068C22.3378 37.0552 23.2122 36.4074 23.6048 35.4651C24.2018 34.032 25.1735 32.5487 26.7548 31.1897C28.2574 32.8506 30.544 33.7344 32.9099 33.3054C37.2614 32.6578 39.2922 26.7642 41.0352 25.0214C41.0097 25.0101 40.0104 24.5512 37.3516 22.3911Z" fill="#616161"/>
</svg>
