<svg width="42" height="42" viewBox="0 0 42 42" fill="none" xmlns="http://www.w3.org/2000/svg">
<path d="M10.5 32.4546C12.0815 32.4546 13.3636 31.1725 13.3636 29.5909C13.3636 28.0094 12.0815 26.7273 10.5 26.7273C8.91845 26.7273 7.63635 28.0094 7.63635 29.5909C7.63635 31.1725 8.91845 32.4546 10.5 32.4546Z" fill="#616161"/>
<path d="M31.5 32.4546C33.0815 32.4546 34.3636 31.1725 34.3636 29.5909C34.3636 28.0094 33.0815 26.7273 31.5 26.7273C29.9184 26.7273 28.6364 28.0094 28.6364 29.5909C28.6364 31.1725 29.9184 32.4546 31.5 32.4546Z" fill="#616161"/>
<path d="M34.1727 13.3636C33.7908 12.2182 32.6455 11.4545 31.5 11.4545H28.6364H9.54545V7.63636L3.81818 13.3636L7.63636 17.1818L9.54545 19.0909V15.2727H31.8818L34.3636 22.9091H3.81818V40.0909C3.81818 41.2364 4.58181 42 5.72727 42H7.63636C8.78181 42 9.54545 41.2364 9.54545 40.0909V38.1818H32.4545V40.0909C32.4545 41.2364 33.2182 42 34.3636 42H36.2727C37.4182 42 38.1818 41.2364 38.1818 40.0909V24.8182L34.1727 13.3636ZM10.5 32.4545C8.97272 32.4545 7.63636 31.1182 7.63636 29.5909C7.63636 28.0636 8.97272 26.7273 10.5 26.7273C12.0273 26.7273 13.3636 28.0636 13.3636 29.5909C13.3636 31.1182 12.0273 32.4545 10.5 32.4545ZM31.5 32.4545C29.9727 32.4545 28.6364 31.1182 28.6364 29.5909C28.6364 28.0636 29.9727 26.7273 31.5 26.7273C33.0273 26.7273 34.3636 28.0636 34.3636 29.5909C34.3636 31.1182 33.0273 32.4545 31.5 32.4545ZM28.6364 0V3.81818H13.3636V7.63636H28.6364V11.4545L34.3636 5.72727L28.6364 0Z" fill="#616161"/>
</svg>
