<svg width="46" height="46" viewBox="0 0 46 46" fill="none" xmlns="http://www.w3.org/2000/svg">
<g clip-path="url(#clip0)">
<path d="M32.2594 16.6942C32.1084 15.072 30.7388 13.8489 29.0734 13.8489H25.6885V11.6938C25.6885 8.24354 22.8181 5.43694 19.2895 5.43694C15.7609 5.43694 12.8905 8.24354 12.8905 11.6938V13.8489H9.5056C7.84022 13.8489 6.47061 15.072 6.31959 16.6942L4.30035 35.4647C4.21908 36.3384 4.52012 37.2101 5.12418 37.8579C5.72932 38.5045 6.59063 38.8762 7.48742 38.8762H21.4225V34.705H20.356C19.7665 34.705 19.2895 34.2386 19.2895 33.6622V29.491C19.2895 26.942 21.1694 24.8146 23.6451 24.3645C24.1054 21.9438 26.2811 20.1057 28.888 20.1057C29.6234 20.1057 30.3388 20.2575 31.021 20.5568C31.5237 20.3362 32.0489 20.224 32.5824 20.1653L32.2594 16.6942ZM23.5555 13.8489H15.0235V11.6938C15.0235 9.39327 16.9367 7.52255 19.2895 7.52255C21.6423 7.52255 23.5555 9.39327 23.5555 11.6938V13.8489Z" fill="#444444"/>
<path d="M33.1537 22.1913C32.3313 22.1913 31.588 22.5047 31.0207 23.005C30.4533 22.5047 29.7101 22.1913 28.8876 22.1913C27.4991 22.1913 26.3263 23.0658 25.8846 24.2769H36.1567C35.715 23.0658 34.5423 22.1913 33.1537 22.1913Z" fill="#444444"/>
<path d="M37.4908 26.3626H32.0872V30.5338H39.6238C40.2128 30.5338 40.6903 30.0669 40.6903 29.491C40.6903 27.7632 39.2578 26.3626 37.4908 26.3626Z" fill="#444444"/>
<path d="M24.6216 26.3626C22.8546 26.3626 21.4221 27.7632 21.4221 29.491C21.4221 30.0669 21.8996 30.5338 22.4886 30.5338H29.9542V26.3626H24.6216Z" fill="#444444"/>
<path d="M32.0872 32.6194V33.6622C32.0872 34.2386 31.6101 34.705 31.0206 34.705C30.4312 34.705 29.9541 34.2386 29.9541 33.6622V32.6194H23.5551V39.9885C23.5551 40.5644 24.0326 41.0313 24.6216 41.0313H37.4197C38.0087 41.0313 38.4862 40.5644 38.4862 39.9885V32.6194H32.0872Z" fill="#444444"/>
</g>
<defs>
<clipPath id="clip0">
<rect width="36.4034" height="35.5945" fill="white" transform="translate(4.28687 5.43694)"/>
</clipPath>
</defs>
</svg>
