<svg width="46" height="46" viewBox="0 0 46 46" fill="none" xmlns="http://www.w3.org/2000/svg">
<path d="M21.5802 7.13716C21.6463 7.13716 21.7453 7.1702 21.8114 7.1702H39.7078C40.0161 7.1702 40.2473 6.93903 40.2473 6.63079C40.2473 6.32256 40.0161 6.09153 39.7078 6.09153H21.8223C21.5583 6.09153 21.316 6.3227 21.316 6.66384C21.316 6.79588 21.3821 6.92792 21.4482 7.00512L21.5802 7.13716Z" fill="#444444"/>
<path d="M39.7078 11.3747V27.169H40.7864L39.1687 29.9647L37.5508 27.169H38.6293V11.3747H37.5508L39.1687 8.57904L40.7864 11.3747H39.7078Z" fill="#444444"/>
<path fill-rule="evenodd" clip-rule="evenodd" d="M9.25299 17.6815H5.21362L20.9419 6.90612L36.6702 17.6815H32.3557V31.3516H39.763C40.0712 31.3516 40.3024 31.5827 40.3024 31.8908C40.3024 32.1991 40.0712 32.4301 39.763 32.4301H32.3557V37.6802C32.3557 37.9884 32.1245 38.2194 31.8163 38.2194C31.508 38.2194 31.2769 37.9884 31.2769 37.6802V32.4301H29.1856V21.919H23.9357V32.4301H10.3315V39.8375C10.3315 40.1458 10.1003 40.3768 9.79226 40.3768C9.48417 40.3768 9.25299 40.1458 9.25299 39.8375V17.6815ZM20.7768 27.18H14.4481V21.9188H20.7768V27.18Z" fill="#444444"/>
<path d="M28.1182 35.567V36.6455H14.4481V35.567L11.6525 37.1848L14.4481 38.8027V37.7242H28.1511V38.8027L30.947 37.1848L28.1511 35.567H28.1182Z" fill="#444444"/>
</svg>
