<svg width="46" height="45" viewBox="0 0 46 45" fill="none" xmlns="http://www.w3.org/2000/svg">
<g clip-path="url(#clip0)">
<path d="M30.0048 19.5744V18.0382C30.0048 14.8955 27.9353 12.2364 25.085 11.3489V10.7762C25.085 9.61991 24.4062 8.64984 23.4954 8.38627V6.7986C23.7505 6.63509 23.9198 6.3498 23.9198 6.0242C23.9198 5.51614 23.5081 5.10452 23.0002 5.10452C22.4921 5.10452 22.0804 5.51614 22.0804 6.0242C22.0804 6.3498 22.2499 6.63509 22.5049 6.7986V8.38615C21.594 8.64984 20.9152 9.61991 20.9152 10.7761V11.3489C18.0648 12.2363 15.9954 14.8955 15.9954 18.0382V19.5744C17.428 18.7331 19.6511 17.9673 23.0003 17.9673C26.3492 17.9673 28.5722 18.7331 30.0048 19.5744ZM22.128 10.7761C22.128 10.0985 22.5274 9.52586 23 9.52586C23.4726 9.52586 23.872 10.0983 23.872 10.7761V11.0892C23.5861 11.0537 23.2955 11.0333 23 11.0333C22.7046 11.0333 22.4139 11.0537 22.128 11.0893V10.7761Z" fill="#444444"/>
<path d="M33.3018 24.447V26.5521L32.3998 26.0967L30.9846 25.3823V22.2602C30.5894 21.6821 28.6611 19.3825 23 19.3825C17.3426 19.3825 15.4076 21.6884 15.0152 22.2604V25.4899L13.6001 26.1545L12.698 26.5781V24.447H-3.63287V27.3378H-2.23632V39.8955H12.8357H12.8894H33.1105H33.1641H48.2364V27.3376H49.6328V24.4469H33.3018V24.447ZM3.4712 36.5197H1.63148V27.686H3.4712V36.5197ZM8.56568 36.5197H6.72596V27.686H8.56568V36.5197ZM23.3784 22.9788L31.0679 26.8605H15.1126L23.3784 22.9788ZM17.0562 38.0558H14.6753V29.1774H17.0562V38.0558ZM22.0094 38.0558H19.0374V29.1774H22.0094V38.0558ZM26.9623 38.0558H23.9906V29.1774H26.9623V38.0558ZM31.3244 38.0558H28.9435V29.1774H31.3244V38.0558ZM39.2738 36.5197H37.4342V27.686H39.2738V36.5197ZM44.3682 36.5197H42.5286V27.686H44.3682V36.5197Z" fill="#444444"/>
</g>
<defs>
<clipPath id="clip0">
<rect width="39" height="39" fill="white" transform="translate(3.5 3)"/>
</clipPath>
</defs>
</svg>
