<svg width="46" height="46" viewBox="0 0 46 46" fill="none" xmlns="http://www.w3.org/2000/svg">
<path d="M14.3513 32.5221C15.654 32.5221 16.71 31.466 16.71 30.1633C16.71 28.8607 15.654 27.8046 14.3513 27.8046C13.0486 27.8046 11.9926 28.8607 11.9926 30.1633C11.9926 31.466 13.0486 32.5221 14.3513 32.5221Z" fill="#444444"/>
<path d="M31.6486 32.5221C32.9513 32.5221 34.0074 31.466 34.0074 30.1633C34.0074 28.8607 32.9513 27.8046 31.6486 27.8046C30.346 27.8046 29.2899 28.8607 29.2899 30.1633C29.2899 31.466 30.346 32.5221 31.6486 32.5221Z" fill="#444444"/>
<path d="M33.8501 16.7972C33.5356 15.8537 32.5921 15.2247 31.6486 15.2247H29.2899H13.5651V12.0798L8.8476 16.7972L11.9926 19.9422L13.5651 21.5147V18.3697H31.9631L34.0074 24.6596H8.8476V38.812C8.8476 39.7555 9.47659 40.3845 10.4201 40.3845H11.9926C12.9361 40.3845 13.5651 39.7555 13.5651 38.812V37.2395H32.4349V38.812C32.4349 39.7555 33.0639 40.3845 34.0074 40.3845H35.5798C36.5233 40.3845 37.1523 39.7555 37.1523 38.812V26.2321L33.8501 16.7972ZM14.3513 32.5221C13.0933 32.5221 11.9926 31.4213 11.9926 30.1633C11.9926 28.9053 13.0933 27.8046 14.3513 27.8046C15.6093 27.8046 16.71 28.9053 16.71 30.1633C16.71 31.4213 15.6093 32.5221 14.3513 32.5221ZM31.6486 32.5221C30.3906 32.5221 29.2899 31.4213 29.2899 30.1633C29.2899 28.9053 30.3906 27.8046 31.6486 27.8046C32.9066 27.8046 34.0074 28.9053 34.0074 30.1633C34.0074 31.4213 32.9066 32.5221 31.6486 32.5221ZM29.2899 5.78982V8.93479H16.71V12.0798H29.2899V15.2247L34.0074 10.5073L29.2899 5.78982Z" fill="#444444"/>
</svg>
