<svg width="46" height="46" viewBox="0 0 46 46" fill="none" xmlns="http://www.w3.org/2000/svg">
<path d="M39.2887 16.9228C39.1351 15.7677 39.1134 13.7782 40.1863 13.1101C40.2055 13.0978 40.2198 13.0802 40.2366 13.065C41.1137 12.7844 41.7208 12.3907 41.2443 11.8608L28.3047 7.96201L7.35258 10.875C7.35258 10.875 4.9533 11.2179 5.16763 14.9455C5.28399 16.9743 5.92029 17.9707 6.47677 18.4611L4.75745 18.9792C4.28025 19.509 4.88719 19.9029 5.76448 20.183C5.78115 20.1986 5.79521 20.2162 5.81471 20.2285C6.88695 20.8971 6.86631 22.8864 6.71208 24.0418C2.8601 25.1356 4.24283 25.492 4.24283 25.492L5.0878 25.6965C4.49345 26.2335 3.90318 27.252 4.01375 29.1836C4.2282 32.9105 6.19893 33.1677 6.19893 33.1677L19.9099 37.6243L40.6049 32.6116C40.6049 32.6116 41.9881 32.2546 38.1351 31.1607C37.9802 30.0072 37.9586 28.0181 39.0334 27.3477C39.0531 27.3358 39.0675 27.3178 39.0835 27.3028C39.9608 27.0223 40.5673 26.6289 40.0906 26.099L39.1911 25.8274C39.791 25.4657 40.6921 24.5202 40.8333 22.0644C40.9307 20.3751 40.49 19.3858 39.9799 18.8033L41.7579 18.3731C41.758 18.3737 43.1412 18.0167 39.2887 16.9228ZM21.9786 16.8751L25.4587 16.1599L37.2196 13.743L38.9718 13.3826C38.4119 14.4073 38.4354 15.8097 38.528 16.711C38.5483 16.9149 38.5717 17.1011 38.5944 17.2426L36.6765 17.7195L21.8323 21.4123L21.9786 16.8751ZM7.02938 20.5021L8.78135 20.8625L20.076 23.1843L21.0627 23.3864L24.0218 23.9946L24.1677 28.5319L8.91109 24.7362L7.40702 24.3624C7.42913 24.2206 7.45249 24.0346 7.4737 23.8302C7.56578 22.9295 7.58971 21.5268 7.02938 20.5021ZM6.34873 14.7661C6.32753 13.7746 6.50421 13.0576 6.86132 12.6931C7.08858 12.4604 7.35678 12.412 7.54072 12.412C7.6379 12.412 7.70788 12.4255 7.71264 12.4255L16.7404 15.3686L21.2444 16.8371L21.0966 21.406L8.46099 17.8635L7.79417 17.6768C7.76968 17.6698 7.73645 17.6651 7.71082 17.6639C7.65877 17.6602 6.40952 17.5452 6.34873 14.7661ZM19.9425 35.6448L6.64041 31.9154C6.6158 31.9083 6.58291 31.9035 6.55728 31.9023C6.50432 31.8987 5.2545 31.7839 5.19406 29.0055C5.17251 28.0127 5.3501 27.2964 5.70653 26.9315C5.93436 26.6988 6.20267 26.6504 6.38627 26.6504C6.48368 26.6504 6.55343 26.6635 6.55853 26.6635C6.55853 26.6635 6.5591 26.6635 6.55853 26.6635L20.0894 31.0758L19.9425 35.6448ZM37.3732 30.9491C37.3942 31.1537 37.4176 31.3396 37.4403 31.4813L20.6778 35.6513L20.8244 31.114L24.408 30.3772L24.9373 30.5052L26.9209 29.8605L36.0648 27.9815L37.8177 27.6209C37.2572 28.6455 37.2805 30.0484 37.3732 30.9491ZM38.2966 24.7828C38.2661 24.7834 38.2356 24.7875 38.2069 24.7966L36.9426 25.1505L24.9051 28.5259L24.7579 23.957L28.7073 22.6688L38.2703 19.5501C38.2715 19.5495 38.7733 19.438 39.1417 19.8126C39.4982 20.1771 39.6751 20.8941 39.6542 21.8856C39.5919 24.6638 38.342 24.7792 38.2966 24.7828Z" fill="#444444"/>
</svg>
