<svg width="46" height="46" viewBox="0 0 46 46" fill="none" xmlns="http://www.w3.org/2000/svg">
<path d="M10.0984 16.8708L18.1032 17.8999C18.3826 18.6092 19.7902 22.1008 20.0549 22.7256C20.0549 22.7256 20.0549 22.7256 20.0512 22.7256C17.732 23.8723 15.4129 25.0153 13.0938 26.162C13.8987 26.015 14.7146 25.9415 15.5342 25.9415C16.6074 25.9415 17.6585 26.0701 18.6619 26.3237C20.687 26.8383 22.5173 27.6615 24.2852 28.4591C25.8619 29.1684 27.3541 29.8411 28.8426 30.227C29.0521 30.2821 29.2542 30.3299 29.4563 30.3703C27.6922 26.7574 22.9473 17.0215 22.0101 14.8788C21.5691 13.868 20.9627 13.4932 20.1027 13.3829L10.7012 12.1737C9.40378 12.0083 8.21664 12.9235 8.04758 14.2209C7.88583 15.5183 8.80099 16.7054 10.0984 16.8708Z" fill="#444444"/>
<path d="M6.31651 33.7552C6.57746 33.9427 6.87516 34.0309 7.17287 34.0309C7.23902 34.0309 7.3015 34.0272 7.36398 34.0162C7.75357 33.9647 8.1211 33.7589 8.36735 33.4171C9.31926 32.0903 10.7931 31.0465 12.5094 30.4731C13.4944 30.1461 14.5235 29.9807 15.5342 29.9807C19.1985 29.9807 22.341 32.1712 25.6487 33.4318C27.4202 34.108 29.2689 34.6079 31.2793 34.6079C32.1246 34.6079 32.9994 34.5197 33.9072 34.3176C36.0426 33.8471 37.8729 32.8327 39.196 31.4104C39.5121 31.0685 39.7987 30.7084 40.0523 30.3225C40.5007 29.6462 40.3133 28.7347 39.637 28.2863C39.3871 28.1209 39.1078 28.0437 38.8284 28.0437C38.3507 28.0437 37.8839 28.2753 37.6009 28.7016C37.4869 28.8743 37.362 29.0397 37.226 29.2015C36.3072 30.2967 34.9289 31.0832 33.275 31.4471C31.7498 31.7816 30.0665 31.6823 28.5633 31.2928C26.9829 30.8811 25.4539 30.1939 23.8294 29.4624C22.102 28.6869 20.3195 27.882 18.3863 27.3896C17.4675 27.1544 16.5045 27.0404 15.5306 27.0404C14.2038 27.0404 12.8549 27.2572 11.5722 27.6836C10.4513 28.0585 9.41114 28.5803 8.47761 29.2383C7.49262 29.9329 6.65097 30.7599 5.97471 31.7007C5.9306 31.7632 5.89385 31.8257 5.86077 31.8919C5.54102 32.5277 5.71744 33.3252 6.31651 33.7552Z" fill="#444444"/>
<path d="M32.9332 26.9338C35.7973 26.9338 38.1191 24.612 38.1191 21.7479C38.1191 18.8838 35.7973 16.562 32.9332 16.562C30.0691 16.562 27.7473 18.8838 27.7473 21.7479C27.7473 24.612 30.0691 26.9338 32.9332 26.9338Z" fill="#444444"/>
</svg>
