<svg width="46" height="46" viewBox="0 0 46 46" fill="none" xmlns="http://www.w3.org/2000/svg">
<path d="M11.341 22.1978C12.1249 22.1978 12.8343 21.8833 13.3586 21.3783L16.2346 22.8162C16.2202 22.9333 16.1989 23.0484 16.1989 23.1694C16.1989 24.7766 17.5065 26.0841 19.1137 26.0841C20.7208 26.0841 22.0284 24.7766 22.0284 23.1694C22.0284 22.7208 21.9181 22.3008 21.7362 21.9208L25.6377 18.0192C26.0177 18.2012 26.4377 18.3115 26.8863 18.3115C28.4935 18.3115 29.8011 17.0039 29.8011 15.3967C29.8011 15.0941 29.7416 14.808 29.6556 14.5334L33.0455 11.9916C33.508 12.3006 34.0624 12.482 34.659 12.482C36.2662 12.482 37.5738 11.1744 37.5738 9.56723C37.5738 7.96007 36.2662 6.65248 34.659 6.65248C33.0518 6.65248 31.7443 7.96007 31.7443 9.56723C31.7443 9.86984 31.8037 10.156 31.8897 10.4305L28.4998 12.9723C28.0373 12.6634 27.483 12.482 26.8863 12.482C25.2792 12.482 23.9716 13.7896 23.9716 15.3967C23.9716 15.8453 24.0819 16.2653 24.2638 16.6454L20.3623 20.5469C19.9823 20.365 19.5623 20.2546 19.1137 20.2546C18.3298 20.2546 17.6204 20.5691 17.0961 21.0742L14.2201 19.6363C14.2345 19.5191 14.2558 19.404 14.2558 19.2831C14.2558 17.6759 12.9482 16.3683 11.341 16.3683C9.73386 16.3683 8.42627 17.6759 8.42627 19.2831C8.42627 20.8902 9.73386 22.1978 11.341 22.1978Z" fill="#444444"/>
<path d="M38.6101 37.8727H37.5738V17.3399C37.5738 16.803 37.1391 16.3683 36.6022 16.3683H32.7158C32.1789 16.3683 31.7443 16.803 31.7443 17.3399V37.8727H29.8011V23.1694C29.8011 22.6325 29.3664 22.1978 28.8295 22.1978H24.9432C24.4063 22.1978 23.9716 22.6325 23.9716 23.1694V37.8727H22.0284V30.942C22.0284 30.4051 21.5938 29.9705 21.0569 29.9705H17.1705C16.6336 29.9705 16.1989 30.4051 16.1989 30.942V37.8727H14.2558V27.0557C14.2558 26.5188 13.8211 26.0841 13.2842 26.0841H9.39786C8.86095 26.0841 8.42627 26.5188 8.42627 27.0557V37.8727H7.38992C6.85302 37.8727 6.41833 38.3074 6.41833 38.8443C6.41833 39.3812 6.85302 39.8158 7.38992 39.8158H38.6101C39.147 39.8158 39.5817 39.3812 39.5817 38.8443C39.5817 38.3074 39.147 37.8727 38.6101 37.8727Z" fill="#444444"/>
</svg>
