<svg width="50" height="50" viewBox="0 0 50 50" fill="none" xmlns="http://www.w3.org/2000/svg">
<path d="M36.7188 3.22266C30.795 3.22266 26.9927 7.32539 25 11.0204C23.0073 7.32529 19.205 3.22266 13.2812 3.22266C5.76533 3.22266 0 9.3209 0 17.409C0 19.5193 0.422559 21.4677 1.20059 23.3398H12.3758L14.9006 18.2901C15.3984 17.2974 17.0234 17.2974 17.5213 18.2901L22.0703 27.3883L23.6896 24.1496C24.1875 23.1568 25.8125 23.1568 26.3104 24.1496L27.9297 27.3883L32.4787 18.2902C32.9766 17.2975 34.6016 17.2975 35.0994 18.2902L37.6242 23.3398H48.7994C49.5774 21.4677 50 19.5193 50 17.409C50 9.3209 44.2347 3.22266 36.7188 3.22266Z" fill="#616161"/>
<path d="M36.7188 26.2695C36.1637 26.2695 35.6573 25.9563 35.4084 25.4599L33.7891 22.2212L29.2401 31.3193C28.9911 31.8156 28.4848 32.1289 27.9297 32.1289C27.3746 32.1289 26.8683 31.8156 26.6194 31.3193L25 28.0806L23.3807 31.3193C22.8828 32.312 21.2578 32.312 20.76 31.3193L16.211 22.2212L14.5916 25.4599C14.3427 25.9563 13.8363 26.2695 13.2813 26.2695H2.73801C5.75295 31.0131 11.1827 35.5189 17.9747 41.2513C19.8816 42.8605 21.9101 44.573 24.0401 46.4197C24.3161 46.6586 24.658 46.7773 24.9999 46.7773C25.3418 46.7773 25.6837 46.6586 25.9598 46.4197C28.0899 44.573 30.1183 42.8606 32.0251 41.2513C38.8172 35.5189 44.2469 31.0131 47.2618 26.2695H36.7188Z" fill="#616161"/>
</svg>
