<svg width="46" height="46" viewBox="0 0 46 46" fill="none" xmlns="http://www.w3.org/2000/svg">
<path d="M35.7614 24.8128L41.4792 36.3141C41.7117 36.7818 41.4673 37.1645 40.936 37.1645H5.06406C4.53277 37.1645 4.28831 36.7818 4.52088 36.3141L10.2387 24.8128C10.3297 24.6299 10.5741 24.4802 10.7819 24.4802H15.6847C15.8358 24.4802 16.0398 24.5728 16.1387 24.6847C16.4714 25.0611 16.8102 25.4288 17.148 25.7927C17.4689 26.1382 17.7914 26.4882 18.1115 26.8464H12.2931C12.0852 26.8464 11.8408 26.9961 11.7499 27.1791L7.96206 34.7983H38.0379L34.2503 27.1791C34.1594 26.9961 33.915 26.8464 33.7071 26.8464H27.8755C28.1955 26.4882 28.5182 26.1382 28.839 25.7927C29.1779 25.4277 29.5186 25.0607 29.852 24.6842C29.9508 24.5726 30.1545 24.4802 30.3053 24.4802H35.2184C35.4261 24.4802 35.6705 24.6298 35.7614 24.8128ZM31.4063 16.953C31.4063 23.2374 26.0632 24.4161 23.5504 30.4555C23.3462 30.9462 22.6406 30.9437 22.4363 30.4531C20.1695 25.0078 15.6018 23.5146 14.7279 18.6637C13.8674 13.8881 17.2442 9.21017 22.1747 8.75381C27.189 8.28968 31.4063 12.1391 31.4063 16.953ZM27.4364 16.953C27.4364 14.5506 25.4475 12.603 22.9939 12.603C20.5403 12.603 18.5514 14.5506 18.5514 16.953C18.5514 19.3555 20.5403 21.303 22.9939 21.303C25.4475 21.303 27.4364 19.3555 27.4364 16.953Z" fill="#444444"/>
</svg>
