<svg width="52" height="52" viewBox="0 0 52 52" fill="none" xmlns="http://www.w3.org/2000/svg">
<g clip-path="url(#clip0)">
<path d="M9.69538 7.89618C9.69538 7.07825 9.03107 6.41394 8.21314 6.41394C7.39521 6.41394 6.7309 7.07825 6.7309 7.89618C6.7309 8.71411 7.39521 9.37842 8.21314 9.37842C9.03107 9.37842 9.69538 8.71411 9.69538 7.89618Z" fill="#616161"/>
<path d="M42.3046 7.89618C42.3046 8.71411 42.9689 9.37842 43.7868 9.37842C44.6048 9.37842 45.2691 8.71411 45.2691 7.89618C45.2691 7.07825 44.6048 6.41394 43.7868 6.41394C42.9689 6.41394 42.3046 7.07825 42.3046 7.89618Z" fill="#616161"/>
<path d="M43.7868 0.484985H8.21314C4.12695 0.484985 0.703133 3.80998 0.703133 7.89617C0.703133 11.9824 4.12695 15.3074 8.21314 15.3074C12.2993 15.3074 15.6243 11.9824 15.6243 7.89617C15.6243 7.39322 15.5587 6.89991 15.4599 6.41394H12.3869C12.5529 6.87984 12.6599 7.37392 12.6599 7.89617C12.6599 10.348 10.665 12.3429 8.21314 12.3429C5.76127 12.3429 3.76642 10.348 3.76642 7.89617C3.76642 5.44431 5.76127 3.44946 8.21314 3.44946H43.7868C46.2387 3.44946 48.2336 5.44431 48.2336 7.89617C48.2336 10.348 46.2387 12.3429 43.7868 12.3429C41.335 12.3429 39.3401 10.348 39.3401 7.89617C39.3401 7.37392 39.447 6.87984 39.613 6.41394H36.5401C36.4413 6.89991 36.3757 7.39322 36.3757 7.89617C36.3757 11.9824 39.7006 15.3074 43.7868 15.3074C47.873 15.3074 51.2968 11.9824 51.2968 7.89617C51.2968 3.80998 47.873 0.484985 43.7868 0.484985Z" fill="#616161"/>
<path d="M34.4518 12.3429C33.8041 10.99 33.4112 9.49344 33.4112 7.89618C33.4112 7.39592 33.4664 6.90339 33.5366 6.41394H18.4633C18.5336 6.90339 18.5888 7.39592 18.5888 7.89618C18.5888 9.49344 18.1958 10.99 17.5481 12.3429H34.4518Z" fill="#616161"/>
<path d="M39.1838 15.3074C38.3701 16.1033 37.4171 16.7441 36.3757 17.2297V51.0787L39.3401 48.8658V15.3074H39.1838Z" fill="#616161"/>
<path d="M30.4467 15.3074H33.4112V48.1142H30.4467V15.3074Z" fill="#616161"/>
<path d="M12.8162 15.3074H12.6599V47.5484L15.6243 46.0661V17.2296C14.5829 16.7441 13.6299 16.1033 12.8162 15.3074Z" fill="#616161"/>
<path d="M21.5533 47.5484V15.3074H18.5888V46.0661L21.5533 47.5484Z" fill="#616161"/>
<path d="M27.4822 46.0661V15.3074H24.5178V47.5484L27.4822 46.0661Z" fill="#616161"/>
</g>
<defs>
<clipPath id="clip0">
<rect width="50.5937" height="50.5937" fill="white" transform="matrix(-1 0 0 1 51.2968 0.484985)"/>
</clipPath>
</defs>
</svg>
