<svg width="50" height="50" viewBox="0 0 50 50" fill="none" xmlns="http://www.w3.org/2000/svg">
<path d="M24.9995 12.4998C28.4512 12.4998 31.2494 9.70159 31.2494 6.24987C31.2494 2.79816 28.4512 0 24.9995 0C21.5478 0 18.7496 2.79816 18.7496 6.24987C18.7496 9.70159 21.5478 12.4998 24.9995 12.4998Z" fill="#616161"/>
<path d="M34.3617 29.4869L32.943 18.4371C32.7836 16.834 31.4462 15.6247 29.8368 15.6247H28.1244C27.7087 15.6247 27.3119 15.7903 27.0181 16.0809L24.9994 18.0996L22.9807 16.0809C22.687 15.7903 22.2901 15.6247 21.8745 15.6247H20.1651C18.5527 15.6247 17.2152 16.834 17.059 18.3965L15.6371 29.49C15.5809 29.9338 15.7184 30.3838 16.0152 30.7181C16.3121 31.0556 16.7371 31.2494 17.1871 31.2494H18.8745L20.1808 47.1866C20.337 48.7865 21.6776 49.999 23.2901 49.999H26.7119C28.3244 49.999 29.6618 48.7865 29.8243 47.1584L31.1274 31.2494H32.8118C33.2618 31.2494 33.6867 31.0556 33.9836 30.7181C34.2836 30.3838 34.4211 29.9338 34.3617 29.4869Z" fill="#616161"/>
<path d="M40.6241 12.4998C44.0759 12.4998 46.874 9.70159 46.874 6.24987C46.874 2.79816 44.0759 0 40.6241 0C37.1724 0 34.3743 2.79816 34.3743 6.24987C34.3743 9.70159 37.1724 12.4998 40.6241 12.4998Z" fill="#616161"/>
<path d="M9.37475 0C5.92795 0 3.12488 2.80307 3.12488 6.24987C3.12488 9.69668 5.92795 12.4998 9.37475 12.4998C12.8184 12.4998 15.6246 9.69668 15.6246 6.24987C15.6246 2.80307 12.8184 0 9.37475 0Z" fill="#616161"/>
<path d="M49.9864 29.4869L48.5677 18.4403C48.4083 16.834 47.074 15.6247 45.4615 15.6247H43.7491C43.3334 15.6247 42.9366 15.7903 42.6428 16.0809L40.6241 18.0996L38.6054 16.0809C38.3117 15.7903 37.9148 15.6247 37.5023 15.6247H35.7898C35.5961 15.6247 35.4211 15.6934 35.2367 15.7278C35.6399 16.4403 35.9555 17.2122 36.0492 18.0778L37.4648 29.0901C37.6398 30.4306 37.2211 31.7806 36.3211 32.7962C35.8961 33.2837 35.3524 33.6275 34.7711 33.8962L35.8086 44.0616C35.968 45.6647 37.3054 46.8741 38.9179 46.8741H42.3397C43.9522 46.8741 45.2897 45.6616 45.4522 44.0335L46.7521 31.2494H48.4365C48.8865 31.2494 49.3115 31.0556 49.6083 30.7181C49.9083 30.3838 50.0458 29.9338 49.9864 29.4869Z" fill="#616161"/>
<path d="M13.6684 32.7806C12.7809 31.7775 12.3685 30.4306 12.5372 29.0963L13.959 17.9996C14.0403 17.1684 14.3465 16.4184 14.7372 15.7247C14.5622 15.6934 14.3965 15.6247 14.2122 15.6247H12.4997C12.0841 15.6247 11.6872 15.7903 11.3935 16.0809L9.37477 18.0996L7.35606 16.0809C7.06231 15.7903 6.66544 15.6247 6.25295 15.6247H4.54039C2.92792 15.6247 1.59045 16.834 1.4342 18.3965L0.012355 29.49C-0.0438939 29.9338 0.0936033 30.3838 0.390472 30.7181C0.687341 31.0556 1.11546 31.2494 1.56232 31.2494H3.24979L4.55601 44.0616C4.71226 45.6616 6.05286 46.8741 7.66533 46.8741H11.0871C12.6996 46.8741 14.0371 45.6616 14.1996 44.0335L15.237 33.8931C14.6528 33.6212 14.1059 33.2743 13.6684 32.7806Z" fill="#616161"/>
</svg>
