<svg width="52" height="50" viewBox="0 0 52 50" fill="none" xmlns="http://www.w3.org/2000/svg">
<g clip-path="url(#clip0)">
<path d="M40.1281 15.8132C39.9159 13.5344 37.992 11.8164 35.6526 11.8164H30.8979V8.78904C30.8979 3.94247 26.8658 0 21.9091 0C16.9524 0 12.9203 3.94247 12.9203 8.78904V11.8164H8.16551C5.82613 11.8164 3.90223 13.5344 3.6901 15.8132L0.853633 42.1804C0.739475 43.4077 1.16235 44.6322 2.01089 45.5421C2.86093 46.4504 4.07082 46.9725 5.33055 46.9725H24.9053V41.1132H23.4072C22.5791 41.1132 21.9091 40.458 21.9091 39.6483V33.789C21.9091 30.2084 24.5498 27.22 28.0274 26.5878C28.674 23.1874 31.7303 20.6054 35.3923 20.6054C36.4252 20.6054 37.4302 20.8186 38.3885 21.2391C39.0947 20.9292 39.8323 20.7715 40.5818 20.6891L40.1281 15.8132ZM27.9016 11.8164H15.9166V8.78904C15.9166 5.55751 18.6041 2.92968 21.9091 2.92968C25.2141 2.92968 27.9016 5.55751 27.9016 8.78904V11.8164Z" fill="#616161"/>
<path d="M41.3844 23.5351C40.2292 23.5351 39.1852 23.9753 38.3882 24.6781C37.5912 23.9753 36.5472 23.5351 35.3919 23.5351C33.4413 23.5351 31.794 24.7634 31.1735 26.4648H45.6029C44.9823 24.7634 43.335 23.5351 41.3844 23.5351Z" fill="#616161"/>
<path d="M47.4768 29.3945H39.8863V35.2538H50.4731C51.3005 35.2538 51.9712 34.598 51.9712 33.789C51.9712 31.3619 49.959 29.3945 47.4768 29.3945Z" fill="#616161"/>
<path d="M29.3994 29.3945C26.9172 29.3945 24.905 31.3619 24.905 33.789C24.905 34.598 25.5757 35.2538 26.4031 35.2538H36.89V29.3945H29.3994Z" fill="#616161"/>
<path d="M39.8863 38.1835V39.6483C39.8863 40.458 39.2162 41.1132 38.3882 41.1132C37.5601 41.1132 36.89 40.458 36.89 39.6483V38.1835H27.9012V48.535C27.9012 49.344 28.572 49.9999 29.3994 49.9999H47.377C48.2043 49.9999 48.8751 49.344 48.8751 48.535V38.1835H39.8863Z" fill="#616161"/>
</g>
<defs>
<clipPath id="clip0">
<rect width="51.1363" height="50" fill="white" transform="translate(0.8349)"/>
</clipPath>
</defs>
</svg>
