<svg width="46" height="46" viewBox="0 0 46 46" fill="none" xmlns="http://www.w3.org/2000/svg">
<g clip-path="url(#clip0)">
<path d="M11.6985 10.9838C11.6985 10.4168 11.238 9.95637 10.6711 9.95637C10.1041 9.95637 9.64368 10.4168 9.64368 10.9838C9.64368 11.5507 10.1041 12.0112 10.6711 12.0112C11.238 12.0112 11.6985 11.5507 11.6985 10.9838Z" fill="#444444"/>
<path d="M34.3015 10.9838C34.3015 11.5507 34.762 12.0112 35.3289 12.0112C35.8959 12.0112 36.3563 11.5507 36.3563 10.9838C36.3563 10.4168 35.8959 9.95637 35.3289 9.95637C34.762 9.95637 34.3015 10.4168 34.3015 10.9838Z" fill="#444444"/>
<path d="M35.3289 5.84675H10.6711C7.83878 5.84675 5.46558 8.15146 5.46558 10.9838C5.46558 13.8161 7.83878 16.1208 10.6711 16.1208C13.5034 16.1208 15.8081 13.8161 15.8081 10.9838C15.8081 10.6352 15.7627 10.2932 15.6942 9.95638H13.5642C13.6792 10.2793 13.7533 10.6218 13.7533 10.9838C13.7533 12.6833 12.3706 14.066 10.6711 14.066C8.9716 14.066 7.58888 12.6833 7.58888 10.9838C7.58888 9.28428 8.9716 7.90156 10.6711 7.90156H35.3289C37.0284 7.90156 38.4111 9.28428 38.4111 10.9838C38.4111 12.6833 37.0284 14.066 35.3289 14.066C33.6294 14.066 32.2466 12.6833 32.2466 10.9838C32.2466 10.6218 32.3208 10.2793 32.4358 9.95638H30.3058C30.2373 10.2932 30.1918 10.6352 30.1918 10.9838C30.1918 13.8161 32.4965 16.1208 35.3289 16.1208C38.1612 16.1208 40.5344 13.8161 40.5344 10.9838C40.5344 8.15146 38.1612 5.84675 35.3289 5.84675Z" fill="#444444"/>
<path d="M28.8584 14.066C28.4094 13.1282 28.1371 12.0909 28.1371 10.9838C28.1371 10.637 28.1753 10.2956 28.224 9.95637H17.776C17.8247 10.2956 17.863 10.637 17.863 10.9838C17.863 12.0909 17.5906 13.1282 17.1417 14.066H28.8584Z" fill="#444444"/>
<path d="M32.1383 16.1208C31.5743 16.6725 30.9137 17.1167 30.1918 17.4532V40.9156L32.2466 39.3817V16.1208H32.1383Z" fill="#444444"/>
<path d="M26.0823 16.1208H28.1371V38.8608H26.0823V16.1208Z" fill="#444444"/>
<path d="M13.8617 16.1208H13.7534V38.4685L15.8082 37.4411V17.4532C15.0863 17.1167 14.4257 16.6725 13.8617 16.1208Z" fill="#444444"/>
<path d="M19.9178 38.4685V16.1208H17.863V37.4411L19.9178 38.4685Z" fill="#444444"/>
<path d="M24.0274 37.4411V16.1208H21.9726V38.4685L24.0274 37.4411Z" fill="#444444"/>
</g>
<defs>
<clipPath id="clip0">
<rect width="35.0688" height="35.0688" fill="white" transform="matrix(-1 0 0 1 40.5344 5.84675)"/>
</clipPath>
</defs>
</svg>
