<svg width="46" height="46" viewBox="0 0 46 46" fill="none" xmlns="http://www.w3.org/2000/svg">
<path d="M31.4375 7.26047C27.1724 7.26047 24.4347 10.2144 23 12.8749C21.5653 10.2144 18.8276 7.26047 14.5625 7.26047C9.15104 7.26047 5 11.6512 5 17.4746C5 18.9941 5.30424 20.3969 5.86442 21.7448H13.9106L15.7284 18.1091C16.0869 17.3943 17.2569 17.3943 17.6153 18.1091L20.8906 24.6597L22.0565 22.3279C22.415 21.6131 23.585 21.6131 23.9435 22.3279L25.1094 24.6597L28.3847 18.1091C28.7431 17.3943 29.9131 17.3943 30.2716 18.1091L32.0894 21.7448H40.1356C40.6958 20.3969 41 18.9941 41 17.4746C41 11.6512 36.849 7.26047 31.4375 7.26047Z" fill="#444444"/>
<path d="M31.4375 23.8542C31.0379 23.8542 30.6733 23.6287 30.4941 23.2713L29.3282 20.9394L26.0529 27.49C25.8736 27.8474 25.5091 28.073 25.1094 28.073C24.7097 28.073 24.3452 27.8474 24.1659 27.49L23 25.1582L21.8341 27.49C21.4756 28.2048 20.3056 28.2048 19.9472 27.49L16.6719 20.9394L15.506 23.2713C15.3267 23.6287 14.9622 23.8542 14.5625 23.8542H6.97137C9.14213 27.2696 13.0516 30.5137 17.9418 34.6411C19.3147 35.7998 20.7753 37.0327 22.3089 38.3624C22.5076 38.5343 22.7538 38.6198 23 38.6198C23.2461 38.6198 23.4923 38.5343 23.6911 38.3624C25.2247 37.0327 26.6852 35.7998 28.0581 34.6411C32.9484 30.5137 36.8578 27.2696 39.0285 23.8542H31.4375Z" fill="#444444"/>
</svg>
