<svg width="45" height="45" viewBox="0 0 45 45" fill="none" xmlns="http://www.w3.org/2000/svg">
<g clip-path="url(#clip0)">
<path d="M2.46943 21.2659C2.50972 21.3062 2.57374 21.3611 2.65882 21.4279C4.87339 15.5629 10.1272 10.2369 10.1272 10.2369C7.65633 13.1982 6.3798 19.5363 5.83622 23.0641C8.29972 23.8895 11.6958 24.0917 14.6763 21.0838C19.8249 15.8877 13.8921 9.19355 22.9363 3.20229C22.9363 3.20229 11.3106 0.00296617 3.89257 7.48876C-3.52642 14.9753 1.82154 20.6235 2.46943 21.2659Z" fill="#616161"/>
<path d="M39.4936 27.1199C39.4936 27.1199 47.5521 18.1508 44.1717 8.16871C40.7921 -1.81349 33.3485 0.445968 32.4845 0.737851C32.4306 0.756129 32.3518 0.789146 32.2549 0.83489C36.5112 5.43793 38.9271 12.5182 38.9271 12.5182C37.3823 8.98397 32.2842 5.00872 29.3714 2.94515C27.5319 4.78 25.8325 7.72763 27.1915 11.7386C29.5379 18.667 38.1776 16.3517 39.4936 27.1199Z" fill="#616161"/>
<path d="M35.3782 33.9421C34.6571 31.4467 32.8927 28.5374 28.7235 27.7954C21.5215 26.5133 19.3874 35.1996 9.31738 31.1648C9.31738 31.1648 13.2936 42.548 23.6693 44.3958C34.0449 46.2434 35.6519 38.6322 35.8121 37.7346C35.8221 37.6778 35.8313 37.5945 35.8378 37.4865C29.7541 38.9983 22.3855 37.7035 22.3855 37.7035C26.226 38.0529 32.1661 35.5006 35.3782 33.9421Z" fill="#616161"/>
</g>
<defs>
<clipPath id="clip0">
<rect width="45" height="45" fill="white"/>
</clipPath>
</defs>
</svg>
