<svg width="40" height="40" viewBox="0 0 40 40" fill="none" xmlns="http://www.w3.org/2000/svg">
<path d="M5.9375 18.75C6.88293 18.75 7.73865 18.3707 8.37097 17.7615L11.8399 19.4958C11.8225 19.6371 11.7969 19.776 11.7969 19.9219C11.7969 21.8604 13.374 23.4375 15.3125 23.4375C17.251 23.4375 18.8281 21.8604 18.8281 19.9219C18.8281 19.3808 18.6951 18.8742 18.4756 18.4158L23.1815 13.71C23.6398 13.9294 24.1464 14.0625 24.6875 14.0625C26.626 14.0625 28.2031 12.4854 28.2031 10.5469C28.2031 10.1819 28.1314 9.83673 28.0276 9.50562L32.1164 6.43982C32.6743 6.81244 33.3429 7.03125 34.0625 7.03125C36.001 7.03125 37.5781 5.4541 37.5781 3.51562C37.5781 1.57715 36.001 0 34.0625 0C32.124 0 30.5469 1.57715 30.5469 3.51562C30.5469 3.88062 30.6186 4.22577 30.7224 4.55688L26.6336 7.62268C26.0757 7.25006 25.4071 7.03125 24.6875 7.03125C22.749 7.03125 21.1719 8.6084 21.1719 10.5469C21.1719 11.088 21.3049 11.5945 21.5244 12.0529L16.8185 16.7587C16.3602 16.5393 15.8536 16.4062 15.3125 16.4062C14.3671 16.4062 13.5114 16.7856 12.879 17.3947L9.4101 15.6604C9.42749 15.5191 9.45312 15.3802 9.45312 15.2344C9.45312 13.2959 7.87598 11.7188 5.9375 11.7188C3.99902 11.7188 2.42188 13.2959 2.42188 15.2344C2.42188 17.1729 3.99902 18.75 5.9375 18.75Z" fill="#616161"/>
<path d="M38.8281 37.6562H37.5781V12.8906C37.5781 12.243 37.0538 11.7188 36.4062 11.7188H31.7188C31.0712 11.7188 30.5469 12.243 30.5469 12.8906V37.6562H28.2031V19.9219C28.2031 19.2743 27.6788 18.75 27.0312 18.75H22.3438C21.6962 18.75 21.1719 19.2743 21.1719 19.9219V37.6562H18.8281V29.2969C18.8281 28.6493 18.3038 28.125 17.6562 28.125H12.9688C12.3212 28.125 11.7969 28.6493 11.7969 29.2969V37.6562H9.45312V24.6094C9.45312 23.9618 8.92883 23.4375 8.28125 23.4375H3.59375C2.94617 23.4375 2.42188 23.9618 2.42188 24.6094V37.6562H1.17188C0.524292 37.6562 0 38.1805 0 38.8281C0 39.4757 0.524292 40 1.17188 40H38.8281C39.4757 40 40 39.4757 40 38.8281C40 38.1805 39.4757 37.6562 38.8281 37.6562Z" fill="#616161"/>
</svg>
