<svg width="46" height="46" viewBox="0 0 46 46" fill="none" xmlns="http://www.w3.org/2000/svg">
<path d="M30.8546 37.2346C30.507 37.1808 30.2445 37.1435 30.0309 37.1134C29.3747 37.0202 29.1985 36.9952 28.4314 36.7564C28.129 36.6623 26.9463 35.4694 26.9463 33.1348C26.9463 30.1272 27.6605 27.4712 27.9673 26.469C27.9754 26.4428 27.9954 26.3671 28.0231 26.2646C28.0738 26.0765 28.4461 24.94 28.4461 24.94C28.648 24.3619 28.8569 23.7639 28.9926 23.1497L28.9999 23.1182C29.2047 22.2288 29.8772 18.9778 29.9249 14.481C29.9249 14.0272 29.5477 13.6324 29.3224 13.3966C29.2812 13.3533 29.2446 13.3154 29.2173 13.2835C29.0004 13.0313 28.7148 12.7199 28.3841 12.3595C28.1662 12.1219 27.9262 11.8601 27.6677 11.5737C27.254 11.1162 26.7927 10.6976 26.3465 10.293C25.7977 9.79571 25.2307 9.28144 24.7646 8.70166C24.0681 7.83549 23.4242 6.31946 23.5407 5.09763C23.5584 4.91329 23.5154 4.75406 23.4197 4.64887C23.3135 4.53191 23.1468 4.49546 23.0001 4.55347C22.8531 4.49546 22.6864 4.53191 22.5804 4.64887C22.4848 4.75406 22.4416 4.91329 22.4595 5.09763C22.5758 6.31946 21.9319 7.83549 21.2356 8.70166C20.7693 9.28144 20.2022 9.79571 19.6535 10.293C19.2075 10.6976 18.7459 11.1162 18.3324 11.5737C18.0739 11.8601 17.8337 12.1219 17.6159 12.3595C17.285 12.7199 16.9997 13.0313 16.7825 13.2835C16.7553 13.3154 16.719 13.3533 16.6777 13.3966C16.4524 13.6324 16.0751 14.0272 16.0751 14.4833C16.1229 18.9778 16.7954 22.2288 17.0002 23.1182L17.0074 23.1497C17.1431 23.7639 17.3521 24.362 17.5537 24.94C17.5537 24.94 17.9259 26.0765 17.9767 26.2646C18.0045 26.3671 18.0246 26.4428 18.0327 26.469C18.3394 27.4712 19.0534 30.1272 19.0534 33.1348C19.0534 35.4695 17.8709 36.6623 17.5686 36.7564C16.8015 36.9952 16.6252 37.0202 15.9689 37.1134C15.7553 37.1435 15.493 37.1808 15.1454 37.2346C11.3777 37.6356 10.9709 39.5059 10.9709 40.2916C10.9709 40.5022 11.08 41.1864 11.5773 41.8172C12.0242 42.384 12.9142 43.06 14.6178 43.06C14.8734 43.06 15.1437 43.0448 15.4216 43.0148C16.5554 42.8929 17.6981 42.7098 18.803 42.5329C19.2043 42.4686 19.605 42.4045 20.0063 42.3429C20.541 42.261 21.5047 42.2066 22.8701 42.1816C22.9341 42.1804 22.9785 42.1794 23.0001 42.1788C23.0217 42.1794 23.0661 42.1805 23.1299 42.1816C24.4955 42.2066 25.4591 42.261 25.9938 42.3429C26.395 42.4045 26.7958 42.4686 27.197 42.5329C28.302 42.7098 29.4448 42.8929 30.5784 43.0148C30.8563 43.0447 31.1266 43.06 31.3822 43.06C33.0861 43.06 33.9763 42.3843 34.4229 41.8172C34.9202 41.1865 35.029 40.5021 35.029 40.2916C35.0288 39.5059 34.6222 37.6356 30.8546 37.2346ZM24.9923 21.9223C24.9361 21.9223 24.8829 21.9101 24.8291 21.8846C24.6538 21.8147 24.4291 21.4799 24.4081 21.3499C25.2811 20.7426 25.8708 19.5889 25.8708 18.2647C25.8708 16.3091 25.6644 14.7237 22.9999 14.7237C20.3353 14.7237 20.1289 16.3091 20.1289 18.2647C20.1289 19.5889 20.7187 20.7426 21.5915 21.3499C21.571 21.4796 21.3412 21.7985 21.1707 21.8846C21.1169 21.9101 21.0638 21.9223 21.0075 21.9223C20.4465 21.9225 19.7433 20.6937 19.5586 20.2048C19.244 19.374 18.8513 17.9461 18.767 15.8622L18.7636 15.7821C18.742 15.3431 19.4032 14.2205 19.4908 14.0285C19.6112 13.764 21.1732 11.3832 21.637 10.8191C21.8013 10.6197 22.6333 9.51493 23 9.02733C23.3666 9.51493 24.1985 10.6197 24.3626 10.8191C24.8268 11.3832 26.3883 13.764 26.5089 14.0285C26.5966 14.2205 27.2578 15.3431 27.2364 15.7821L27.233 15.8622C27.1486 17.9462 26.7561 19.3741 26.4411 20.2048C26.2565 20.6936 25.5535 21.9223 24.9923 21.9223Z" fill="#444444"/>
</svg>
