<svg width="46" height="46" viewBox="0 0 46 46" fill="none" xmlns="http://www.w3.org/2000/svg">
<g clip-path="url(#clip0)">
<path d="M8.33931 21.7433C8.36879 21.7728 8.41565 21.813 8.47792 21.8619C10.0988 17.5692 13.9441 13.671 13.9441 13.671C12.1357 15.8384 11.2014 20.4774 10.8035 23.0594C12.6066 23.6636 15.0922 23.8116 17.2737 21.61C21.042 17.8069 16.6997 12.9074 23.3192 8.52232C23.3192 8.52232 14.8103 6.18069 9.38092 11.6596C3.95087 17.1391 7.86511 21.2731 8.33931 21.7433Z" fill="#444444"/>
<path d="M35.4377 26.028C35.4377 26.028 41.3359 19.4634 38.8617 12.1573C36.3881 4.85122 30.9401 6.50494 30.3077 6.71858C30.2682 6.73195 30.2106 6.75612 30.1396 6.7896C33.2549 10.1586 35.0231 15.3408 35.0231 15.3408C33.8925 12.754 30.1611 9.84448 28.0291 8.33413C26.6828 9.67708 25.439 11.8345 26.4337 14.7702C28.151 19.8412 34.4745 18.1465 35.4377 26.028Z" fill="#444444"/>
<path d="M32.4256 31.0212C31.8978 29.1948 30.6064 27.0654 27.5549 26.5223C22.2837 25.5839 20.7217 31.9416 13.3513 28.9885C13.3513 28.9885 16.2616 37.32 23.8557 38.6724C31.4497 40.0247 32.6259 34.4539 32.7432 33.797C32.7504 33.7554 32.7572 33.6944 32.7619 33.6154C28.3092 34.7219 22.916 33.7742 22.916 33.7742C25.727 34.0299 30.0746 32.1619 32.4256 31.0212Z" fill="#444444"/>
</g>
<defs>
<clipPath id="clip0">
<rect width="45" height="45" fill="white" transform="translate(0.5 0.146576)"/>
</clipPath>
</defs>
</svg>
