<svg width="60" height="60" viewBox="0 0 60 60" fill="none" xmlns="http://www.w3.org/2000/svg">
<g clip-path="url(#clip0)">
<path d="M37.8904 26.7046V24.9742C37.8904 21.4342 35.5593 18.4389 32.3486 17.4391V16.794C32.3486 15.4915 31.584 14.3988 30.558 14.1019V12.3135C30.8453 12.1293 31.0362 11.808 31.0362 11.4412C31.0362 10.8689 30.5724 10.4053 30.0002 10.4053C29.4279 10.4053 28.9641 10.8689 28.9641 11.4412C28.9641 11.808 29.155 12.1293 29.4424 12.3135V14.1018C28.4163 14.3988 27.6517 15.4915 27.6517 16.7939V17.4391C24.4408 18.4387 22.1098 21.4342 22.1098 24.9742V26.7046C23.7235 25.7569 26.2277 24.8944 30.0003 24.8944C33.7727 24.8944 36.2768 25.7569 37.8904 26.7046ZM29.0178 16.7939C29.0178 16.0306 29.4676 15.3856 30.0001 15.3856C30.5324 15.3856 30.9822 16.0305 30.9822 16.7939V17.1466C30.6602 17.1066 30.3329 17.0836 30.0001 17.0836C29.6672 17.0836 29.3398 17.1066 29.0178 17.1467V16.7939Z" fill="#616161"/>
<path d="M41.6044 32.1932V34.5645L40.5883 34.0515L38.9942 33.2468V29.73C38.5491 29.0787 36.3769 26.4884 30.0001 26.4884C23.6274 26.4884 21.4478 29.0859 21.0058 29.7302V33.368L19.4117 34.1166L18.3956 34.5938V32.1932H0V35.4495H1.57313V49.5949H18.5508H18.6112H41.3888H41.4493H58.4271V35.4494H60.0001V32.1931H41.6044V32.1932ZM8.00225 45.7923H5.92993V35.8418H8.00225V45.7923ZM13.7408 45.7923H11.6685V35.8418H13.7408V45.7923ZM30.4263 30.5394L39.088 34.9119H21.1155L30.4263 30.5394ZM23.3049 47.5226H20.6229V37.5217H23.3049V47.5226ZM28.8842 47.5226H25.5365V37.5217H28.8842V47.5226ZM34.4634 47.5226H31.1159V37.5217H34.4634V47.5226ZM39.3769 47.5226H36.695V37.5217H39.3769V47.5226ZM48.3314 45.7923H46.2592V35.8418H48.3314V45.7923ZM54.0699 45.7923H51.9977V35.8418H54.0699V45.7923Z" fill="#616161"/>
</g>
<defs>
<clipPath id="clip0">
<rect width="60" height="60" fill="white"/>
</clipPath>
</defs>
</svg>
